<svg width="160" height="166" viewBox="0 0 160 166" fill="none" xmlns="http://www.w3.org/2000/svg">
<path fill-rule="evenodd" clip-rule="evenodd" d="M0.244629 165.346V165.658H159.856V0.670883H159.554L0.244629 165.346Z" fill="#212121"/>
<path fill-rule="evenodd" clip-rule="evenodd" d="M83.043 39.579C58.103 39.579 37.885 60.4779 37.885 86.2579C37.885 112.038 58.103 132.937 83.043 132.937C107.983 132.937 128.201 112.038 128.201 86.2579C128.201 60.4779 107.983 39.579 83.043 39.579ZM18.2007 86.2579C18.2007 49.2404 47.2316 19.2318 83.043 19.2318C118.854 19.2318 147.885 49.2404 147.885 86.2579C147.885 123.275 118.854 153.284 83.043 153.284C47.2316 153.284 18.2007 123.275 18.2007 86.2579Z" fill="#3468DB"/>
</svg>
