<svg width="42" height="42" viewBox="0 0 42 42" fill="none" xmlns="http://www.w3.org/2000/svg">
<path d="M6.59472 41.25H35.4053C36.9554 41.25 38.442 40.6342 39.5381 39.5381C40.6342 38.442 41.25 36.9554 41.25 35.4053V6.59472C41.25 5.0446 40.6342 3.55798 39.5381 2.46188C38.442 1.36578 36.9554 0.75 35.4053 0.75H6.59472C5.0446 0.75 3.55798 1.36578 2.46188 2.46188C1.36578 3.55798 0.75 5.0446 0.75 6.59472V35.4053C0.75 36.9554 1.36578 38.442 2.46188 39.5381C3.55798 40.6342 5.0446 41.25 6.59472 41.25ZM4.39786 4.39786C4.9805 3.81521 5.77074 3.48789 6.59472 3.48789H35.4053C36.2293 3.48789 37.0195 3.81521 37.6021 4.39786C38.1848 4.9805 38.5121 5.77074 38.5121 6.59472V35.4053C38.5121 36.2293 38.1848 37.0195 37.6021 37.6021C37.0195 38.1848 36.2293 38.5121 35.4053 38.5121H6.59472C5.77074 38.5121 4.9805 38.1848 4.39786 37.6021C3.81521 37.0195 3.48789 36.2293 3.48789 35.4053V6.59472C3.48789 5.77074 3.81521 4.9805 4.39786 4.39786Z" fill="black" stroke="black" stroke-width="0.5"/>
<path d="M20.9997 31.5308H20.9999C23.7941 31.5308 26.474 30.4218 28.451 28.4473C30.428 26.4729 31.5406 23.7944 31.5442 21.0003V21C31.5447 18.9172 30.9276 16.8809 29.771 15.1487C28.6144 13.4165 26.9702 12.0661 25.0462 11.2682C23.1222 10.4703 21.0049 10.2607 18.9618 10.6659C16.9188 11.0711 15.0417 12.073 13.568 13.5448C12.0942 15.0167 11.0899 16.8924 10.682 18.935C10.2741 20.9775 10.4809 23.0951 11.2763 25.0201C12.0717 26.9451 13.42 28.5911 15.1507 29.7499C16.8814 30.9088 18.9168 31.5285 20.9997 31.5308ZM16.6736 14.5118C17.9538 13.6545 19.4593 13.1957 21.0001 13.1936C23.0704 13.1936 25.0559 14.0161 26.5199 15.48C27.9838 16.9439 28.8062 18.9294 28.8063 20.9996C28.8042 22.5404 28.3455 24.0461 27.4881 25.3263C26.6307 26.6066 25.4132 27.604 23.9892 28.1927C22.5653 28.7813 20.9988 28.9348 19.4877 28.6337C17.9766 28.3325 16.5886 27.5903 15.4991 26.5008C14.4096 25.4113 13.6674 24.0233 13.3662 22.5122C13.0651 21.0011 13.2186 19.4346 13.8072 18.0107C14.3959 16.5867 15.3933 15.3692 16.6736 14.5118Z" fill="black" stroke="black" stroke-width="0.5"/>
<path d="M32.6372 12.0858C34.1039 12.0858 35.2929 10.8968 35.2929 9.43011C35.2929 7.96339 34.1039 6.77438 32.6372 6.77438C31.1705 6.77438 29.9814 7.96339 29.9814 9.43011C29.9814 10.8968 31.1705 12.0858 32.6372 12.0858Z" fill="black" stroke="black" stroke-width="0.5"/>
</svg>
