<svg width="42" height="42" viewBox="0 0 42 42" fill="none" xmlns="http://www.w3.org/2000/svg">
<path d="M35.3154 6.67784L35.3154 6.67786C37.1969 8.55902 38.6894 10.7924 39.7076 13.2504C40.7259 15.7084 41.25 18.343 41.25 21.0035C41.25 23.6641 40.7259 26.2987 39.7076 28.7567C38.6894 31.2147 37.1969 33.4481 35.3154 35.3292L35.3149 35.3298C33.4288 37.2042 31.2003 38.6991 28.7505 39.7332L28.7484 39.7341C26.2901 40.745 23.6577 41.2646 20.9997 41.2634C15.6282 41.2607 10.4776 39.125 6.68037 35.3258C2.88313 31.5267 0.750012 26.3751 0.75 21.0036L35.3154 6.67784ZM35.3154 6.67784C32.4828 3.84653 28.8743 1.91874 24.9461 1.13826M35.3154 6.67784L24.9461 1.13826M24.9461 1.13826C21.0179 0.357768 16.9465 0.75963 13.2467 2.29303M24.9461 1.13826L13.2467 2.29303M13.2467 2.29303C9.5469 3.82642 6.38488 6.42248 4.1605 9.75293M13.2467 2.29303L4.1605 9.75293M4.1605 9.75293C1.93612 13.0834 0.74926 16.9986 0.75 21.0035L4.1605 9.75293ZM33.5516 33.546L33.7152 33.7089L33.5516 33.5461C30.7776 36.332 27.1578 38.1142 23.2639 38.6166V25.9363H26.8003C27.4008 25.9363 27.9767 25.6977 28.4013 25.2731C28.8259 24.8486 29.0644 24.2727 29.0644 23.6722C29.0644 23.0717 28.8259 22.4959 28.4013 22.0713C27.9767 21.6467 27.4008 21.4081 26.8003 21.4081H23.2639V16.1396C23.2639 15.6717 23.4497 15.223 23.7806 14.8922C24.1114 14.5613 24.5601 14.3755 25.028 14.3755H27.4448C28.0453 14.3755 28.6212 14.1369 29.0458 13.7123C29.4704 13.2877 29.7089 12.7119 29.7089 12.1114C29.7089 11.5109 29.4704 10.935 29.0458 10.5105C28.6212 10.0859 28.0453 9.84732 27.4448 9.84732H24.0209C22.6192 9.84732 21.2749 10.4041 20.2837 11.3953C19.2925 12.3865 18.7357 13.7308 18.7357 15.1325V21.4081H15.2194C14.6189 21.4081 14.043 21.6467 13.6184 22.0713C13.1939 22.4959 12.9553 23.0717 12.9553 23.6722C12.9553 24.2727 13.1939 24.8486 13.6184 25.2731C14.043 25.6977 14.6189 25.9363 15.2194 25.9363H18.7357V38.6163C15.1517 38.1498 11.7936 36.5977 9.1145 34.1651C6.36614 31.6696 4.47125 28.3738 3.69745 24.7431C2.92366 21.1124 3.31009 17.3304 4.80216 13.9312C6.29422 10.532 8.81651 7.68752 12.0127 5.79946C15.209 3.91141 18.9176 3.07523 22.6148 3.40905C26.312 3.74287 29.8109 5.22981 32.6172 7.65984C35.4236 10.0899 37.3956 13.3402 38.2547 16.9516C39.1137 20.5629 38.8165 24.3527 37.4051 27.786C36.5059 29.9375 35.1971 31.8938 33.5516 33.546Z" fill="black" stroke="black" stroke-width="0.5"/>
</svg>
