<svg width="42" height="71" viewBox="0 0 42 71" fill="none" xmlns="http://www.w3.org/2000/svg">
<path d="M3.43603 43.4C3.94803 43.4 4.32936 43.52 4.58003 43.76C4.8307 44 4.95603 44.3547 4.95603 44.824C4.95603 45.0747 4.8947 45.296 4.77203 45.488C4.64936 45.6747 4.46803 45.8213 4.22803 45.928C3.98803 46.0293 3.69203 46.08 3.34003 46.08L3.37203 45.72C3.53736 45.72 3.7267 45.744 3.94003 45.792C4.15336 45.8347 4.3587 45.9147 4.55603 46.032C4.7587 46.144 4.92403 46.304 5.05203 46.512C5.18536 46.7147 5.25203 46.976 5.25203 47.296C5.25203 47.648 5.19336 47.936 5.07603 48.16C4.96403 48.384 4.8147 48.5573 4.62803 48.68C4.44136 48.8027 4.24136 48.888 4.02803 48.936C3.8147 48.9787 3.60936 49 3.41203 49H1.42003C1.28136 49 1.16403 48.9547 1.06803 48.864C0.977365 48.768 0.932031 48.6507 0.932031 48.512V43.888C0.932031 43.7493 0.977365 43.6347 1.06803 43.544C1.16403 43.448 1.28136 43.4 1.42003 43.4H3.43603ZM3.29203 44.344H1.86803L1.97203 44.216V45.664L1.87603 45.592H3.31603C3.4707 45.592 3.60936 45.5413 3.73203 45.44C3.8547 45.3387 3.91603 45.192 3.91603 45C3.91603 44.7707 3.85736 44.6053 3.74003 44.504C3.62803 44.3973 3.4787 44.344 3.29203 44.344ZM3.35603 46.536H1.90003L1.97203 46.472V48.16L1.89203 48.08H3.41203C3.65736 48.08 3.85203 48.016 3.99603 47.888C4.14003 47.7547 4.21203 47.5573 4.21203 47.296C4.21203 47.056 4.16403 46.8827 4.06803 46.776C3.97203 46.6693 3.85736 46.6027 3.72403 46.576C3.5907 46.5493 3.46803 46.536 3.35603 46.536ZM7.17422 48.512C7.17422 48.6507 7.12355 48.768 7.02222 48.864C6.92089 48.9547 6.80355 49 6.67022 49C6.52089 49 6.40089 48.9547 6.31022 48.864C6.21955 48.768 6.17422 48.6507 6.17422 48.512V43.888C6.17422 43.7493 6.22222 43.6347 6.31822 43.544C6.41422 43.448 6.53689 43.4 6.68622 43.4C6.81422 43.4 6.92622 43.448 7.02222 43.544C7.12355 43.6347 7.17422 43.7493 7.17422 43.888V48.512ZM11.4653 48.064C11.604 48.064 11.7187 48.1093 11.8093 48.2C11.9053 48.2853 11.9533 48.3973 11.9533 48.536C11.9533 48.6693 11.9053 48.7813 11.8093 48.872C11.7187 48.9573 11.604 49 11.4653 49H8.86534C8.72668 49 8.60934 48.9547 8.51334 48.864C8.42268 48.768 8.37734 48.6507 8.37734 48.512V43.888C8.37734 43.7493 8.42534 43.6347 8.52134 43.544C8.61734 43.448 8.74001 43.4 8.88934 43.4C9.01734 43.4 9.12934 43.448 9.22534 43.544C9.32668 43.6347 9.37734 43.7493 9.37734 43.888V48.2L9.20134 48.064H11.4653ZM15.9575 48.064C16.0962 48.064 16.2109 48.1093 16.3015 48.2C16.3975 48.2853 16.4455 48.3973 16.4455 48.536C16.4455 48.6693 16.3975 48.7813 16.3015 48.872C16.2109 48.9573 16.0962 49 15.9575 49H13.3575C13.2189 49 13.1015 48.9547 13.0055 48.864C12.9149 48.768 12.8695 48.6507 12.8695 48.512V43.888C12.8695 43.7493 12.9175 43.6347 13.0135 43.544C13.1095 43.448 13.2322 43.4 13.3815 43.4C13.5095 43.4 13.6215 43.448 13.7175 43.544C13.8189 43.6347 13.8695 43.7493 13.8695 43.888V48.2L13.6935 48.064H15.9575ZM17.8497 43.4H20.5297C20.6684 43.4 20.7831 43.4453 20.8737 43.536C20.9697 43.6213 21.0177 43.7333 21.0177 43.872C21.0177 44.0053 20.9697 44.1147 20.8737 44.2C20.7831 44.28 20.6684 44.32 20.5297 44.32H18.2897L18.3617 44.184V45.744L18.2977 45.68H20.1697C20.3084 45.68 20.4231 45.7253 20.5137 45.816C20.6097 45.9013 20.6577 46.0133 20.6577 46.152C20.6577 46.2853 20.6097 46.3947 20.5137 46.48C20.4231 46.56 20.3084 46.6 20.1697 46.6H18.3217L18.3617 46.536V48.152L18.2977 48.08H20.5297C20.6684 48.08 20.7831 48.128 20.8737 48.224C20.9697 48.3147 21.0177 48.4213 21.0177 48.544C21.0177 48.6773 20.9697 48.7867 20.8737 48.872C20.7831 48.9573 20.6684 49 20.5297 49H17.8497C17.7111 49 17.5937 48.9547 17.4977 48.864C17.4071 48.768 17.3617 48.6507 17.3617 48.512V43.888C17.3617 43.7493 17.4071 43.6347 17.4977 43.544C17.5937 43.448 17.7111 43.4 17.8497 43.4ZM23.8358 49C23.6865 49 23.5638 48.9547 23.4678 48.864C23.3718 48.768 23.3238 48.6507 23.3238 48.512V43.872H24.3638V48.512C24.3638 48.6507 24.3132 48.768 24.2118 48.864C24.1158 48.9547 23.9905 49 23.8358 49ZM22.0678 44.32C21.9292 44.32 21.8118 44.2773 21.7158 44.192C21.6252 44.1067 21.5798 43.9947 21.5798 43.856C21.5798 43.7173 21.6252 43.608 21.7158 43.528C21.8118 43.4427 21.9292 43.4 22.0678 43.4H25.6198C25.7585 43.4 25.8732 43.4427 25.9638 43.528C26.0598 43.6133 26.1078 43.7253 26.1078 43.864C26.1078 44.0027 26.0598 44.1147 25.9638 44.2C25.8732 44.28 25.7585 44.32 25.6198 44.32H22.0678ZM29.0858 49C28.9365 49 28.8138 48.9547 28.7178 48.864C28.6218 48.768 28.5738 48.6507 28.5738 48.512V43.872H29.6138V48.512C29.6138 48.6507 29.5632 48.768 29.4618 48.864C29.3658 48.9547 29.2405 49 29.0858 49ZM27.3178 44.32C27.1792 44.32 27.0618 44.2773 26.9658 44.192C26.8752 44.1067 26.8298 43.9947 26.8298 43.856C26.8298 43.7173 26.8752 43.608 26.9658 43.528C27.0618 43.4427 27.1792 43.4 27.3178 43.4H30.8698C31.0085 43.4 31.1232 43.4427 31.2138 43.528C31.3098 43.6133 31.3578 43.7253 31.3578 43.864C31.3578 44.0027 31.3098 44.1147 31.2138 44.2C31.1232 44.28 31.0085 44.32 30.8698 44.32H27.3178ZM32.6857 43.4H35.3657C35.5043 43.4 35.619 43.4453 35.7097 43.536C35.8057 43.6213 35.8537 43.7333 35.8537 43.872C35.8537 44.0053 35.8057 44.1147 35.7097 44.2C35.619 44.28 35.5043 44.32 35.3657 44.32H33.1257L33.1977 44.184V45.744L33.1337 45.68H35.0057C35.1443 45.68 35.259 45.7253 35.3497 45.816C35.4457 45.9013 35.4937 46.0133 35.4937 46.152C35.4937 46.2853 35.4457 46.3947 35.3497 46.48C35.259 46.56 35.1443 46.6 35.0057 46.6H33.1577L33.1977 46.536V48.152L33.1337 48.08H35.3657C35.5043 48.08 35.619 48.128 35.7097 48.224C35.8057 48.3147 35.8537 48.4213 35.8537 48.544C35.8537 48.6773 35.8057 48.7867 35.7097 48.872C35.619 48.9573 35.5043 49 35.3657 49H32.6857C32.547 49 32.4297 48.9547 32.3337 48.864C32.243 48.768 32.1977 48.6507 32.1977 48.512V43.888C32.1977 43.7493 32.243 43.6347 32.3337 43.544C32.4297 43.448 32.547 43.4 32.6857 43.4ZM37.3518 49C37.2024 49 37.0691 48.9547 36.9518 48.864C36.8344 48.768 36.7758 48.6507 36.7758 48.512V43.888C36.7758 43.7493 36.8211 43.6347 36.9118 43.544C37.0078 43.448 37.1251 43.4 37.2638 43.4H39.5678C39.8451 43.4 40.1038 43.4747 40.3438 43.624C40.5891 43.768 40.7864 43.9707 40.9358 44.232C41.0851 44.488 41.1598 44.784 41.1598 45.12C41.1598 45.3227 41.1171 45.52 41.0318 45.712C40.9518 45.904 40.8398 46.0773 40.6958 46.232C40.5571 46.3867 40.3998 46.5067 40.2238 46.592L40.2318 46.408C40.3811 46.488 40.5038 46.584 40.5998 46.696C40.7011 46.8027 40.7784 46.92 40.8318 47.048C40.8904 47.1707 40.9251 47.304 40.9358 47.448C40.9571 47.5813 40.9704 47.6987 40.9758 47.8C40.9864 47.9013 41.0024 47.9867 41.0238 48.056C41.0504 48.1253 41.0984 48.1787 41.1678 48.216C41.2851 48.2853 41.3571 48.3867 41.3838 48.52C41.4158 48.648 41.3864 48.7627 41.2958 48.864C41.2371 48.9333 41.1624 48.9787 41.0718 49C40.9811 49.016 40.8904 49.016 40.7998 49C40.7091 48.9787 40.6344 48.952 40.5758 48.92C40.4851 48.8667 40.3944 48.7893 40.3038 48.688C40.2131 48.5813 40.1384 48.44 40.0798 48.264C40.0264 48.088 39.9998 47.8613 39.9998 47.584C39.9998 47.4933 39.9838 47.4107 39.9518 47.336C39.9198 47.256 39.8744 47.1893 39.8158 47.136C39.7571 47.0773 39.6824 47.0347 39.5918 47.008C39.5011 46.976 39.3944 46.96 39.2718 46.96H37.6558L37.7758 46.776V48.512C37.7758 48.6507 37.7384 48.768 37.6638 48.864C37.5891 48.9547 37.4851 49 37.3518 49ZM37.6638 46.136H39.5278C39.6238 46.136 39.7171 46.0933 39.8078 46.008C39.8984 45.9173 39.9731 45.7973 40.0318 45.648C40.0904 45.4933 40.1198 45.3253 40.1198 45.144C40.1198 44.9093 40.0558 44.7147 39.9278 44.56C39.8051 44.4 39.6718 44.32 39.5278 44.32H37.6798L37.7758 44.064V46.328L37.6638 46.136Z" fill="black"/>
<path d="M1 0H41.977V31H1V18.885H2.78162C4.65112 18.885 6.16663 17.3695 6.16663 15.5C6.16663 13.6305 4.65112 12.115 2.78162 12.115H1V0ZM38.4138 3.56324H4.56324V8.78341C7.55917 9.60183 9.72567 12.2974 9.72991 15.4996V15.5C9.72563 18.7027 7.55913 21.3983 4.61206 22.2053L4.56324 22.2167V27.4369H38.4138V3.56324ZM18.1035 10.5115H14.7184V6.94829H18.1034L18.1035 10.5115ZM18.1035 17.2816H14.7184V13.7184H18.1034L18.1035 17.2816ZM18.1035 24.0517H14.7184V20.4886H18.1034L18.1035 24.0517Z" fill="black"/>
</svg>
