<svg width="42" height="71" viewBox="0 0 42 71" fill="none" xmlns="http://www.w3.org/2000/svg">
<path d="M3.43603 43.4C3.94803 43.4 4.32936 43.52 4.58003 43.76C4.8307 44 4.95603 44.3547 4.95603 44.824C4.95603 45.0747 4.8947 45.296 4.77203 45.488C4.64936 45.6747 4.46803 45.8213 4.22803 45.928C3.98803 46.0293 3.69203 46.08 3.34003 46.08L3.37203 45.72C3.53736 45.72 3.7267 45.744 3.94003 45.792C4.15336 45.8347 4.3587 45.9147 4.55603 46.032C4.7587 46.144 4.92403 46.304 5.05203 46.512C5.18536 46.7147 5.25203 46.976 5.25203 47.296C5.25203 47.648 5.19336 47.936 5.07603 48.16C4.96403 48.384 4.8147 48.5573 4.62803 48.68C4.44136 48.8027 4.24136 48.888 4.02803 48.936C3.8147 48.9787 3.60936 49 3.41203 49H1.42003C1.28136 49 1.16403 48.9547 1.06803 48.864C0.977365 48.768 0.932031 48.6507 0.932031 48.512V43.888C0.932031 43.7493 0.977365 43.6347 1.06803 43.544C1.16403 43.448 1.28136 43.4 1.42003 43.4H3.43603ZM3.29203 44.344H1.86803L1.97203 44.216V45.664L1.87603 45.592H3.31603C3.4707 45.592 3.60936 45.5413 3.73203 45.44C3.8547 45.3387 3.91603 45.192 3.91603 45C3.91603 44.7707 3.85736 44.6053 3.74003 44.504C3.62803 44.3973 3.4787 44.344 3.29203 44.344ZM3.35603 46.536H1.90003L1.97203 46.472V48.16L1.89203 48.08H3.41203C3.65736 48.08 3.85203 48.016 3.99603 47.888C4.14003 47.7547 4.21203 47.5573 4.21203 47.296C4.21203 47.056 4.16403 46.8827 4.06803 46.776C3.97203 46.6693 3.85736 46.6027 3.72403 46.576C3.5907 46.5493 3.46803 46.536 3.35603 46.536ZM7.17422 48.512C7.17422 48.6507 7.12355 48.768 7.02222 48.864C6.92089 48.9547 6.80355 49 6.67022 49C6.52089 49 6.40089 48.9547 6.31022 48.864C6.21955 48.768 6.17422 48.6507 6.17422 48.512V43.888C6.17422 43.7493 6.22222 43.6347 6.31822 43.544C6.41422 43.448 6.53689 43.4 6.68622 43.4C6.81422 43.4 6.92622 43.448 7.02222 43.544C7.12355 43.6347 7.17422 43.7493 7.17422 43.888V48.512ZM11.4653 48.064C11.604 48.064 11.7187 48.1093 11.8093 48.2C11.9053 48.2853 11.9533 48.3973 11.9533 48.536C11.9533 48.6693 11.9053 48.7813 11.8093 48.872C11.7187 48.9573 11.604 49 11.4653 49H8.86534C8.72668 49 8.60934 48.9547 8.51334 48.864C8.42268 48.768 8.37734 48.6507 8.37734 48.512V43.888C8.37734 43.7493 8.42534 43.6347 8.52134 43.544C8.61734 43.448 8.74001 43.4 8.88934 43.4C9.01734 43.4 9.12934 43.448 9.22534 43.544C9.32668 43.6347 9.37734 43.7493 9.37734 43.888V48.2L9.20134 48.064H11.4653ZM15.9575 48.064C16.0962 48.064 16.2109 48.1093 16.3015 48.2C16.3975 48.2853 16.4455 48.3973 16.4455 48.536C16.4455 48.6693 16.3975 48.7813 16.3015 48.872C16.2109 48.9573 16.0962 49 15.9575 49H13.3575C13.2189 49 13.1015 48.9547 13.0055 48.864C12.9149 48.768 12.8695 48.6507 12.8695 48.512V43.888C12.8695 43.7493 12.9175 43.6347 13.0135 43.544C13.1095 43.448 13.2322 43.4 13.3815 43.4C13.5095 43.4 13.6215 43.448 13.7175 43.544C13.8189 43.6347 13.8695 43.7493 13.8695 43.888V48.2L13.6935 48.064H15.9575ZM17.8497 43.4H20.5297C20.6684 43.4 20.7831 43.4453 20.8737 43.536C20.9697 43.6213 21.0177 43.7333 21.0177 43.872C21.0177 44.0053 20.9697 44.1147 20.8737 44.2C20.7831 44.28 20.6684 44.32 20.5297 44.32H18.2897L18.3617 44.184V45.744L18.2977 45.68H20.1697C20.3084 45.68 20.4231 45.7253 20.5137 45.816C20.6097 45.9013 20.6577 46.0133 20.6577 46.152C20.6577 46.2853 20.6097 46.3947 20.5137 46.48C20.4231 46.56 20.3084 46.6 20.1697 46.6H18.3217L18.3617 46.536V48.152L18.2977 48.08H20.5297C20.6684 48.08 20.7831 48.128 20.8737 48.224C20.9697 48.3147 21.0177 48.4213 21.0177 48.544C21.0177 48.6773 20.9697 48.7867 20.8737 48.872C20.7831 48.9573 20.6684 49 20.5297 49H17.8497C17.7111 49 17.5937 48.9547 17.4977 48.864C17.4071 48.768 17.3617 48.6507 17.3617 48.512V43.888C17.3617 43.7493 17.4071 43.6347 17.4977 43.544C17.5937 43.448 17.7111 43.4 17.8497 43.4ZM23.8358 49C23.6865 49 23.5638 48.9547 23.4678 48.864C23.3718 48.768 23.3238 48.6507 23.3238 48.512V43.872H24.3638V48.512C24.3638 48.6507 24.3132 48.768 24.2118 48.864C24.1158 48.9547 23.9905 49 23.8358 49ZM22.0678 44.32C21.9292 44.32 21.8118 44.2773 21.7158 44.192C21.6252 44.1067 21.5798 43.9947 21.5798 43.856C21.5798 43.7173 21.6252 43.608 21.7158 43.528C21.8118 43.4427 21.9292 43.4 22.0678 43.4H25.6198C25.7585 43.4 25.8732 43.4427 25.9638 43.528C26.0598 43.6133 26.1078 43.7253 26.1078 43.864C26.1078 44.0027 26.0598 44.1147 25.9638 44.2C25.8732 44.28 25.7585 44.32 25.6198 44.32H22.0678ZM29.0858 49C28.9365 49 28.8138 48.9547 28.7178 48.864C28.6218 48.768 28.5738 48.6507 28.5738 48.512V43.872H29.6138V48.512C29.6138 48.6507 29.5632 48.768 29.4618 48.864C29.3658 48.9547 29.2405 49 29.0858 49ZM27.3178 44.32C27.1792 44.32 27.0618 44.2773 26.9658 44.192C26.8752 44.1067 26.8298 43.9947 26.8298 43.856C26.8298 43.7173 26.8752 43.608 26.9658 43.528C27.0618 43.4427 27.1792 43.4 27.3178 43.4H30.8698C31.0085 43.4 31.1232 43.4427 31.2138 43.528C31.3098 43.6133 31.3578 43.7253 31.3578 43.864C31.3578 44.0027 31.3098 44.1147 31.2138 44.2C31.1232 44.28 31.0085 44.32 30.8698 44.32H27.3178ZM32.6857 43.4H35.3657C35.5043 43.4 35.619 43.4453 35.7097 43.536C35.8057 43.6213 35.8537 43.7333 35.8537 43.872C35.8537 44.0053 35.8057 44.1147 35.7097 44.2C35.619 44.28 35.5043 44.32 35.3657 44.32H33.1257L33.1977 44.184V45.744L33.1337 45.68H35.0057C35.1443 45.68 35.259 45.7253 35.3497 45.816C35.4457 45.9013 35.4937 46.0133 35.4937 46.152C35.4937 46.2853 35.4457 46.3947 35.3497 46.48C35.259 46.56 35.1443 46.6 35.0057 46.6H33.1577L33.1977 46.536V48.152L33.1337 48.08H35.3657C35.5043 48.08 35.619 48.128 35.7097 48.224C35.8057 48.3147 35.8537 48.4213 35.8537 48.544C35.8537 48.6773 35.8057 48.7867 35.7097 48.872C35.619 48.9573 35.5043 49 35.3657 49H32.6857C32.547 49 32.4297 48.9547 32.3337 48.864C32.243 48.768 32.1977 48.6507 32.1977 48.512V43.888C32.1977 43.7493 32.243 43.6347 32.3337 43.544C32.4297 43.448 32.547 43.4 32.6857 43.4ZM37.3518 49C37.2024 49 37.0691 48.9547 36.9518 48.864C36.8344 48.768 36.7758 48.6507 36.7758 48.512V43.888C36.7758 43.7493 36.8211 43.6347 36.9118 43.544C37.0078 43.448 37.1251 43.4 37.2638 43.4H39.5678C39.8451 43.4 40.1038 43.4747 40.3438 43.624C40.5891 43.768 40.7864 43.9707 40.9358 44.232C41.0851 44.488 41.1598 44.784 41.1598 45.12C41.1598 45.3227 41.1171 45.52 41.0318 45.712C40.9518 45.904 40.8398 46.0773 40.6958 46.232C40.5571 46.3867 40.3998 46.5067 40.2238 46.592L40.2318 46.408C40.3811 46.488 40.5038 46.584 40.5998 46.696C40.7011 46.8027 40.7784 46.92 40.8318 47.048C40.8904 47.1707 40.9251 47.304 40.9358 47.448C40.9571 47.5813 40.9704 47.6987 40.9758 47.8C40.9864 47.9013 41.0024 47.9867 41.0238 48.056C41.0504 48.1253 41.0984 48.1787 41.1678 48.216C41.2851 48.2853 41.3571 48.3867 41.3838 48.52C41.4158 48.648 41.3864 48.7627 41.2958 48.864C41.2371 48.9333 41.1624 48.9787 41.0718 49C40.9811 49.016 40.8904 49.016 40.7998 49C40.7091 48.9787 40.6344 48.952 40.5758 48.92C40.4851 48.8667 40.3944 48.7893 40.3038 48.688C40.2131 48.5813 40.1384 48.44 40.0798 48.264C40.0264 48.088 39.9998 47.8613 39.9998 47.584C39.9998 47.4933 39.9838 47.4107 39.9518 47.336C39.9198 47.256 39.8744 47.1893 39.8158 47.136C39.7571 47.0773 39.6824 47.0347 39.5918 47.008C39.5011 46.976 39.3944 46.96 39.2718 46.96H37.6558L37.7758 46.776V48.512C37.7758 48.6507 37.7384 48.768 37.6638 48.864C37.5891 48.9547 37.4851 49 37.3518 49ZM37.6638 46.136H39.5278C39.6238 46.136 39.7171 46.0933 39.8078 46.008C39.8984 45.9173 39.9731 45.7973 40.0318 45.648C40.0904 45.4933 40.1198 45.3253 40.1198 45.144C40.1198 44.9093 40.0558 44.7147 39.9278 44.56C39.8051 44.4 39.6718 44.32 39.5278 44.32H37.6798L37.7758 44.064V46.328L37.6638 46.136Z" fill="black"/>
<path d="M4.77203 45.488L5.60781 46.0372L5.61473 46.0264L4.77203 45.488ZM4.22803 45.928L4.617 46.8492L4.62562 46.8456L4.63417 46.8418L4.22803 45.928ZM3.34003 46.08L2.34396 45.9915L2.2472 47.08H3.34003V46.08ZM3.37203 45.72V44.72H2.45698L2.37596 45.6315L3.37203 45.72ZM3.94003 45.792L3.72052 46.7676L3.73219 46.7702L3.74391 46.7726L3.94003 45.792ZM4.55603 46.032L4.04496 46.8915L4.05853 46.8996L4.07235 46.9072L4.55603 46.032ZM5.05203 46.512L4.20037 47.0361L4.2083 47.049L4.21661 47.0616L5.05203 46.512ZM5.07603 48.16L4.1902 47.696L4.18582 47.7043L4.1816 47.7128L5.07603 48.16ZM4.62803 48.68L4.07885 47.8443L4.07885 47.8443L4.62803 48.68ZM4.02803 48.936L4.22415 49.9166L4.23588 49.9142L4.24754 49.9116L4.02803 48.936ZM1.06803 48.864L0.341018 49.5506L0.360636 49.5714L0.381408 49.591L1.06803 48.864ZM1.06803 43.544L0.360924 42.8369L0.360924 42.8369L1.06803 43.544ZM1.86803 44.344L1.09192 43.7134L-0.232938 45.344H1.86803V44.344ZM1.97203 44.216H2.97203V41.3994L1.19592 43.5854L1.97203 44.216ZM1.97203 45.664L1.37203 46.464L2.97203 47.664V45.664H1.97203ZM1.87603 45.592V44.592H-1.12397L1.27603 46.392L1.87603 45.592ZM3.74003 44.504L3.05038 45.2281L3.068 45.2449L3.08641 45.2608L3.74003 44.504ZM1.90003 46.536L1.23567 45.7886L-0.730172 47.536H1.90003V46.536ZM1.97203 46.472H2.97203V44.2452L1.30767 45.7246L1.97203 46.472ZM1.97203 48.16L1.26492 48.8671L2.97203 50.5742V48.16H1.97203ZM1.89203 48.08V47.08H-0.522184L1.18492 48.7871L1.89203 48.08ZM3.99603 47.888L4.6604 48.6354L4.66799 48.6287L4.67544 48.6218L3.99603 47.888ZM4.06803 46.776L3.32474 47.445L3.32474 47.445L4.06803 46.776ZM3.72403 46.576L3.52791 47.5566L3.52792 47.5566L3.72403 46.576ZM3.43603 44.4C3.61728 44.4 3.73515 44.4216 3.80586 44.4439C3.84005 44.4546 3.86105 44.4649 3.87258 44.4714C3.88369 44.4777 3.88784 44.4817 3.88846 44.4823L5.2716 43.0377C4.76266 42.5504 4.08467 42.4 3.43603 42.4V44.4ZM3.88846 44.4823C3.89143 44.4852 3.90419 44.4968 3.91917 44.5392C3.93597 44.5867 3.95603 44.6759 3.95603 44.824H5.95603C5.95603 44.1814 5.78113 43.5255 5.2716 43.0377L3.88846 44.4823ZM3.95603 44.824C3.95603 44.9037 3.93911 44.9343 3.92933 44.9496L5.61473 46.0264C5.85029 45.6577 5.95603 45.2456 5.95603 44.824H3.95603ZM3.93633 44.9388C3.93631 44.9388 3.91805 44.9715 3.82189 45.0142L4.63417 46.8418C5.01801 46.6712 5.36242 46.4105 5.60774 46.0372L3.93633 44.9388ZM3.83906 45.0068C3.7572 45.0413 3.6026 45.08 3.34003 45.08V47.08C3.78146 47.08 4.21886 47.0174 4.617 46.8492L3.83906 45.0068ZM4.3361 46.1685L4.3681 45.8085L2.37596 45.6315L2.34396 45.9915L4.3361 46.1685ZM3.37203 46.72C3.44425 46.72 3.55763 46.731 3.72052 46.7676L4.15954 44.8164C3.89576 44.757 3.63047 44.72 3.37203 44.72V46.72ZM3.74391 46.7726C3.84014 46.7918 3.93957 46.8289 4.04496 46.8915L5.06711 45.1725C4.77782 45.0005 4.46659 44.8775 4.13615 44.8114L3.74391 46.7726ZM4.07235 46.9072C4.1158 46.9313 4.15759 46.9666 4.20037 47.0361L5.90369 45.9879C5.69048 45.6414 5.4016 45.3567 5.03972 45.1568L4.07235 46.9072ZM4.21661 47.0616C4.21666 47.0617 4.21708 47.0623 4.21783 47.0637C4.21858 47.0651 4.21974 47.0674 4.22121 47.0708C4.22412 47.0776 4.22849 47.0893 4.23306 47.1072C4.24238 47.1437 4.25203 47.2044 4.25203 47.296H6.25203C6.25203 46.8419 6.15747 46.3728 5.88745 45.9624L4.21661 47.0616ZM4.25203 47.296C4.25203 47.5462 4.20897 47.6602 4.1902 47.696L5.96186 48.624C6.17776 48.2118 6.25203 47.7498 6.25203 47.296H4.25203ZM4.1816 47.7128C4.13867 47.7987 4.10097 47.8298 4.07885 47.8443L5.17721 49.5157C5.52842 49.2849 5.78939 48.9693 5.97046 48.6072L4.1816 47.7128ZM4.07885 47.8443C3.99056 47.9023 3.9019 47.9394 3.80852 47.9604L4.24754 49.9116C4.58083 49.8366 4.89217 49.703 5.17721 49.5157L4.07885 47.8443ZM3.83192 47.9554C3.67666 47.9865 3.5372 48 3.41203 48V50C3.68153 50 3.95274 49.9709 4.22415 49.9166L3.83192 47.9554ZM3.41203 48H1.42003V50H3.41203V48ZM1.42003 48C1.46133 48 1.52092 48.0071 1.58843 48.0332C1.6568 48.0596 1.71307 48.0977 1.75465 48.137L0.381408 49.591C0.673054 49.8665 1.04015 50 1.42003 50V48ZM1.79504 48.1774C1.83432 48.219 1.87241 48.2752 1.89883 48.3436C1.92491 48.4111 1.93203 48.4707 1.93203 48.512H-0.0679687C-0.0679687 48.8919 0.065574 49.259 0.341018 49.5506L1.79504 48.1774ZM1.93203 48.512V43.888H-0.0679687V48.512H1.93203ZM1.93203 43.888C1.93203 43.9289 1.92501 43.9923 1.89599 44.0657C1.86636 44.1406 1.82258 44.2037 1.77514 44.2511L0.360924 42.8369C0.0665053 43.1313 -0.0679687 43.508 -0.0679687 43.888H1.93203ZM1.77514 44.2511C1.73598 44.2903 1.67943 44.3318 1.60666 44.3615C1.53432 44.3911 1.4683 44.4 1.42003 44.4V42.4C1.0225 42.4 0.648907 42.5489 0.360924 42.8369L1.77514 44.2511ZM1.42003 44.4H3.43603V42.4H1.42003V44.4ZM3.29203 43.344H1.86803V45.344H3.29203V43.344ZM2.64415 44.9746L2.74815 44.8466L1.19592 43.5854L1.09192 43.7134L2.64415 44.9746ZM0.972031 44.216V45.664H2.97203V44.216H0.972031ZM2.57203 44.864L2.47603 44.792L1.27603 46.392L1.37203 46.464L2.57203 44.864ZM1.87603 46.592H3.31603V44.592H1.87603V46.592ZM3.31603 46.592C3.71032 46.592 4.07263 46.4557 4.36891 46.211L3.09515 44.669C3.11461 44.653 3.14741 44.6313 3.19284 44.6147C3.23864 44.598 3.28193 44.592 3.31603 44.592V46.592ZM4.36891 46.211C4.76928 45.8802 4.91603 45.4223 4.91603 45H2.91603C2.91603 44.9904 2.91757 44.9396 2.94745 44.8682C2.97942 44.7917 3.03153 44.7216 3.09515 44.669L4.36891 46.211ZM4.91603 45C4.91603 44.6217 4.8193 44.1148 4.39365 43.7472L3.08641 45.2608C2.99728 45.1838 2.95051 45.0973 2.9296 45.0384C2.91116 44.9864 2.91603 44.9662 2.91603 45H4.91603ZM4.42969 43.7799C4.0946 43.4607 3.67914 43.344 3.29203 43.344V45.344C3.29059 45.344 3.2582 45.3438 3.2077 45.3257C3.15408 45.3066 3.09823 45.2737 3.05038 45.2281L4.42969 43.7799ZM3.35603 45.536H1.90003V47.536H3.35603V45.536ZM2.56439 47.2834L2.63639 47.2194L1.30767 45.7246L1.23567 45.7886L2.56439 47.2834ZM0.972031 46.472V48.16H2.97203V46.472H0.972031ZM2.67914 47.4529L2.59914 47.3729L1.18492 48.7871L1.26492 48.8671L2.67914 47.4529ZM1.89203 49.08H3.41203V47.08H1.89203V49.08ZM3.41203 49.08C3.83322 49.08 4.28758 48.9668 4.6604 48.6354L3.33167 47.1406C3.36833 47.108 3.40547 47.09 3.42971 47.082C3.45078 47.0751 3.44888 47.08 3.41203 47.08V49.08ZM4.67544 48.6218C5.08535 48.2422 5.21203 47.7392 5.21203 47.296H3.21203C3.21203 47.3372 3.2061 47.3315 3.21861 47.2972C3.23309 47.2575 3.26403 47.2029 3.31662 47.1542L4.67544 48.6218ZM5.21203 47.296C5.21203 46.9634 5.15288 46.4865 4.81133 46.107L3.32474 47.445C3.24621 47.3577 3.21942 47.2786 3.2123 47.2529C3.20574 47.2292 3.21203 47.2381 3.21203 47.296H5.21203ZM4.81133 46.107C4.57976 45.8497 4.27682 45.6668 3.92015 45.5954L3.52792 47.5566C3.48948 47.5489 3.44756 47.5339 3.40741 47.5105C3.36778 47.4875 3.34062 47.4626 3.32474 47.445L4.81133 46.107ZM3.92015 45.5954C3.73543 45.5585 3.54609 45.536 3.35603 45.536V47.536C3.38997 47.536 3.44597 47.5402 3.52791 47.5566L3.92015 45.5954ZM7.02222 48.864L7.68901 49.6092L7.69963 49.5997L7.70996 49.59L7.02222 48.864ZM6.31022 48.864L5.58321 49.5506L5.59301 49.561L5.60311 49.5711L6.31022 48.864ZM6.31822 43.544L7.00484 44.271L7.01523 44.2612L7.02533 44.2511L6.31822 43.544ZM7.02222 43.544L6.31511 44.2511L6.33474 44.2707L6.35542 44.2892L7.02222 43.544ZM6.17422 48.512C6.17422 48.4567 6.18498 48.3844 6.21816 48.3076C6.25127 48.2309 6.29598 48.1745 6.33447 48.138L7.70996 49.59C8.00914 49.3065 8.17422 48.9273 8.17422 48.512H6.17422ZM6.35542 48.1188C6.38741 48.0901 6.43506 48.0574 6.49782 48.0332C6.56089 48.0088 6.62111 48 6.67022 48V50C7.05491 50 7.40833 49.8604 7.68901 49.6092L6.35542 48.1188ZM6.67022 48C6.6968 48 6.75179 48.0041 6.82162 48.0305C6.89433 48.058 6.96225 48.1018 7.01733 48.1569L5.60311 49.5711C5.91223 49.8802 6.30284 50 6.67022 50V48ZM7.03723 48.1774C7.07651 48.219 7.1146 48.2752 7.14102 48.3436C7.1671 48.4111 7.17422 48.4707 7.17422 48.512H5.17422C5.17422 48.8919 5.30776 49.259 5.58321 49.5506L7.03723 48.1774ZM7.17422 48.512V43.888H5.17422V48.512H7.17422ZM7.17422 43.888C7.17422 43.9359 7.16546 44.0058 7.13266 44.0841C7.09941 44.1636 7.05196 44.2265 7.00484 44.271L5.63159 42.817C5.32458 43.1069 5.17422 43.4897 5.17422 43.888H7.17422ZM7.02533 44.2511C6.97884 44.2976 6.91774 44.3394 6.84662 44.3672C6.77736 44.3943 6.7197 44.4 6.68622 44.4V42.4C6.30079 42.4 5.91428 42.5337 5.61111 42.8369L7.02533 44.2511ZM6.68622 44.4C6.62175 44.4 6.54702 44.3872 6.4723 44.3551C6.39874 44.3236 6.34682 44.2828 6.31511 44.2511L7.72933 42.8369C7.45841 42.566 7.09677 42.4 6.68622 42.4V44.4ZM6.35542 44.2892C6.30924 44.2479 6.25838 44.1856 6.22153 44.1022C6.1849 44.0193 6.17422 43.943 6.17422 43.888H8.17422C8.17422 43.4713 8.00712 43.0834 7.68901 42.7988L6.35542 44.2892ZM6.17422 43.888V48.512H8.17422V43.888H6.17422ZM11.8093 48.2L11.1022 48.9071L11.123 48.9279L11.145 48.9474L11.8093 48.2ZM11.8093 48.872L12.4947 49.6002L12.496 49.599L11.8093 48.872ZM8.51334 48.864L7.78633 49.5506L7.80595 49.5714L7.82672 49.591L8.51334 48.864ZM8.52134 43.544L9.20797 44.271L9.21835 44.2612L9.22845 44.2511L8.52134 43.544ZM9.22534 43.544L8.51824 44.2511L8.53786 44.2707L8.55855 44.2892L9.22534 43.544ZM9.37734 48.2L8.7659 48.9913L10.3773 50.2365V48.2H9.37734ZM9.20134 48.064V47.064H6.27176L8.5899 48.8553L9.20134 48.064ZM11.4653 49.064C11.4244 49.064 11.3611 49.057 11.2877 49.028C11.2127 48.9983 11.1497 48.9545 11.1022 48.9071L12.5165 47.4929C12.222 47.1985 11.8454 47.064 11.4653 47.064V49.064ZM11.145 48.9474C11.0892 48.8978 11.0352 48.8283 10.9982 48.7419C10.962 48.6574 10.9533 48.5835 10.9533 48.536H12.9533C12.9533 48.1373 12.8016 47.7441 12.4737 47.4526L11.145 48.9474ZM10.9533 48.536C10.9533 48.4801 10.964 48.4059 10.9982 48.3261C11.0325 48.2461 11.0797 48.1857 11.1227 48.145L12.496 49.599C12.7942 49.3174 12.9533 48.9414 12.9533 48.536H10.9533ZM11.124 48.1438C11.174 48.0967 11.2367 48.0568 11.3066 48.0308C11.3747 48.0054 11.4313 48 11.4653 48V50C11.8273 50 12.1969 49.8805 12.4947 49.6002L11.124 48.1438ZM11.4653 48H8.86534V50H11.4653V48ZM8.86534 48C8.90664 48 8.96623 48.0071 9.03374 48.0332C9.10212 48.0596 9.15838 48.0977 9.19997 48.137L7.82672 49.591C8.11837 49.8665 8.48546 50 8.86534 50V48ZM9.24036 48.1774C9.27963 48.219 9.31772 48.2752 9.34414 48.3436C9.37022 48.4111 9.37734 48.4707 9.37734 48.512H7.37734C7.37734 48.8919 7.51089 49.259 7.78633 49.5506L9.24036 48.1774ZM9.37734 48.512V43.888H7.37734V48.512H9.37734ZM9.37734 43.888C9.37734 43.9359 9.36858 44.0058 9.33578 44.0841C9.30253 44.1636 9.25508 44.2265 9.20797 44.271L7.83472 42.817C7.52771 43.1069 7.37734 43.4897 7.37734 43.888H9.37734ZM9.22845 44.2511C9.18197 44.2976 9.12086 44.3394 9.04974 44.3672C8.98049 44.3943 8.92283 44.4 8.88934 44.4V42.4C8.50392 42.4 8.11741 42.5337 7.81424 42.8369L9.22845 44.2511ZM8.88934 44.4C8.82488 44.4 8.75014 44.3872 8.67542 44.3551C8.60186 44.3236 8.54994 44.2828 8.51824 44.2511L9.93245 42.8369C9.66154 42.566 9.2999 42.4 8.88934 42.4V44.4ZM8.55855 44.2892C8.51237 44.2479 8.4615 44.1856 8.42466 44.1022C8.38802 44.0193 8.37734 43.943 8.37734 43.888H10.3773C10.3773 43.4713 10.2102 43.0834 9.89214 42.7988L8.55855 44.2892ZM8.37734 43.888V48.2H10.3773V43.888H8.37734ZM9.98879 47.4087L9.81279 47.2727L8.5899 48.8553L8.7659 48.9913L9.98879 47.4087ZM9.20134 49.064H11.4653V47.064H9.20134V49.064ZM16.3015 48.2L15.5944 48.9071L15.6152 48.9279L15.6372 48.9474L16.3015 48.2ZM16.3015 48.872L16.9869 49.6002L16.9882 49.599L16.3015 48.872ZM13.0055 48.864L12.2785 49.5506L12.2981 49.5714L12.3189 49.591L13.0055 48.864ZM13.0135 43.544L13.7002 44.271L13.7105 44.2612L13.7206 44.2511L13.0135 43.544ZM13.7175 43.544L13.0104 44.2511L13.0301 44.2707L13.0507 44.2892L13.7175 43.544ZM13.8695 48.2L13.2581 48.9913L14.8695 50.2365V48.2H13.8695ZM13.6935 48.064V47.064H10.764L13.0821 48.8553L13.6935 48.064ZM15.9575 49.064C15.9166 49.064 15.8533 49.057 15.7799 49.028C15.7049 48.9983 15.6419 48.9545 15.5944 48.9071L17.0086 47.4929C16.7142 47.1985 16.3376 47.064 15.9575 47.064V49.064ZM15.6372 48.9474C15.5814 48.8978 15.5274 48.8283 15.4904 48.7419C15.4542 48.6574 15.4455 48.5835 15.4455 48.536H17.4455C17.4455 48.1373 17.2938 47.7441 16.9659 47.4526L15.6372 48.9474ZM15.4455 48.536C15.4455 48.4801 15.4562 48.4059 15.4904 48.3261C15.5247 48.2461 15.5718 48.1857 15.6149 48.145L16.9882 49.599C17.2864 49.3174 17.4455 48.9414 17.4455 48.536H15.4455ZM15.6162 48.1438C15.6662 48.0967 15.7289 48.0568 15.7988 48.0308C15.8669 48.0054 15.9235 48 15.9575 48V50C16.3195 50 16.6891 49.8805 16.9869 49.6002L15.6162 48.1438ZM15.9575 48H13.3575V50H15.9575V48ZM13.3575 48C13.3988 48 13.4584 48.0071 13.5259 48.0332C13.5943 48.0596 13.6506 48.0977 13.6922 48.137L12.3189 49.591C12.6106 49.8665 12.9777 50 13.3575 50V48ZM13.7325 48.1774C13.7718 48.219 13.8099 48.2752 13.8363 48.3436C13.8624 48.4111 13.8695 48.4707 13.8695 48.512H11.8695C11.8695 48.8919 12.0031 49.259 12.2785 49.5506L13.7325 48.1774ZM13.8695 48.512V43.888H11.8695V48.512H13.8695ZM13.8695 43.888C13.8695 43.9359 13.8608 44.0058 13.828 44.0841C13.7947 44.1636 13.7473 44.2265 13.7002 44.271L12.3269 42.817C12.0199 43.1069 11.8695 43.4897 11.8695 43.888H13.8695ZM13.7206 44.2511C13.6742 44.2976 13.613 44.3394 13.5419 44.3672C13.4727 44.3943 13.415 44.4 13.3815 44.4V42.4C12.9961 42.4 12.6096 42.5337 12.3064 42.8369L13.7206 44.2511ZM13.3815 44.4C13.3171 44.4 13.2423 44.3872 13.1676 44.3551C13.0941 44.3236 13.0421 44.2828 13.0104 44.2511L14.4246 42.8369C14.1537 42.566 13.7921 42.4 13.3815 42.4V44.4ZM13.0507 44.2892C13.0046 44.2479 12.9537 44.1856 12.9168 44.1022C12.8802 44.0193 12.8695 43.943 12.8695 43.888H14.8695C14.8695 43.4713 14.7024 43.0834 14.3843 42.7988L13.0507 44.2892ZM12.8695 43.888V48.2H14.8695V43.888H12.8695ZM14.481 47.4087L14.305 47.2727L13.0821 48.8553L13.2581 48.9913L14.481 47.4087ZM13.6935 49.064H15.9575V47.064H13.6935V49.064ZM20.8737 43.536L20.1666 44.2431L20.1874 44.2639L20.2094 44.2834L20.8737 43.536ZM20.8737 44.2L21.5353 44.9498L21.5381 44.9474L20.8737 44.2ZM18.2897 44.32L17.4059 43.8521L16.6288 45.32H18.2897V44.32ZM18.3617 44.184H19.3617L17.4779 43.7161L18.3617 44.184ZM18.3617 45.744L17.6546 46.4511L19.3617 48.1582V45.744H18.3617ZM18.2977 45.68V44.68H15.8835L17.5906 46.3871L18.2977 45.68ZM20.5137 45.816L19.8066 46.5231L19.8274 46.5439L19.8494 46.5634L20.5137 45.816ZM20.5137 46.48L21.1753 47.2298L21.1781 47.2274L20.5137 46.48ZM18.3217 46.6L17.4737 46.07L16.5175 47.6H18.3217V46.6ZM18.3617 46.536H19.3617V43.0492L17.5137 46.006L18.3617 46.536ZM18.3617 48.152L17.6143 48.8164L19.3617 50.7822V48.152H18.3617ZM18.2977 48.08V47.08H16.0709L17.5503 48.7444L18.2977 48.08ZM20.8737 48.224L20.1467 48.9106L20.1663 48.9314L20.1871 48.951L20.8737 48.224ZM20.8737 48.872L20.2094 48.1246L20.1987 48.134L20.1884 48.1438L20.8737 48.872ZM17.4977 48.864L16.7707 49.5506L16.7903 49.5714L16.8111 49.591L17.4977 48.864ZM17.4977 43.544L16.7906 42.8369L16.7906 42.8369L17.4977 43.544ZM17.8497 44.4H20.5297V42.4H17.8497V44.4ZM20.5297 44.4C20.4888 44.4 20.4255 44.393 20.3521 44.364C20.2771 44.3343 20.2141 44.2905 20.1666 44.2431L21.5808 42.8289C21.2864 42.5345 20.9098 42.4 20.5297 42.4V44.4ZM20.2094 44.2834C20.1536 44.2338 20.0996 44.1643 20.0626 44.0779C20.0264 43.9934 20.0177 43.9195 20.0177 43.872H22.0177C22.0177 43.4733 21.866 43.0801 21.5381 42.7886L20.2094 44.2834ZM20.0177 43.872C20.0177 43.8165 20.0283 43.7381 20.0661 43.652C20.1043 43.565 20.158 43.4983 20.2094 43.4526L21.5381 44.9474C21.8566 44.6642 22.0177 44.2786 22.0177 43.872H20.0177ZM20.2121 43.4502C20.2643 43.4041 20.3259 43.3683 20.3903 43.3458C20.4527 43.324 20.5026 43.32 20.5297 43.32V45.32C20.8739 45.32 21.2353 45.2146 21.5353 44.9498L20.2121 43.4502ZM20.5297 43.32H18.2897V45.32H20.5297V43.32ZM19.1735 44.7879L19.2455 44.6519L17.4779 43.7161L17.4059 43.8521L19.1735 44.7879ZM17.3617 44.184V45.744H19.3617V44.184H17.3617ZM19.0688 45.0369L19.0048 44.9729L17.5906 46.3871L17.6546 46.4511L19.0688 45.0369ZM18.2977 46.68H20.1697V44.68H18.2977V46.68ZM20.1697 46.68C20.1288 46.68 20.0655 46.673 19.9921 46.644C19.9171 46.6143 19.8541 46.5705 19.8066 46.5231L21.2208 45.1089C20.9264 44.8145 20.5498 44.68 20.1697 44.68V46.68ZM19.8494 46.5634C19.7936 46.5138 19.7396 46.4443 19.7026 46.3579C19.6664 46.2734 19.6577 46.1995 19.6577 46.152H21.6577C21.6577 45.7533 21.506 45.3601 21.1781 45.0686L19.8494 46.5634ZM19.6577 46.152C19.6577 46.0965 19.6683 46.0181 19.7061 45.932C19.7443 45.845 19.798 45.7783 19.8494 45.7326L21.1781 47.2274C21.4966 46.9442 21.6577 46.5586 21.6577 46.152H19.6577ZM19.8521 45.7302C19.9043 45.6841 19.9659 45.6483 20.0303 45.6258C20.0927 45.604 20.1426 45.6 20.1697 45.6V47.6C20.5139 47.6 20.8753 47.4946 21.1753 47.2298L19.8521 45.7302ZM20.1697 45.6H18.3217V47.6H20.1697V45.6ZM19.1697 47.13L19.2097 47.066L17.5137 46.006L17.4737 46.07L19.1697 47.13ZM17.3617 46.536V48.152H19.3617V46.536H17.3617ZM19.1091 47.4876L19.0451 47.4156L17.5503 48.7444L17.6143 48.8164L19.1091 47.4876ZM18.2977 49.08H20.5297V47.08H18.2977V49.08ZM20.5297 49.08C20.4818 49.08 20.4119 49.0712 20.3336 49.0384C20.2541 49.0052 20.1912 48.9577 20.1467 48.9106L21.6007 47.5374C21.3108 47.2304 20.928 47.08 20.5297 47.08V49.08ZM20.1871 48.951C20.1522 48.9181 20.106 48.8627 20.0698 48.7824C20.0329 48.7004 20.0177 48.6171 20.0177 48.544H22.0177C22.0177 48.1236 21.8393 47.7604 21.5603 47.497L20.1871 48.951ZM20.0177 48.544C20.0177 48.4885 20.0283 48.4101 20.0661 48.324C20.1043 48.237 20.158 48.1703 20.2094 48.1246L21.5381 49.6194C21.8566 49.3362 22.0177 48.9506 22.0177 48.544H20.0177ZM20.1884 48.1438C20.2384 48.0967 20.301 48.0568 20.371 48.0308C20.4391 48.0054 20.4957 48 20.5297 48V50C20.8917 50 21.2612 49.8805 21.5591 49.6002L20.1884 48.1438ZM20.5297 48H17.8497V50H20.5297V48ZM17.8497 48C17.891 48 17.9506 48.0071 18.0181 48.0332C18.0865 48.0596 18.1428 48.0977 18.1843 48.137L16.8111 49.591C17.1027 49.8665 17.4698 50 17.8497 50V48ZM18.2247 48.1774C18.264 48.219 18.3021 48.2752 18.3285 48.3436C18.3546 48.4111 18.3617 48.4707 18.3617 48.512H16.3617C16.3617 48.8919 16.4953 49.259 16.7707 49.5506L18.2247 48.1774ZM18.3617 48.512V43.888H16.3617V48.512H18.3617ZM18.3617 43.888C18.3617 43.9289 18.3547 43.9923 18.3257 44.0657C18.296 44.1406 18.2523 44.2037 18.2048 44.2511L16.7906 42.8369C16.4962 43.1313 16.3617 43.508 16.3617 43.888H18.3617ZM18.2048 44.2511C18.1657 44.2903 18.1091 44.3318 18.0364 44.3615C17.964 44.3911 17.898 44.4 17.8497 44.4V42.4C17.4522 42.4 17.0786 42.5489 16.7906 42.8369L18.2048 44.2511ZM23.4678 48.864L22.7607 49.5711L22.7708 49.5812L22.7812 49.591L23.4678 48.864ZM23.3238 43.872V42.872H22.3238V43.872H23.3238ZM24.3638 43.872H25.3638V42.872H24.3638V43.872ZM24.2118 48.864L24.8985 49.591L24.8996 49.59L24.2118 48.864ZM21.7158 44.192L21.0305 44.9202L21.0408 44.93L21.0515 44.9394L21.7158 44.192ZM21.7158 43.528L22.3775 44.2778L22.3802 44.2754L21.7158 43.528ZM25.9638 43.528L25.2785 44.2562L25.2888 44.266L25.2995 44.2754L25.9638 43.528ZM25.9638 44.2L26.6255 44.9498L26.6282 44.9474L25.9638 44.2ZM23.8358 48C23.8629 48 23.9143 48.0043 23.9785 48.028C24.0448 48.0525 24.1055 48.0907 24.1545 48.137L22.7812 49.591C23.0875 49.8803 23.4673 50 23.8358 50V48ZM24.175 48.1569C24.2141 48.1961 24.2556 48.2526 24.2854 48.3254C24.315 48.3977 24.3238 48.4637 24.3238 48.512H22.3238C22.3238 48.9095 22.4728 49.2831 22.7607 49.5711L24.175 48.1569ZM24.3238 48.512V43.872H22.3238V48.512H24.3238ZM23.3238 44.872H24.3638V42.872H23.3238V44.872ZM23.3638 43.872V48.512H25.3638V43.872H23.3638ZM23.3638 48.512C23.3638 48.4567 23.3746 48.3844 23.4078 48.3076C23.4409 48.2309 23.4856 48.1745 23.5241 48.138L24.8996 49.59C25.1988 49.3065 25.3638 48.9273 25.3638 48.512H23.3638ZM23.5252 48.137C23.5778 48.0873 23.6407 48.0491 23.7057 48.0256C23.7681 48.0031 23.8155 48 23.8358 48V50C24.1991 50 24.5854 49.8867 24.8985 49.591L23.5252 48.137ZM22.0678 43.32C22.1022 43.32 22.1553 43.3255 22.2176 43.3482C22.2811 43.3713 22.3366 43.4058 22.3802 43.4446L21.0515 44.9394C21.3457 45.201 21.7054 45.32 22.0678 45.32V43.32ZM22.4012 43.4638C22.4576 43.5169 22.5077 43.587 22.5408 43.6688C22.573 43.7483 22.5798 43.8155 22.5798 43.856H20.5798C20.5798 44.2357 20.7151 44.6234 21.0305 44.9202L22.4012 43.4638ZM22.5798 43.856C22.5798 43.8959 22.5731 43.9673 22.5376 44.053C22.5007 44.1421 22.4437 44.2194 22.3775 44.2778L21.0542 42.7782C20.7157 43.0768 20.5798 43.4771 20.5798 43.856H22.5798ZM22.3802 44.2754C22.3366 44.3142 22.2811 44.3487 22.2176 44.3718C22.1553 44.3945 22.1022 44.4 22.0678 44.4V42.4C21.7054 42.4 21.3457 42.519 21.0515 42.7806L22.3802 44.2754ZM22.0678 44.4H25.6198V42.4H22.0678V44.4ZM25.6198 44.4C25.5858 44.4 25.5292 44.3946 25.4611 44.3692C25.3912 44.3432 25.3285 44.3033 25.2785 44.2562L26.6492 42.7998C26.3514 42.5195 25.9818 42.4 25.6198 42.4V44.4ZM25.2995 44.2754C25.2437 44.2258 25.1897 44.1563 25.1527 44.0699C25.1165 43.9854 25.1078 43.9115 25.1078 43.864H27.1078C27.1078 43.4653 26.9561 43.0721 26.6282 42.7806L25.2995 44.2754ZM25.1078 43.864C25.1078 43.8165 25.1165 43.7426 25.1527 43.6581C25.1897 43.5717 25.2437 43.5022 25.2995 43.4526L26.6282 44.9474C26.9561 44.6559 27.1078 44.2627 27.1078 43.864H25.1078ZM25.3022 43.4502C25.3544 43.4041 25.4161 43.3683 25.4805 43.3458C25.5429 43.324 25.5927 43.32 25.6198 43.32V45.32C25.9641 45.32 26.3254 45.2146 26.6255 44.9498L25.3022 43.4502ZM25.6198 43.32H22.0678V45.32H25.6198V43.32ZM28.7178 48.864L28.0107 49.5711L28.0208 49.5812L28.0312 49.591L28.7178 48.864ZM28.5738 43.872V42.872H27.5738V43.872H28.5738ZM29.6138 43.872H30.6138V42.872H29.6138V43.872ZM29.4618 48.864L30.1485 49.591L30.1496 49.59L29.4618 48.864ZM26.9658 44.192L26.2805 44.9202L26.2908 44.93L26.3015 44.9394L26.9658 44.192ZM26.9658 43.528L27.6275 44.2778L27.6302 44.2754L26.9658 43.528ZM31.2138 43.528L30.5285 44.2562L30.5388 44.266L30.5495 44.2754L31.2138 43.528ZM31.2138 44.2L31.8755 44.9498L31.8782 44.9474L31.2138 44.2ZM29.0858 48C29.1129 48 29.1643 48.0043 29.2285 48.028C29.2948 48.0525 29.3555 48.0907 29.4045 48.137L28.0312 49.591C28.3375 49.8803 28.7173 50 29.0858 50V48ZM29.425 48.1569C29.4641 48.1961 29.5056 48.2526 29.5354 48.3254C29.565 48.3977 29.5738 48.4637 29.5738 48.512H27.5738C27.5738 48.9095 27.7228 49.2831 28.0107 49.5711L29.425 48.1569ZM29.5738 48.512V43.872H27.5738V48.512H29.5738ZM28.5738 44.872H29.6138V42.872H28.5738V44.872ZM28.6138 43.872V48.512H30.6138V43.872H28.6138ZM28.6138 48.512C28.6138 48.4567 28.6246 48.3844 28.6578 48.3076C28.6909 48.2309 28.7356 48.1745 28.7741 48.138L30.1496 49.59C30.4488 49.3065 30.6138 48.9273 30.6138 48.512H28.6138ZM28.7752 48.137C28.8278 48.0873 28.8907 48.0491 28.9557 48.0256C29.0181 48.0031 29.0655 48 29.0858 48V50C29.4491 50 29.8354 49.8867 30.1485 49.591L28.7752 48.137ZM27.3178 43.32C27.3522 43.32 27.4053 43.3255 27.4676 43.3482C27.5311 43.3713 27.5866 43.4058 27.6302 43.4446L26.3015 44.9394C26.5957 45.201 26.9554 45.32 27.3178 45.32V43.32ZM27.6512 43.4638C27.7076 43.5169 27.7577 43.587 27.7908 43.6688C27.823 43.7483 27.8298 43.8155 27.8298 43.856H25.8298C25.8298 44.2357 25.9651 44.6234 26.2805 44.9202L27.6512 43.4638ZM27.8298 43.856C27.8298 43.8959 27.8231 43.9673 27.7876 44.053C27.7507 44.1421 27.6937 44.2194 27.6275 44.2778L26.3042 42.7782C25.9657 43.0768 25.8298 43.4771 25.8298 43.856H27.8298ZM27.6302 44.2754C27.5866 44.3142 27.5311 44.3487 27.4676 44.3718C27.4053 44.3945 27.3522 44.4 27.3178 44.4V42.4C26.9554 42.4 26.5957 42.519 26.3015 42.7806L27.6302 44.2754ZM27.3178 44.4H30.8698V42.4H27.3178V44.4ZM30.8698 44.4C30.8358 44.4 30.7792 44.3946 30.7111 44.3692C30.6412 44.3432 30.5785 44.3033 30.5285 44.2562L31.8992 42.7998C31.6014 42.5195 31.2318 42.4 30.8698 42.4V44.4ZM30.5495 44.2754C30.4937 44.2258 30.4397 44.1563 30.4027 44.0699C30.3665 43.9854 30.3578 43.9115 30.3578 43.864H32.3578C32.3578 43.4653 32.2061 43.0721 31.8782 42.7806L30.5495 44.2754ZM30.3578 43.864C30.3578 43.8165 30.3665 43.7426 30.4027 43.6581C30.4397 43.5717 30.4937 43.5022 30.5495 43.4526L31.8782 44.9474C32.2061 44.6559 32.3578 44.2627 32.3578 43.864H30.3578ZM30.5522 43.4502C30.6044 43.4041 30.6661 43.3683 30.7305 43.3458C30.7929 43.324 30.8427 43.32 30.8698 43.32V45.32C31.2141 45.32 31.5754 45.2146 31.8755 44.9498L30.5522 43.4502ZM30.8698 43.32H27.3178V45.32H30.8698V43.32ZM35.7097 43.536L35.0025 44.2431L35.0233 44.2639L35.0453 44.2834L35.7097 43.536ZM35.7097 44.2L36.3713 44.9498L36.374 44.9474L35.7097 44.2ZM33.1257 44.32L32.2419 43.8521L31.4648 45.32H33.1257V44.32ZM33.1977 44.184H34.1977L32.3139 43.7161L33.1977 44.184ZM33.1977 45.744L32.4905 46.4511L34.1977 48.1582V45.744H33.1977ZM33.1337 45.68V44.68H30.7194L32.4265 46.3871L33.1337 45.68ZM35.3497 45.816L34.6425 46.5231L34.6633 46.5439L34.6853 46.5634L35.3497 45.816ZM35.3497 46.48L36.0113 47.2298L36.014 47.2274L35.3497 46.48ZM33.1577 46.6L32.3097 46.07L31.3534 47.6H33.1577V46.6ZM33.1977 46.536H34.1977V43.0492L32.3497 46.006L33.1977 46.536ZM33.1977 48.152L32.4502 48.8164L34.1977 50.7822V48.152H33.1977ZM33.1337 48.08V47.08H30.9068L32.3862 48.7444L33.1337 48.08ZM35.7097 48.224L34.9826 48.9106L35.0023 48.9314L35.023 48.951L35.7097 48.224ZM35.7097 48.872L35.0453 48.1246L35.0347 48.134L35.0243 48.1438L35.7097 48.872ZM32.3337 48.864L31.6066 49.5506L31.6263 49.5714L31.647 49.591L32.3337 48.864ZM32.3337 43.544L31.6265 42.8369L31.6265 42.8369L32.3337 43.544ZM32.6857 44.4H35.3657V42.4H32.6857V44.4ZM35.3657 44.4C35.3247 44.4 35.2614 44.393 35.188 44.364C35.113 44.3343 35.05 44.2905 35.0025 44.2431L36.4168 42.8289C36.1223 42.5345 35.7457 42.4 35.3657 42.4V44.4ZM35.0453 44.2834C34.9895 44.2338 34.9355 44.1643 34.8985 44.0779C34.8623 43.9934 34.8537 43.9195 34.8537 43.872H36.8537C36.8537 43.4733 36.7019 43.0801 36.374 42.7886L35.0453 44.2834ZM34.8537 43.872C34.8537 43.8165 34.8642 43.7381 34.902 43.652C34.9402 43.565 34.9939 43.4983 35.0453 43.4526L36.374 44.9474C36.6926 44.6642 36.8537 44.2786 36.8537 43.872H34.8537ZM35.048 43.4502C35.1003 43.4041 35.1619 43.3683 35.2263 43.3458C35.2887 43.324 35.3385 43.32 35.3657 43.32V45.32C35.7099 45.32 36.0712 45.2146 36.3713 44.9498L35.048 43.4502ZM35.3657 43.32H33.1257V45.32H35.3657V43.32ZM34.0094 44.7879L34.0814 44.6519L32.3139 43.7161L32.2419 43.8521L34.0094 44.7879ZM32.1977 44.184V45.744H34.1977V44.184H32.1977ZM33.9048 45.0369L33.8408 44.9729L32.4265 46.3871L32.4905 46.4511L33.9048 45.0369ZM33.1337 46.68H35.0057V44.68H33.1337V46.68ZM35.0057 46.68C34.9647 46.68 34.9014 46.673 34.828 46.644C34.753 46.6143 34.69 46.5705 34.6425 46.5231L36.0568 45.1089C35.7623 44.8145 35.3857 44.68 35.0057 44.68V46.68ZM34.6853 46.5634C34.6295 46.5138 34.5755 46.4443 34.5385 46.3579C34.5023 46.2734 34.4937 46.1995 34.4937 46.152H36.4937C36.4937 45.7533 36.3419 45.3601 36.014 45.0686L34.6853 46.5634ZM34.4937 46.152C34.4937 46.0965 34.5042 46.0181 34.542 45.932C34.5802 45.845 34.6339 45.7783 34.6853 45.7326L36.014 47.2274C36.3326 46.9442 36.4937 46.5586 36.4937 46.152H34.4937ZM34.688 45.7302C34.7403 45.6841 34.8019 45.6483 34.8663 45.6258C34.9287 45.604 34.9785 45.6 35.0057 45.6V47.6C35.3499 47.6 35.7112 47.4946 36.0113 47.2298L34.688 45.7302ZM35.0057 45.6H33.1577V47.6H35.0057V45.6ZM34.0057 47.13L34.0457 47.066L32.3497 46.006L32.3097 46.07L34.0057 47.13ZM32.1977 46.536V48.152H34.1977V46.536H32.1977ZM33.9451 47.4876L33.8811 47.4156L32.3862 48.7444L32.4502 48.8164L33.9451 47.4876ZM33.1337 49.08H35.3657V47.08H33.1337V49.08ZM35.3657 49.08C35.3177 49.08 35.2479 49.0712 35.1695 49.0384C35.0901 49.0052 35.0271 48.9577 34.9826 48.9106L36.4367 47.5374C36.1467 47.2304 35.764 47.08 35.3657 47.08V49.08ZM35.023 48.951C34.9882 48.9181 34.9419 48.8627 34.9057 48.7824C34.8689 48.7004 34.8537 48.6171 34.8537 48.544H36.8537C36.8537 48.1236 36.6752 47.7604 36.3963 47.497L35.023 48.951ZM34.8537 48.544C34.8537 48.4885 34.8642 48.4101 34.902 48.324C34.9402 48.237 34.9939 48.1703 35.0453 48.1246L36.374 49.6194C36.6926 49.3362 36.8537 48.9506 36.8537 48.544H34.8537ZM35.0243 48.1438C35.0743 48.0967 35.137 48.0568 35.2069 48.0308C35.275 48.0054 35.3317 48 35.3657 48V50C35.7276 50 36.0972 49.8805 36.395 49.6002L35.0243 48.1438ZM35.3657 48H32.6857V50H35.3657V48ZM32.6857 48C32.727 48 32.7865 48.0071 32.8541 48.0332C32.9224 48.0596 32.9787 48.0977 33.0203 48.137L31.647 49.591C31.9387 49.8665 32.3058 50 32.6857 50V48ZM33.0607 48.1774C33.0999 48.219 33.138 48.2752 33.1645 48.3436C33.1905 48.4111 33.1977 48.4707 33.1977 48.512H31.1977C31.1977 48.8919 31.3312 49.259 31.6066 49.5506L33.0607 48.1774ZM33.1977 48.512V43.888H31.1977V48.512H33.1977ZM33.1977 43.888C33.1977 43.9289 33.1906 43.9923 33.1616 44.0657C33.132 44.1406 33.0882 44.2037 33.0408 44.2511L31.6265 42.8369C31.3321 43.1313 31.1977 43.508 31.1977 43.888H33.1977ZM33.0408 44.2511C33.0016 44.2903 32.9451 44.3318 32.8723 44.3615C32.7999 44.3911 32.7339 44.4 32.6857 44.4V42.4C32.2881 42.4 31.9145 42.5489 31.6265 42.8369L33.0408 44.2511ZM36.9518 48.864L36.3185 49.638L36.3293 49.6468L36.3403 49.6553L36.9518 48.864ZM36.9118 43.544L36.2047 42.8369L36.2047 42.8369L36.9118 43.544ZM40.3438 43.624L39.8155 44.4731L39.8264 44.4799L39.8376 44.4864L40.3438 43.624ZM40.9358 44.232L40.0675 44.7282L40.072 44.7359L40.9358 44.232ZM41.0318 45.712L40.118 45.3059L40.1132 45.3166L40.1087 45.3274L41.0318 45.712ZM40.6958 46.232L39.9639 45.5506L39.9575 45.5575L39.9512 45.5645L40.6958 46.232ZM40.2238 46.592L39.2247 46.5486L39.1519 48.223L40.6601 47.4918L40.2238 46.592ZM40.2318 46.408L40.704 45.5265L39.3018 44.7754L39.2327 46.3646L40.2318 46.408ZM40.5998 46.696L39.8405 47.3468L39.8572 47.3662L39.8748 47.3847L40.5998 46.696ZM40.8318 47.048L39.9087 47.4326L39.9186 47.4563L39.9296 47.4795L40.8318 47.048ZM40.9358 47.448L39.9385 47.5219L39.9416 47.5641L39.9483 47.606L40.9358 47.448ZM40.9758 47.8L39.9772 47.8526L39.9785 47.8787L39.9813 47.9047L40.9758 47.8ZM41.0238 48.056L40.068 48.3501L40.0781 48.3829L40.0904 48.415L41.0238 48.056ZM41.1678 48.216L41.6765 47.3551L41.6594 47.345L41.6419 47.3355L41.1678 48.216ZM41.3838 48.52L40.4032 48.7161L40.4079 48.7394L40.4136 48.7625L41.3838 48.52ZM41.2958 48.864L40.5505 48.1972L40.5413 48.2075L40.5324 48.2181L41.2958 48.864ZM41.0718 49L41.2456 49.9848L41.2734 49.9799L41.3008 49.9734L41.0718 49ZM40.7998 49L40.5707 49.9734L40.5982 49.9799L40.626 49.9848L40.7998 49ZM40.5758 48.92L40.0688 49.7819L40.0827 49.7901L40.0969 49.7979L40.5758 48.92ZM40.3038 48.688L39.5418 49.3356L39.5501 49.3453L39.5585 49.3548L40.3038 48.688ZM40.0798 48.264L39.1228 48.554L39.1267 48.5672L39.1311 48.5802L40.0798 48.264ZM39.9518 47.336L39.0233 47.7074L39.0278 47.7187L39.0326 47.7299L39.9518 47.336ZM39.8158 47.136L39.1087 47.8431L39.1255 47.8599L39.1431 47.8759L39.8158 47.136ZM39.5918 47.008L39.259 47.951L39.2841 47.9599L39.3096 47.9674L39.5918 47.008ZM37.6558 46.96L36.8182 46.4137L35.8097 47.96H37.6558V46.96ZM37.7758 46.776H38.7758V43.4121L36.9382 46.2297L37.7758 46.776ZM37.6638 48.864L38.4357 49.4997L38.4446 49.4889L38.4531 49.4779L37.6638 48.864ZM37.6638 46.136V45.136H35.9227L36.8 46.6399L37.6638 46.136ZM39.8078 46.008L40.4931 46.7362L40.5042 46.7258L40.5149 46.7151L39.8078 46.008ZM40.0318 45.648L40.9626 46.0137L40.9668 46.0027L40.0318 45.648ZM39.9278 44.56L39.1342 45.1684L39.1455 45.1832L39.1574 45.1976L39.9278 44.56ZM37.6798 44.32L36.7435 43.9689L36.2368 45.32H37.6798V44.32ZM37.7758 44.064H38.7758L36.8395 43.7129L37.7758 44.064ZM37.7758 46.328L36.912 46.8319L38.7758 50.0269V46.328H37.7758ZM37.3518 48C37.38 48 37.4186 48.0046 37.4617 48.0192C37.5049 48.0339 37.5393 48.0542 37.5632 48.0727L36.3403 49.6553C36.6341 49.8823 36.9829 50 37.3518 50V48ZM37.585 48.09C37.6186 48.1175 37.6714 48.1712 37.7142 48.2568C37.7583 48.3449 37.7758 48.4352 37.7758 48.512H35.7758C35.7758 48.9811 35.9937 49.3722 36.3185 49.638L37.585 48.09ZM37.7758 48.512V43.888H35.7758V48.512H37.7758ZM37.7758 43.888C37.7758 43.9289 37.7688 43.9923 37.7397 44.0657C37.7101 44.1406 37.6663 44.2037 37.6189 44.2511L36.2047 42.8369C35.9103 43.1313 35.7758 43.508 35.7758 43.888H37.7758ZM37.6189 44.2511C37.5797 44.2903 37.5232 44.3318 37.4504 44.3615C37.3781 44.3911 37.3121 44.4 37.2638 44.4V42.4C36.8663 42.4 36.4927 42.5489 36.2047 42.8369L37.6189 44.2511ZM37.2638 44.4H39.5678V42.4H37.2638V44.4ZM39.5678 44.4C39.6546 44.4 39.7308 44.4204 39.8155 44.4731L40.8721 42.7749C40.4767 42.529 40.0356 42.4 39.5678 42.4V44.4ZM39.8376 44.4864C39.9235 44.5368 39.9996 44.6093 40.0675 44.7281L41.804 43.7359C41.5733 43.3321 41.2547 42.9992 40.85 42.7616L39.8376 44.4864ZM40.072 44.7359C40.1207 44.8194 40.1598 44.9369 40.1598 45.12H42.1598C42.1598 44.6311 42.0495 44.1566 41.7996 43.7281L40.072 44.7359ZM40.1598 45.12C40.1598 45.1776 40.1486 45.2369 40.118 45.3059L41.9456 46.1181C42.0856 45.8031 42.1598 45.4678 42.1598 45.12H40.1598ZM40.1087 45.3274C40.0751 45.4081 40.0284 45.4813 39.9639 45.5506L41.4277 46.9134C41.6512 46.6734 41.8285 46.3999 41.9549 46.0966L40.1087 45.3274ZM39.9512 45.5645C39.8938 45.6285 39.8395 45.667 39.7875 45.6922L40.6601 47.4918C40.9601 47.3464 41.2204 47.1448 41.4404 46.8995L39.9512 45.5645ZM41.2228 46.6354L41.2308 46.4514L39.2327 46.3646L39.2247 46.5486L41.2228 46.6354ZM39.7596 47.2895C39.8158 47.3196 39.8361 47.3417 39.8405 47.3468L41.359 46.0452C41.1714 45.8263 40.9465 45.6564 40.704 45.5265L39.7596 47.2895ZM39.8748 47.3847C39.8973 47.4084 39.9051 47.424 39.9087 47.4326L41.7549 46.6634C41.6518 46.416 41.505 46.1969 41.3248 46.0073L39.8748 47.3847ZM39.9296 47.4795C39.9314 47.4831 39.9365 47.4942 39.9385 47.5219L41.933 47.3741C41.9138 47.1138 41.8495 46.8583 41.7339 46.6165L39.9296 47.4795ZM39.9483 47.606C39.9658 47.715 39.9742 47.7959 39.9772 47.8526L41.9744 47.7474C41.9667 47.6015 41.9484 47.4476 41.9232 47.29L39.9483 47.606ZM39.9813 47.9047C39.9962 48.0467 40.0218 48.1999 40.068 48.3501L41.9796 47.7619C41.9819 47.7695 41.981 47.7683 41.9787 47.7557C41.9764 47.7435 41.9733 47.7237 41.9703 47.6953L39.9813 47.9047ZM40.0904 48.415C40.2084 48.7216 40.4276 48.9532 40.6937 49.0965L41.6419 47.3355C41.6986 47.3661 41.763 47.4123 41.8231 47.479C41.8837 47.5464 41.9282 47.6217 41.9571 47.697L40.0904 48.415ZM40.6591 49.0769C40.6087 49.0472 40.5474 48.9975 40.4946 48.9232C40.4418 48.8488 40.4148 48.7743 40.4032 48.7161L42.3644 48.3239C42.2818 47.9112 42.0378 47.5685 41.6765 47.3551L40.6591 49.0769ZM40.4136 48.7625C40.3941 48.6843 40.386 48.5754 40.417 48.4542C40.4477 48.3342 40.5048 48.2483 40.5505 48.1972L42.041 49.5308C42.3447 49.1914 42.4692 48.7387 42.3539 48.2775L40.4136 48.7625ZM40.5324 48.2181C40.5699 48.1737 40.6183 48.1307 40.6768 48.0952C40.7351 48.0598 40.7926 48.0384 40.8427 48.0266L41.3008 49.9734C41.5944 49.9043 41.8583 49.7473 42.0592 49.5099L40.5324 48.2181ZM40.898 48.0152C40.9223 48.0109 40.9493 48.0109 40.9736 48.0152L40.626 49.9848C40.8316 50.0211 41.0399 50.0211 41.2456 49.9848L40.898 48.0152ZM41.0288 48.0266C41.0137 48.023 41.0089 48.0211 41.0121 48.0223C41.0151 48.0233 41.0307 48.029 41.0546 48.0421L40.0969 49.7979C40.2583 49.8859 40.4244 49.939 40.5707 49.9734L41.0288 48.0266ZM41.0828 48.0581C41.0937 48.0645 41.0955 48.0669 41.0887 48.0612C41.0819 48.0554 41.0685 48.043 41.049 48.0212L39.5585 49.3548C39.699 49.5118 39.8674 49.6635 40.0688 49.7819L41.0828 48.0581ZM41.0657 48.0404C41.0737 48.0497 41.072 48.05 41.064 48.0349C41.0559 48.0196 41.0432 47.9918 41.0285 47.9478L39.1311 48.5802C39.2178 48.8403 39.3461 49.1054 39.5418 49.3356L41.0657 48.0404ZM41.0368 47.974C41.0225 47.9268 40.9998 47.8076 40.9998 47.584H38.9998C38.9998 47.9151 39.0304 48.2492 39.1228 48.554L41.0368 47.974ZM40.9998 47.584C40.9998 47.3737 40.9621 47.1549 40.8709 46.9421L39.0326 47.7299C39.0054 47.6664 38.9998 47.613 38.9998 47.584H40.9998ZM40.8803 46.9646C40.797 46.7564 40.6687 46.5599 40.4885 46.3961L39.1431 47.8759C39.0802 47.8188 39.0426 47.7556 39.0233 47.7074L40.8803 46.9646ZM40.5229 46.4289C40.3303 46.2363 40.1025 46.1159 39.8739 46.0486L39.3096 47.9674C39.2624 47.9535 39.1839 47.9184 39.1087 47.8431L40.5229 46.4289ZM39.9246 46.065C39.7022 45.9865 39.478 45.96 39.2718 45.96V47.96C39.2901 47.96 39.2973 47.9612 39.2954 47.9609C39.2934 47.9606 39.2802 47.9585 39.259 47.951L39.9246 46.065ZM39.2718 45.96H37.6558V47.96H39.2718V45.96ZM38.4934 47.5063L38.6134 47.3223L36.9382 46.2297L36.8182 46.4137L38.4934 47.5063ZM36.7758 46.776V48.512H38.7758V46.776H36.7758ZM36.7758 48.512C36.7758 48.4912 36.7787 48.4517 36.7949 48.4008C36.8115 48.3485 36.8384 48.2964 36.8744 48.2501L38.4531 49.4779C38.6831 49.1822 38.7758 48.8403 38.7758 48.512H36.7758ZM36.8919 48.2283C36.9511 48.1564 37.0325 48.0919 37.1302 48.0493C37.2244 48.0083 37.3047 48 37.3518 48V50C37.7385 50 38.144 49.854 38.4357 49.4997L36.8919 48.2283ZM37.6638 47.136H39.5278V45.136H37.6638V47.136ZM39.5278 47.136C39.9472 47.136 40.2739 46.9425 40.4931 46.7362L39.1224 45.2798C39.1603 45.2441 39.3003 45.136 39.5278 45.136V47.136ZM40.5149 46.7151C40.7239 46.5061 40.8658 46.2598 40.9625 46.0137L39.101 45.2823C39.091 45.3079 39.084 45.3197 39.0827 45.3217C39.0817 45.3234 39.0868 45.3147 39.1007 45.3009L40.5149 46.7151ZM40.9668 46.0027C41.0724 45.7243 41.1198 45.4348 41.1198 45.144H39.1198C39.1198 45.2158 39.1085 45.2624 39.0968 45.2933L40.9668 46.0027ZM41.1198 45.144C41.1198 44.7178 40.9989 44.2858 40.6982 43.9224L39.1574 45.1976C39.1495 45.1881 39.142 45.1771 39.1354 45.1652C39.1289 45.1533 39.1245 45.1426 39.1218 45.1343C39.1163 45.1174 39.1198 45.1176 39.1198 45.144H41.1198ZM40.7214 43.9516C40.4898 43.6495 40.0946 43.32 39.5278 43.32V45.32C39.4041 45.32 39.2972 45.283 39.2213 45.2375C39.1533 45.1967 39.1278 45.1601 39.1342 45.1684L40.7214 43.9516ZM39.5278 43.32H37.6798V45.32H39.5278V43.32ZM38.6161 44.6711L38.7121 44.4151L36.8395 43.7129L36.7435 43.9689L38.6161 44.6711ZM36.7758 44.064V46.328H38.7758V44.064H36.7758ZM38.6396 45.8241L38.5276 45.6321L36.8 46.6399L36.912 46.8319L38.6396 45.8241Z" fill="white"/>
<path d="M1 0H41.977V31H1V18.885H2.78162C4.65112 18.885 6.16663 17.3695 6.16663 15.5C6.16663 13.6305 4.65112 12.115 2.78162 12.115H1V0ZM38.4138 3.56324H4.56324V8.78341C7.55917 9.60183 9.72567 12.2974 9.72991 15.4996V15.5C9.72563 18.7027 7.55913 21.3983 4.61206 22.2053L4.56324 22.2167V27.4369H38.4138V3.56324ZM18.1035 10.5115H14.7184V6.94829H18.1034L18.1035 10.5115ZM18.1035 17.2816H14.7184V13.7184H18.1034L18.1035 17.2816ZM18.1035 24.0517H14.7184V20.4886H18.1034L18.1035 24.0517Z" fill="black"/>
</svg>
