<svg xmlns="http://www.w3.org/2000/svg" width="59" height="71" fill="none"><path fill="#000" d="M12.896 43.4c.278 0 .536.08.776.24.246.16.443.376.592.648.15.272.224.576.224.912 0 .33-.074.632-.224.904a1.85 1.85 0 0 1-.592.656c-.24.16-.498.24-.776.24h-1.472l.08-.144v1.656a.511.511 0 0 1-.128.352.44.44 0 0 1-.336.136.43.43 0 0 1-.328-.136.51.51 0 0 1-.128-.352v-4.624a.479.479 0 0 1 .488-.488h1.824Zm0 2.688c.102 0 .2-.043.296-.128a1.025 1.025 0 0 0 .336-.76.985.985 0 0 0-.096-.432.935.935 0 0 0-.24-.32.444.444 0 0 0-.296-.128h-1.488l.096-.144v2.04l-.088-.128h1.48ZM15.981 49a.637.637 0 0 1-.4-.136.44.44 0 0 1-.176-.352v-4.624a.479.479 0 0 1 .488-.488h2.304c.277 0 .536.075.776.224.245.144.442.347.592.608.149.256.224.552.224.888 0 .203-.043.4-.128.592a1.74 1.74 0 0 1-.336.52 1.524 1.524 0 0 1-.472.36l.008-.184c.149.08.272.176.368.288.101.107.178.224.232.352.058.123.093.256.104.4.021.133.034.25.04.352.01.101.026.187.048.256a.3.3 0 0 0 .144.16c.117.07.189.17.216.304a.358.358 0 0 1-.088.344.408.408 0 0 1-.224.136.777.777 0 0 1-.272 0 .903.903 0 0 1-.224-.08 1.168 1.168 0 0 1-.272-.232 1.268 1.268 0 0 1-.224-.424 2.4 2.4 0 0 1-.08-.68.623.623 0 0 0-.184-.448.516.516 0 0 0-.224-.128.962.962 0 0 0-.32-.048h-1.616l.12-.184v1.736a.556.556 0 0 1-.112.352.382.382 0 0 1-.312.136Zm.312-2.864h1.864c.096 0 .189-.043.28-.128.09-.09.165-.21.224-.36a1.41 1.41 0 0 0 .088-.504.885.885 0 0 0-.192-.584c-.123-.16-.256-.24-.4-.24h-1.848l.096-.256v2.264l-.112-.192Zm9.678.064c0 .4-.067.773-.2 1.12a2.865 2.865 0 0 1-.568.92 2.614 2.614 0 0 1-1.952.84 2.613 2.613 0 0 1-1.952-.84 2.938 2.938 0 0 1-.56-.92c-.134-.347-.2-.72-.2-1.12 0-.4.066-.773.2-1.12.133-.347.32-.65.56-.912.245-.267.533-.475.864-.624.33-.15.693-.224 1.088-.224.394 0 .757.075 1.088.224.336.15.624.357.864.624.245.261.434.565.568.912.133.347.2.72.2 1.12Zm-1.04 0c0-.357-.072-.68-.216-.968a1.762 1.762 0 0 0-.592-.696 1.512 1.512 0 0 0-.872-.256c-.33 0-.622.085-.872.256-.25.17-.448.4-.592.688a2.221 2.221 0 0 0-.208.976c0 .357.07.683.208.976.144.288.341.517.592.688.25.17.541.256.872.256.33 0 .621-.085.872-.256.25-.17.448-.4.592-.688.144-.293.216-.619.216-.976Zm4.598 2.88c-.405 0-.784-.075-1.136-.224a2.969 2.969 0 0 1-.928-.616 3.042 3.042 0 0 1-.632-.92 2.8 2.8 0 0 1-.224-1.12c0-.4.075-.773.224-1.12.155-.347.365-.65.632-.912a2.879 2.879 0 0 1 2.064-.848c.25 0 .493.027.728.08.235.053.45.133.648.24.08.043.139.101.176.176.043.07.064.141.064.216a.52.52 0 0 1-.128.344.41.41 0 0 1-.328.152.626.626 0 0 1-.136-.016.627.627 0 0 1-.128-.048 2.188 2.188 0 0 0-.896-.184 1.79 1.79 0 0 0-.952.264c-.283.17-.51.403-.68.696a1.893 1.893 0 0 0-.248.96c0 .347.083.667.248.96a2 2 0 0 0 .68.704c.288.17.605.256.952.256.16 0 .336-.016.528-.048a2.05 2.05 0 0 0 .472-.128l-.072.24v-1.368l.136.12h-.888a.493.493 0 0 1-.352-.136.466.466 0 0 1-.136-.344c0-.139.045-.253.136-.344a.493.493 0 0 1 .352-.136h1.312c.139 0 .253.048.344.144.09.09.136.205.136.344v1.696a.42.42 0 0 1-.08.264.63.63 0 0 1-.168.168c-.245.15-.515.27-.808.36a3.195 3.195 0 0 1-.912.128Zm3.506-.08a.636.636 0 0 1-.4-.136.439.439 0 0 1-.176-.352v-4.624a.479.479 0 0 1 .488-.488h2.304c.278 0 .536.075.776.224.246.144.443.347.592.608.15.256.224.552.224.888 0 .203-.042.4-.128.592a1.74 1.74 0 0 1-.336.52 1.524 1.524 0 0 1-.472.36l.008-.184c.15.08.272.176.368.288.102.107.179.224.232.352.059.123.094.256.104.4.022.133.035.25.04.352.011.101.027.187.048.256a.3.3 0 0 0 .144.16c.118.07.19.17.216.304a.359.359 0 0 1-.088.344.408.408 0 0 1-.224.136.777.777 0 0 1-.272 0 .901.901 0 0 1-.224-.08 1.166 1.166 0 0 1-.272-.232 1.267 1.267 0 0 1-.224-.424 2.396 2.396 0 0 1-.08-.68.623.623 0 0 0-.184-.448.516.516 0 0 0-.224-.128.963.963 0 0 0-.32-.048H33.34l.12-.184v1.736a.556.556 0 0 1-.112.352.382.382 0 0 1-.312.136Zm.312-2.864h1.864c.096 0 .19-.043.28-.128.091-.09.166-.21.224-.36.059-.155.088-.323.088-.504a.885.885 0 0 0-.192-.584c-.122-.16-.256-.24-.4-.24h-1.848l.096-.256v2.264l-.112-.192Zm6.66-1.48L38.28 48.72a.507.507 0 0 1-.176.24.417.417 0 0 1-.248.08c-.144 0-.251-.04-.32-.12a.436.436 0 0 1-.104-.296.53.53 0 0 1 .024-.152l1.992-4.784a.53.53 0 0 1 .192-.248.433.433 0 0 1 .288-.072c.096 0 .184.03.264.088.085.053.146.13.184.232l1.968 4.688a.54.54 0 0 1 .04.192.437.437 0 0 1-.144.344.433.433 0 0 1-.568.04.587.587 0 0 1-.176-.24l-1.72-4.008.232-.048Zm-1.48 3.088.44-.92h2.16l.153.92h-2.752Zm5.038-4.352c.075 0 .152.021.232.064.085.037.15.088.192.152l1.944 2.992-.4-.016 1.992-2.976a.461.461 0 0 1 .392-.216c.128 0 .243.045.344.136a.45.45 0 0 1 .152.352v4.632a.493.493 0 0 1-.136.352.486.486 0 0 1-.36.136.514.514 0 0 1-.368-.136.494.494 0 0 1-.136-.352v-3.768l.312.072-1.632 2.488a.652.652 0 0 1-.184.152.356.356 0 0 1-.216.056.375.375 0 0 1-.216-.056.697.697 0 0 1-.176-.152l-1.528-2.416.208-.424v4.048a.51.51 0 0 1-.128.352.44.44 0 0 1-.336.136.43.43 0 0 1-.328-.136.511.511 0 0 1-.128-.352V43.88a.47.47 0 0 1 .144-.344.506.506 0 0 1 .36-.144ZM28.549.004h.654c.153-.002.334-.004.516-.004C40.582 0 50.12 5.675 55.53 14.222l.074.125.8 1.252-.8 1.253c-5.462 8.632-14.938 14.294-25.74 14.35h-.732a31.586 31.586 0 0 1-15.172-3.857l.166.083c-4.658-2.57-8.474-6.142-11.252-10.447l-.074-.122L2 15.606l.8-1.252C8.263 5.721 17.739.06 28.54.004h.009Zm.654 4.656h-.054a24.99 24.99 0 0 0-.48-.005c-8.683 0-16.364 4.29-21.04 10.865l-.054.08c4.88 6.662 12.675 10.94 21.469 10.94l.168-.001h-.009.654c8.636-.047 16.262-4.323 20.92-10.86l.054-.08C46.12 8.982 38.492 4.706 29.864 4.66h-.661Zm0-4.656c8.613 0 15.595 6.983 15.595 15.595 0 8.613-6.982 15.595-15.595 15.595S13.608 24.212 13.608 15.6C13.608 6.987 20.59.004 29.203.004Zm0 26.535c6.042 0 10.94-4.898 10.94-10.94S35.245 4.66 29.203 4.66s-10.94 4.898-10.94 10.94 4.898 10.94 10.94 10.94Zm0-17.69a6.75 6.75 0 1 1 0 13.5 6.75 6.75 0 0 1 0-13.5Zm0 8.845a2.095 2.095 0 1 0 0-4.19 2.095 2.095 0 0 0 0 4.19Z"/></svg>