<svg width="59" height="78" viewBox="0 0 59 78" fill="none" xmlns="http://www.w3.org/2000/svg">
<path fill-rule="evenodd" clip-rule="evenodd" d="M10 38V37.9283L19.3059 28.6224V28.6939H38.6936V9.30611H38.6222L47.9283 0L48 0V38H10ZM38.6222 9.30611H19.3059V28.6224L38.6222 9.30611Z" fill="#212121"/>
<path d="M14.6411 44.384C14.7745 44.384 14.8891 44.4293 14.9851 44.52C15.0865 44.6053 15.1371 44.7147 15.1371 44.848C15.1371 44.9173 15.1211 44.9893 15.0891 45.064L13.1131 49.688C13.0651 49.7947 12.9958 49.8747 12.9051 49.928C12.8198 49.976 12.7318 50 12.6411 50C12.5558 49.9947 12.4731 49.968 12.3931 49.92C12.3131 49.8667 12.2518 49.792 12.2091 49.696L10.2331 45.056C10.2171 45.024 10.2065 44.992 10.2011 44.96C10.1958 44.9227 10.1931 44.888 10.1931 44.856C10.1931 44.7013 10.2491 44.584 10.3611 44.504C10.4731 44.4187 10.5798 44.376 10.6811 44.376C10.8838 44.376 11.0305 44.48 11.1211 44.688L12.8731 48.808L12.5931 48.816L14.2011 44.688C14.2918 44.4853 14.4385 44.384 14.6411 44.384ZM16.975 49.512C16.975 49.6507 16.9243 49.768 16.823 49.864C16.7217 49.9547 16.6043 50 16.471 50C16.3217 50 16.2017 49.9547 16.111 49.864C16.0203 49.768 15.975 49.6507 15.975 49.512V44.888C15.975 44.7493 16.023 44.6347 16.119 44.544C16.215 44.448 16.3377 44.4 16.487 44.4C16.615 44.4 16.727 44.448 16.823 44.544C16.9243 44.6347 16.975 44.7493 16.975 44.888V49.512ZM21.2661 49.064C21.4048 49.064 21.5195 49.1093 21.6101 49.2C21.7061 49.2853 21.7541 49.3973 21.7541 49.536C21.7541 49.6693 21.7061 49.7813 21.6101 49.872C21.5195 49.9573 21.4048 50 21.2661 50H18.6661C18.5275 50 18.4101 49.9547 18.3141 49.864C18.2235 49.768 18.1781 49.6507 18.1781 49.512V44.888C18.1781 44.7493 18.2261 44.6347 18.3221 44.544C18.4181 44.448 18.5408 44.4 18.6901 44.4C18.8181 44.4 18.9301 44.448 19.0261 44.544C19.1275 44.6347 19.1781 44.7493 19.1781 44.888V49.2L19.0021 49.064H21.2661ZM25.0703 44.4C25.4543 44.4 25.7956 44.472 26.0943 44.616C26.393 44.76 26.6436 44.9627 26.8463 45.224C27.0543 45.48 27.209 45.7787 27.3103 46.12C27.417 46.456 27.4703 46.816 27.4703 47.2C27.4703 47.7173 27.377 48.1893 27.1903 48.616C27.0036 49.0373 26.7316 49.3733 26.3743 49.624C26.0223 49.8747 25.5876 50 25.0703 50H23.1583C23.0196 50 22.9023 49.9547 22.8063 49.864C22.7156 49.768 22.6703 49.6507 22.6703 49.512V44.888C22.6703 44.7493 22.7156 44.6347 22.8063 44.544C22.9023 44.448 23.0196 44.4 23.1583 44.4H25.0703ZM24.9903 49.08C25.3263 49.08 25.601 48.9947 25.8143 48.824C26.0276 48.648 26.1823 48.4187 26.2783 48.136C26.3796 47.848 26.4303 47.536 26.4303 47.2C26.4303 46.9493 26.401 46.712 26.3423 46.488C26.289 46.2587 26.2036 46.0587 26.0863 45.888C25.969 45.712 25.8196 45.5733 25.6383 45.472C25.457 45.3707 25.241 45.32 24.9903 45.32H23.5903L23.6703 45.248V49.168L23.6223 49.08H24.9903ZM30.1891 50.08C29.8157 50.08 29.4797 50.0347 29.1811 49.944C28.8824 49.848 28.5971 49.6827 28.3251 49.448C28.2557 49.3893 28.2024 49.3227 28.1651 49.248C28.1277 49.1733 28.1091 49.0987 28.1091 49.024C28.1091 48.9013 28.1517 48.7947 28.2371 48.704C28.3277 48.608 28.4397 48.56 28.5731 48.56C28.6744 48.56 28.7651 48.592 28.8451 48.656C29.0477 48.8213 29.2477 48.9467 29.4451 49.032C29.6477 49.1173 29.8957 49.16 30.1891 49.16C30.3864 49.16 30.5677 49.1307 30.7331 49.072C30.8984 49.008 31.0317 48.9253 31.1331 48.824C31.2344 48.7173 31.2851 48.5973 31.2851 48.464C31.2851 48.304 31.2371 48.168 31.1411 48.056C31.0451 47.944 30.8984 47.8507 30.7011 47.776C30.5037 47.696 30.2531 47.6347 29.9491 47.592C29.6611 47.5493 29.4077 47.4853 29.1891 47.4C28.9704 47.3093 28.7864 47.1973 28.6371 47.064C28.4931 46.9253 28.3837 46.7653 28.3091 46.584C28.2344 46.3973 28.1971 46.1893 28.1971 45.96C28.1971 45.6133 28.2851 45.3173 28.4611 45.072C28.6424 44.8267 28.8851 44.64 29.1891 44.512C29.4931 44.384 29.8291 44.32 30.1971 44.32C30.5437 44.32 30.8637 44.3733 31.1571 44.48C31.4557 44.5813 31.6984 44.712 31.8851 44.872C32.0397 44.9947 32.1171 45.136 32.1171 45.296C32.1171 45.4133 32.0717 45.52 31.9811 45.616C31.8904 45.712 31.7837 45.76 31.6611 45.76C31.5811 45.76 31.5091 45.736 31.4451 45.688C31.3597 45.6133 31.2451 45.544 31.1011 45.48C30.9571 45.4107 30.8051 45.3547 30.6451 45.312C30.4851 45.264 30.3357 45.24 30.1971 45.24C29.9677 45.24 29.7731 45.2693 29.6131 45.328C29.4584 45.3867 29.3411 45.4667 29.2611 45.568C29.1811 45.6693 29.1411 45.7867 29.1411 45.92C29.1411 46.08 29.1864 46.2133 29.2771 46.32C29.3731 46.4213 29.5091 46.504 29.6851 46.568C29.8611 46.6267 30.0717 46.68 30.3171 46.728C30.6371 46.7867 30.9171 46.856 31.1571 46.936C31.4024 47.016 31.6051 47.12 31.7651 47.248C31.9251 47.3707 32.0451 47.528 32.1251 47.72C32.2051 47.9067 32.2451 48.136 32.2451 48.408C32.2451 48.7547 32.1491 49.0533 31.9571 49.304C31.7651 49.5547 31.5117 49.7467 31.1971 49.88C30.8877 50.0133 30.5517 50.08 30.1891 50.08ZM37.0185 50C36.8692 50 36.7492 49.9387 36.6585 49.816L34.8105 47.384L35.5385 46.64L37.4505 49.168C37.5252 49.2693 37.5625 49.3787 37.5625 49.496C37.5625 49.6453 37.5065 49.768 37.3945 49.864C37.2825 49.9547 37.1572 50 37.0185 50ZM37.1145 44.36C37.2425 44.36 37.3465 44.4133 37.4265 44.52C37.5118 44.6213 37.5545 44.7253 37.5545 44.832C37.5545 44.944 37.5065 45.048 37.4105 45.144L34.0585 48.352L34.0185 47.208L36.7225 44.544C36.8452 44.4213 36.9758 44.36 37.1145 44.36ZM33.6585 50C33.5092 50 33.3892 49.9547 33.2985 49.864C33.2078 49.768 33.1625 49.6507 33.1625 49.512V44.888C33.1625 44.7493 33.2105 44.6347 33.3065 44.544C33.4025 44.448 33.5252 44.4 33.6745 44.4C33.8238 44.4 33.9412 44.448 34.0265 44.544C34.1172 44.6347 34.1625 44.7493 34.1625 44.888V49.512C34.1625 49.6507 34.1172 49.768 34.0265 49.864C33.9358 49.9547 33.8132 50 33.6585 50ZM42.2635 44.392C42.4022 44.392 42.5142 44.44 42.5995 44.536C42.6848 44.6267 42.7275 44.7413 42.7275 44.88V47.776C42.7275 48.2187 42.6315 48.6107 42.4395 48.952C42.2528 49.2933 41.9942 49.56 41.6635 49.752C41.3328 49.944 40.9488 50.04 40.5115 50.04C40.0742 50.04 39.6875 49.944 39.3515 49.752C39.0208 49.56 38.7595 49.2933 38.5675 48.952C38.3808 48.6107 38.2875 48.2187 38.2875 47.776V44.88C38.2875 44.7413 38.3355 44.6267 38.4315 44.536C38.5275 44.44 38.6502 44.392 38.7995 44.392C38.9222 44.392 39.0315 44.44 39.1275 44.536C39.2288 44.6267 39.2795 44.7413 39.2795 44.88V47.776C39.2795 48.0427 39.3355 48.2747 39.4475 48.472C39.5648 48.664 39.7168 48.8133 39.9035 48.92C40.0955 49.0267 40.2982 49.08 40.5115 49.08C40.7408 49.08 40.9542 49.0267 41.1515 48.92C41.3488 48.8133 41.5088 48.664 41.6315 48.472C41.7542 48.2747 41.8155 48.0427 41.8155 47.776V44.88C41.8155 44.7413 41.8555 44.6267 41.9355 44.536C42.0155 44.44 42.1248 44.392 42.2635 44.392ZM46.3281 44.4C46.7121 44.4 47.0535 44.472 47.3521 44.616C47.6508 44.76 47.9015 44.9627 48.1041 45.224C48.3121 45.48 48.4668 45.7787 48.5681 46.12C48.6748 46.456 48.7281 46.816 48.7281 47.2C48.7281 47.7173 48.6348 48.1893 48.4481 48.616C48.2615 49.0373 47.9895 49.3733 47.6321 49.624C47.2801 49.8747 46.8455 50 46.3281 50H44.4161C44.2775 50 44.1601 49.9547 44.0641 49.864C43.9735 49.768 43.9281 49.6507 43.9281 49.512V44.888C43.9281 44.7493 43.9735 44.6347 44.0641 44.544C44.1601 44.448 44.2775 44.4 44.4161 44.4H46.3281ZM46.2481 49.08C46.5841 49.08 46.8588 48.9947 47.0721 48.824C47.2855 48.648 47.4401 48.4187 47.5361 48.136C47.6375 47.848 47.6881 47.536 47.6881 47.2C47.6881 46.9493 47.6588 46.712 47.6001 46.488C47.5468 46.2587 47.4615 46.0587 47.3441 45.888C47.2268 45.712 47.0775 45.5733 46.8961 45.472C46.7148 45.3707 46.4988 45.32 46.2481 45.32H44.8481L44.9281 45.248V49.168L44.8801 49.08H46.2481ZM12.7017 60C12.5523 60 12.4297 59.9547 12.3337 59.864C12.243 59.768 12.1977 59.6507 12.1977 59.512V54.888C12.1977 54.7493 12.243 54.6347 12.3337 54.544C12.4297 54.448 12.547 54.4 12.6857 54.4H15.2857C15.4243 54.4 15.539 54.4453 15.6297 54.536C15.7257 54.6213 15.7737 54.7333 15.7737 54.872C15.7737 54.9893 15.7257 55.0933 15.6297 55.184C15.539 55.2747 15.4243 55.32 15.2857 55.32H13.1257L13.1977 55.224V56.832L13.1417 56.728H14.9257C15.0643 56.728 15.179 56.7733 15.2697 56.864C15.3657 56.9493 15.4137 57.0613 15.4137 57.2C15.4137 57.3173 15.3657 57.4213 15.2697 57.512C15.179 57.6027 15.0643 57.648 14.9257 57.648H13.1257L13.1977 57.576V59.512C13.1977 59.6507 13.147 59.768 13.0457 59.864C12.9497 59.9547 12.835 60 12.7017 60ZM17.1778 54.4H19.8578C19.9965 54.4 20.1112 54.4453 20.2018 54.536C20.2978 54.6213 20.3458 54.7333 20.3458 54.872C20.3458 55.0053 20.2978 55.1147 20.2018 55.2C20.1112 55.28 19.9965 55.32 19.8578 55.32H17.6178L17.6898 55.184V56.744L17.6258 56.68H19.4978C19.6365 56.68 19.7512 56.7253 19.8418 56.816C19.9378 56.9013 19.9858 57.0133 19.9858 57.152C19.9858 57.2853 19.9378 57.3947 19.8418 57.48C19.7512 57.56 19.6365 57.6 19.4978 57.6H17.6498L17.6898 57.536V59.152L17.6258 59.08H19.8578C19.9965 59.08 20.1112 59.128 20.2018 59.224C20.2978 59.3147 20.3458 59.4213 20.3458 59.544C20.3458 59.6773 20.2978 59.7867 20.2018 59.872C20.1112 59.9573 19.9965 60 19.8578 60H17.1778C17.0392 60 16.9218 59.9547 16.8258 59.864C16.7352 59.768 16.6898 59.6507 16.6898 59.512V54.888C16.6898 54.7493 16.7352 54.6347 16.8258 54.544C16.9218 54.448 17.0392 54.4 17.1778 54.4ZM23.068 60.08C22.6946 60.08 22.3586 60.0347 22.06 59.944C21.7613 59.848 21.476 59.6827 21.204 59.448C21.1346 59.3893 21.0813 59.3227 21.044 59.248C21.0066 59.1733 20.988 59.0987 20.988 59.024C20.988 58.9013 21.0306 58.7947 21.116 58.704C21.2066 58.608 21.3186 58.56 21.452 58.56C21.5533 58.56 21.644 58.592 21.724 58.656C21.9266 58.8213 22.1266 58.9467 22.324 59.032C22.5266 59.1173 22.7746 59.16 23.068 59.16C23.2653 59.16 23.4466 59.1307 23.612 59.072C23.7773 59.008 23.9106 58.9253 24.012 58.824C24.1133 58.7173 24.164 58.5973 24.164 58.464C24.164 58.304 24.116 58.168 24.02 58.056C23.924 57.944 23.7773 57.8507 23.58 57.776C23.3826 57.696 23.132 57.6347 22.828 57.592C22.54 57.5493 22.2866 57.4853 22.068 57.4C21.8493 57.3093 21.6653 57.1973 21.516 57.064C21.372 56.9253 21.2626 56.7653 21.188 56.584C21.1133 56.3973 21.076 56.1893 21.076 55.96C21.076 55.6133 21.164 55.3173 21.34 55.072C21.5213 54.8267 21.764 54.64 22.068 54.512C22.372 54.384 22.708 54.32 23.076 54.32C23.4226 54.32 23.7426 54.3733 24.036 54.48C24.3346 54.5813 24.5773 54.712 24.764 54.872C24.9186 54.9947 24.996 55.136 24.996 55.296C24.996 55.4133 24.9506 55.52 24.86 55.616C24.7693 55.712 24.6626 55.76 24.54 55.76C24.46 55.76 24.388 55.736 24.324 55.688C24.2386 55.6133 24.124 55.544 23.98 55.48C23.836 55.4107 23.684 55.3547 23.524 55.312C23.364 55.264 23.2146 55.24 23.076 55.24C22.8466 55.24 22.652 55.2693 22.492 55.328C22.3373 55.3867 22.22 55.4667 22.14 55.568C22.06 55.6693 22.02 55.7867 22.02 55.92C22.02 56.08 22.0653 56.2133 22.156 56.32C22.252 56.4213 22.388 56.504 22.564 56.568C22.74 56.6267 22.9506 56.68 23.196 56.728C23.516 56.7867 23.796 56.856 24.036 56.936C24.2813 57.016 24.484 57.12 24.644 57.248C24.804 57.3707 24.924 57.528 25.004 57.72C25.084 57.9067 25.124 58.136 25.124 58.408C25.124 58.7547 25.028 59.0533 24.836 59.304C24.644 59.5547 24.3906 59.7467 24.076 59.88C23.7666 60.0133 23.4306 60.08 23.068 60.08ZM27.9374 60C27.7881 60 27.6654 59.9547 27.5694 59.864C27.4734 59.768 27.4254 59.6507 27.4254 59.512V54.872H28.4654V59.512C28.4654 59.6507 28.4147 59.768 28.3134 59.864C28.2174 59.9547 28.0921 60 27.9374 60ZM26.1694 55.32C26.0307 55.32 25.9134 55.2773 25.8174 55.192C25.7267 55.1067 25.6814 54.9947 25.6814 54.856C25.6814 54.7173 25.7267 54.608 25.8174 54.528C25.9134 54.4427 26.0307 54.4 26.1694 54.4H29.7214C29.8601 54.4 29.9747 54.4427 30.0654 54.528C30.1614 54.6133 30.2094 54.7253 30.2094 54.864C30.2094 55.0027 30.1614 55.1147 30.0654 55.2C29.9747 55.28 29.8601 55.32 29.7214 55.32H26.1694ZM32.0492 59.512C32.0492 59.6507 31.9986 59.768 31.8972 59.864C31.7959 59.9547 31.6786 60 31.5452 60C31.3959 60 31.2759 59.9547 31.1852 59.864C31.0946 59.768 31.0492 59.6507 31.0492 59.512V54.888C31.0492 54.7493 31.0972 54.6347 31.1932 54.544C31.2892 54.448 31.4119 54.4 31.5612 54.4C31.6892 54.4 31.8012 54.448 31.8972 54.544C31.9986 54.6347 32.0492 54.7493 32.0492 54.888V59.512ZM37.3403 54.384C37.4737 54.384 37.5883 54.4293 37.6843 54.52C37.7857 54.6053 37.8363 54.7147 37.8363 54.848C37.8363 54.9173 37.8203 54.9893 37.7883 55.064L35.8123 59.688C35.7643 59.7947 35.695 59.8747 35.6043 59.928C35.519 59.976 35.431 60 35.3403 60C35.255 59.9947 35.1723 59.968 35.0923 59.92C35.0123 59.8667 34.951 59.792 34.9083 59.696L32.9323 55.056C32.9163 55.024 32.9057 54.992 32.9003 54.96C32.895 54.9227 32.8923 54.888 32.8923 54.856C32.8923 54.7013 32.9483 54.584 33.0603 54.504C33.1723 54.4187 33.279 54.376 33.3803 54.376C33.583 54.376 33.7297 54.48 33.8203 54.688L35.5723 58.808L35.2923 58.816L36.9003 54.688C36.991 54.4853 37.1377 54.384 37.3403 54.384ZM40.4568 55.656L38.7288 59.72C38.6914 59.8213 38.6328 59.9013 38.5528 59.96C38.4781 60.0133 38.3954 60.04 38.3048 60.04C38.1608 60.04 38.0541 60 37.9848 59.92C37.9154 59.84 37.8808 59.7413 37.8808 59.624C37.8808 59.576 37.8888 59.5253 37.9048 59.472L39.8968 54.688C39.9394 54.5813 40.0034 54.4987 40.0888 54.44C40.1794 54.3813 40.2754 54.3573 40.3768 54.368C40.4728 54.368 40.5608 54.3973 40.6408 54.456C40.7261 54.5093 40.7874 54.5867 40.8248 54.688L42.7928 59.376C42.8194 59.4453 42.8328 59.5093 42.8328 59.568C42.8328 59.712 42.7848 59.8267 42.6888 59.912C42.5981 59.9973 42.4968 60.04 42.3848 60.04C42.2888 60.04 42.2008 60.0107 42.1208 59.952C42.0461 59.8933 41.9874 59.8133 41.9448 59.712L40.2248 55.704L40.4568 55.656ZM38.9768 58.744L39.4168 57.824H41.5768L41.7288 58.744H38.9768ZM46.5982 59.064C46.7368 59.064 46.8515 59.1093 46.9422 59.2C47.0382 59.2853 47.0862 59.3973 47.0862 59.536C47.0862 59.6693 47.0382 59.7813 46.9422 59.872C46.8515 59.9573 46.7368 60 46.5982 60H43.9982C43.8595 60 43.7422 59.9547 43.6462 59.864C43.5555 59.768 43.5102 59.6507 43.5102 59.512V54.888C43.5102 54.7493 43.5582 54.6347 43.6542 54.544C43.7502 54.448 43.8728 54.4 44.0222 54.4C44.1502 54.4 44.2622 54.448 44.3582 54.544C44.4595 54.6347 44.5102 54.7493 44.5102 54.888V59.2L44.3342 59.064H46.5982Z" fill="black"/>
</svg>
