<svg width="59" height="68" viewBox="0 0 59 68" fill="none" xmlns="http://www.w3.org/2000/svg">
<path fill-rule="evenodd" clip-rule="evenodd" d="M10 38V37.9283L19.3059 28.6224V28.6939H38.6936V9.30611H38.6222L47.9283 0L48 0V38H10ZM38.6222 9.30611H19.3059V28.6224L38.6222 9.30611Z" fill="#212121"/>
<path d="M14.6411 40.384C14.7745 40.384 14.8891 40.4293 14.9851 40.52C15.0865 40.6053 15.1371 40.7147 15.1371 40.848C15.1371 40.9173 15.1211 40.9893 15.0891 41.064L13.1131 45.688C13.0651 45.7947 12.9958 45.8747 12.9051 45.928C12.8198 45.976 12.7318 46 12.6411 46C12.5558 45.9947 12.4731 45.968 12.3931 45.92C12.3131 45.8667 12.2518 45.792 12.2091 45.696L10.2331 41.056C10.2171 41.024 10.2065 40.992 10.2011 40.96C10.1958 40.9227 10.1931 40.888 10.1931 40.856C10.1931 40.7013 10.2491 40.584 10.3611 40.504C10.4731 40.4187 10.5798 40.376 10.6811 40.376C10.8838 40.376 11.0305 40.48 11.1211 40.688L12.8731 44.808L12.5931 44.816L14.2011 40.688C14.2918 40.4853 14.4385 40.384 14.6411 40.384ZM16.975 45.512C16.975 45.6507 16.9243 45.768 16.823 45.864C16.7217 45.9547 16.6043 46 16.471 46C16.3217 46 16.2017 45.9547 16.111 45.864C16.0203 45.768 15.975 45.6507 15.975 45.512V40.888C15.975 40.7493 16.023 40.6347 16.119 40.544C16.215 40.448 16.3377 40.4 16.487 40.4C16.615 40.4 16.727 40.448 16.823 40.544C16.9243 40.6347 16.975 40.7493 16.975 40.888V45.512ZM21.2661 45.064C21.4048 45.064 21.5195 45.1093 21.6101 45.2C21.7061 45.2853 21.7541 45.3973 21.7541 45.536C21.7541 45.6693 21.7061 45.7813 21.6101 45.872C21.5195 45.9573 21.4048 46 21.2661 46H18.6661C18.5275 46 18.4101 45.9547 18.3141 45.864C18.2235 45.768 18.1781 45.6507 18.1781 45.512V40.888C18.1781 40.7493 18.2261 40.6347 18.3221 40.544C18.4181 40.448 18.5408 40.4 18.6901 40.4C18.8181 40.4 18.9301 40.448 19.0261 40.544C19.1275 40.6347 19.1781 40.7493 19.1781 40.888V45.2L19.0021 45.064H21.2661ZM25.0703 40.4C25.4543 40.4 25.7956 40.472 26.0943 40.616C26.393 40.76 26.6436 40.9627 26.8463 41.224C27.0543 41.48 27.209 41.7787 27.3103 42.12C27.417 42.456 27.4703 42.816 27.4703 43.2C27.4703 43.7173 27.377 44.1893 27.1903 44.616C27.0036 45.0373 26.7316 45.3733 26.3743 45.624C26.0223 45.8747 25.5876 46 25.0703 46H23.1583C23.0196 46 22.9023 45.9547 22.8063 45.864C22.7156 45.768 22.6703 45.6507 22.6703 45.512V40.888C22.6703 40.7493 22.7156 40.6347 22.8063 40.544C22.9023 40.448 23.0196 40.4 23.1583 40.4H25.0703ZM24.9903 45.08C25.3263 45.08 25.601 44.9947 25.8143 44.824C26.0276 44.648 26.1823 44.4187 26.2783 44.136C26.3796 43.848 26.4303 43.536 26.4303 43.2C26.4303 42.9493 26.401 42.712 26.3423 42.488C26.289 42.2587 26.2036 42.0587 26.0863 41.888C25.969 41.712 25.8196 41.5733 25.6383 41.472C25.457 41.3707 25.241 41.32 24.9903 41.32H23.5903L23.6703 41.248V45.168L23.6223 45.08H24.9903ZM30.1891 46.08C29.8157 46.08 29.4797 46.0347 29.1811 45.944C28.8824 45.848 28.5971 45.6827 28.3251 45.448C28.2557 45.3893 28.2024 45.3227 28.1651 45.248C28.1277 45.1733 28.1091 45.0987 28.1091 45.024C28.1091 44.9013 28.1517 44.7947 28.2371 44.704C28.3277 44.608 28.4397 44.56 28.5731 44.56C28.6744 44.56 28.7651 44.592 28.8451 44.656C29.0477 44.8213 29.2477 44.9467 29.4451 45.032C29.6477 45.1173 29.8957 45.16 30.1891 45.16C30.3864 45.16 30.5677 45.1307 30.7331 45.072C30.8984 45.008 31.0317 44.9253 31.1331 44.824C31.2344 44.7173 31.2851 44.5973 31.2851 44.464C31.2851 44.304 31.2371 44.168 31.1411 44.056C31.0451 43.944 30.8984 43.8507 30.7011 43.776C30.5037 43.696 30.2531 43.6347 29.9491 43.592C29.6611 43.5493 29.4077 43.4853 29.1891 43.4C28.9704 43.3093 28.7864 43.1973 28.6371 43.064C28.4931 42.9253 28.3837 42.7653 28.3091 42.584C28.2344 42.3973 28.1971 42.1893 28.1971 41.96C28.1971 41.6133 28.2851 41.3173 28.4611 41.072C28.6424 40.8267 28.8851 40.64 29.1891 40.512C29.4931 40.384 29.8291 40.32 30.1971 40.32C30.5437 40.32 30.8637 40.3733 31.1571 40.48C31.4557 40.5813 31.6984 40.712 31.8851 40.872C32.0397 40.9947 32.1171 41.136 32.1171 41.296C32.1171 41.4133 32.0717 41.52 31.9811 41.616C31.8904 41.712 31.7837 41.76 31.6611 41.76C31.5811 41.76 31.5091 41.736 31.4451 41.688C31.3597 41.6133 31.2451 41.544 31.1011 41.48C30.9571 41.4107 30.8051 41.3547 30.6451 41.312C30.4851 41.264 30.3357 41.24 30.1971 41.24C29.9677 41.24 29.7731 41.2693 29.6131 41.328C29.4584 41.3867 29.3411 41.4667 29.2611 41.568C29.1811 41.6693 29.1411 41.7867 29.1411 41.92C29.1411 42.08 29.1864 42.2133 29.2771 42.32C29.3731 42.4213 29.5091 42.504 29.6851 42.568C29.8611 42.6267 30.0717 42.68 30.3171 42.728C30.6371 42.7867 30.9171 42.856 31.1571 42.936C31.4024 43.016 31.6051 43.12 31.7651 43.248C31.9251 43.3707 32.0451 43.528 32.1251 43.72C32.2051 43.9067 32.2451 44.136 32.2451 44.408C32.2451 44.7547 32.1491 45.0533 31.9571 45.304C31.7651 45.5547 31.5117 45.7467 31.1971 45.88C30.8877 46.0133 30.5517 46.08 30.1891 46.08ZM37.0185 46C36.8692 46 36.7492 45.9387 36.6585 45.816L34.8105 43.384L35.5385 42.64L37.4505 45.168C37.5252 45.2693 37.5625 45.3787 37.5625 45.496C37.5625 45.6453 37.5065 45.768 37.3945 45.864C37.2825 45.9547 37.1572 46 37.0185 46ZM37.1145 40.36C37.2425 40.36 37.3465 40.4133 37.4265 40.52C37.5118 40.6213 37.5545 40.7253 37.5545 40.832C37.5545 40.944 37.5065 41.048 37.4105 41.144L34.0585 44.352L34.0185 43.208L36.7225 40.544C36.8452 40.4213 36.9758 40.36 37.1145 40.36ZM33.6585 46C33.5092 46 33.3892 45.9547 33.2985 45.864C33.2078 45.768 33.1625 45.6507 33.1625 45.512V40.888C33.1625 40.7493 33.2105 40.6347 33.3065 40.544C33.4025 40.448 33.5252 40.4 33.6745 40.4C33.8238 40.4 33.9412 40.448 34.0265 40.544C34.1172 40.6347 34.1625 40.7493 34.1625 40.888V45.512C34.1625 45.6507 34.1172 45.768 34.0265 45.864C33.9358 45.9547 33.8132 46 33.6585 46ZM42.2635 40.392C42.4022 40.392 42.5142 40.44 42.5995 40.536C42.6848 40.6267 42.7275 40.7413 42.7275 40.88V43.776C42.7275 44.2187 42.6315 44.6107 42.4395 44.952C42.2528 45.2933 41.9942 45.56 41.6635 45.752C41.3328 45.944 40.9488 46.04 40.5115 46.04C40.0742 46.04 39.6875 45.944 39.3515 45.752C39.0208 45.56 38.7595 45.2933 38.5675 44.952C38.3808 44.6107 38.2875 44.2187 38.2875 43.776V40.88C38.2875 40.7413 38.3355 40.6267 38.4315 40.536C38.5275 40.44 38.6502 40.392 38.7995 40.392C38.9222 40.392 39.0315 40.44 39.1275 40.536C39.2288 40.6267 39.2795 40.7413 39.2795 40.88V43.776C39.2795 44.0427 39.3355 44.2747 39.4475 44.472C39.5648 44.664 39.7168 44.8133 39.9035 44.92C40.0955 45.0267 40.2982 45.08 40.5115 45.08C40.7408 45.08 40.9542 45.0267 41.1515 44.92C41.3488 44.8133 41.5088 44.664 41.6315 44.472C41.7542 44.2747 41.8155 44.0427 41.8155 43.776V40.88C41.8155 40.7413 41.8555 40.6267 41.9355 40.536C42.0155 40.44 42.1248 40.392 42.2635 40.392ZM46.3281 40.4C46.7121 40.4 47.0535 40.472 47.3521 40.616C47.6508 40.76 47.9015 40.9627 48.1041 41.224C48.3121 41.48 48.4668 41.7787 48.5681 42.12C48.6748 42.456 48.7281 42.816 48.7281 43.2C48.7281 43.7173 48.6348 44.1893 48.4481 44.616C48.2615 45.0373 47.9895 45.3733 47.6321 45.624C47.2801 45.8747 46.8455 46 46.3281 46H44.4161C44.2775 46 44.1601 45.9547 44.0641 45.864C43.9735 45.768 43.9281 45.6507 43.9281 45.512V40.888C43.9281 40.7493 43.9735 40.6347 44.0641 40.544C44.1601 40.448 44.2775 40.4 44.4161 40.4H46.3281ZM46.2481 45.08C46.5841 45.08 46.8588 44.9947 47.0721 44.824C47.2855 44.648 47.4401 44.4187 47.5361 44.136C47.6375 43.848 47.6881 43.536 47.6881 43.2C47.6881 42.9493 47.6588 42.712 47.6001 42.488C47.5468 42.2587 47.4615 42.0587 47.3441 41.888C47.2268 41.712 47.0775 41.5733 46.8961 41.472C46.7148 41.3707 46.4988 41.32 46.2481 41.32H44.8481L44.9281 41.248V45.168L44.8801 45.08H46.2481ZM12.7017 56C12.5523 56 12.4297 55.9547 12.3337 55.864C12.243 55.768 12.1977 55.6507 12.1977 55.512V50.888C12.1977 50.7493 12.243 50.6347 12.3337 50.544C12.4297 50.448 12.547 50.4 12.6857 50.4H15.2857C15.4243 50.4 15.539 50.4453 15.6297 50.536C15.7257 50.6213 15.7737 50.7333 15.7737 50.872C15.7737 50.9893 15.7257 51.0933 15.6297 51.184C15.539 51.2747 15.4243 51.32 15.2857 51.32H13.1257L13.1977 51.224V52.832L13.1417 52.728H14.9257C15.0643 52.728 15.179 52.7733 15.2697 52.864C15.3657 52.9493 15.4137 53.0613 15.4137 53.2C15.4137 53.3173 15.3657 53.4213 15.2697 53.512C15.179 53.6027 15.0643 53.648 14.9257 53.648H13.1257L13.1977 53.576V55.512C13.1977 55.6507 13.147 55.768 13.0457 55.864C12.9497 55.9547 12.835 56 12.7017 56ZM17.1778 50.4H19.8578C19.9965 50.4 20.1112 50.4453 20.2018 50.536C20.2978 50.6213 20.3458 50.7333 20.3458 50.872C20.3458 51.0053 20.2978 51.1147 20.2018 51.2C20.1112 51.28 19.9965 51.32 19.8578 51.32H17.6178L17.6898 51.184V52.744L17.6258 52.68H19.4978C19.6365 52.68 19.7512 52.7253 19.8418 52.816C19.9378 52.9013 19.9858 53.0133 19.9858 53.152C19.9858 53.2853 19.9378 53.3947 19.8418 53.48C19.7512 53.56 19.6365 53.6 19.4978 53.6H17.6498L17.6898 53.536V55.152L17.6258 55.08H19.8578C19.9965 55.08 20.1112 55.128 20.2018 55.224C20.2978 55.3147 20.3458 55.4213 20.3458 55.544C20.3458 55.6773 20.2978 55.7867 20.2018 55.872C20.1112 55.9573 19.9965 56 19.8578 56H17.1778C17.0392 56 16.9218 55.9547 16.8258 55.864C16.7352 55.768 16.6898 55.6507 16.6898 55.512V50.888C16.6898 50.7493 16.7352 50.6347 16.8258 50.544C16.9218 50.448 17.0392 50.4 17.1778 50.4ZM23.068 56.08C22.6946 56.08 22.3586 56.0347 22.06 55.944C21.7613 55.848 21.476 55.6827 21.204 55.448C21.1346 55.3893 21.0813 55.3227 21.044 55.248C21.0066 55.1733 20.988 55.0987 20.988 55.024C20.988 54.9013 21.0306 54.7947 21.116 54.704C21.2066 54.608 21.3186 54.56 21.452 54.56C21.5533 54.56 21.644 54.592 21.724 54.656C21.9266 54.8213 22.1266 54.9467 22.324 55.032C22.5266 55.1173 22.7746 55.16 23.068 55.16C23.2653 55.16 23.4466 55.1307 23.612 55.072C23.7773 55.008 23.9106 54.9253 24.012 54.824C24.1133 54.7173 24.164 54.5973 24.164 54.464C24.164 54.304 24.116 54.168 24.02 54.056C23.924 53.944 23.7773 53.8507 23.58 53.776C23.3826 53.696 23.132 53.6347 22.828 53.592C22.54 53.5493 22.2866 53.4853 22.068 53.4C21.8493 53.3093 21.6653 53.1973 21.516 53.064C21.372 52.9253 21.2626 52.7653 21.188 52.584C21.1133 52.3973 21.076 52.1893 21.076 51.96C21.076 51.6133 21.164 51.3173 21.34 51.072C21.5213 50.8267 21.764 50.64 22.068 50.512C22.372 50.384 22.708 50.32 23.076 50.32C23.4226 50.32 23.7426 50.3733 24.036 50.48C24.3346 50.5813 24.5773 50.712 24.764 50.872C24.9186 50.9947 24.996 51.136 24.996 51.296C24.996 51.4133 24.9506 51.52 24.86 51.616C24.7693 51.712 24.6626 51.76 24.54 51.76C24.46 51.76 24.388 51.736 24.324 51.688C24.2386 51.6133 24.124 51.544 23.98 51.48C23.836 51.4107 23.684 51.3547 23.524 51.312C23.364 51.264 23.2146 51.24 23.076 51.24C22.8466 51.24 22.652 51.2693 22.492 51.328C22.3373 51.3867 22.22 51.4667 22.14 51.568C22.06 51.6693 22.02 51.7867 22.02 51.92C22.02 52.08 22.0653 52.2133 22.156 52.32C22.252 52.4213 22.388 52.504 22.564 52.568C22.74 52.6267 22.9506 52.68 23.196 52.728C23.516 52.7867 23.796 52.856 24.036 52.936C24.2813 53.016 24.484 53.12 24.644 53.248C24.804 53.3707 24.924 53.528 25.004 53.72C25.084 53.9067 25.124 54.136 25.124 54.408C25.124 54.7547 25.028 55.0533 24.836 55.304C24.644 55.5547 24.3906 55.7467 24.076 55.88C23.7666 56.0133 23.4306 56.08 23.068 56.08ZM27.9374 56C27.7881 56 27.6654 55.9547 27.5694 55.864C27.4734 55.768 27.4254 55.6507 27.4254 55.512V50.872H28.4654V55.512C28.4654 55.6507 28.4147 55.768 28.3134 55.864C28.2174 55.9547 28.0921 56 27.9374 56ZM26.1694 51.32C26.0307 51.32 25.9134 51.2773 25.8174 51.192C25.7267 51.1067 25.6814 50.9947 25.6814 50.856C25.6814 50.7173 25.7267 50.608 25.8174 50.528C25.9134 50.4427 26.0307 50.4 26.1694 50.4H29.7214C29.8601 50.4 29.9747 50.4427 30.0654 50.528C30.1614 50.6133 30.2094 50.7253 30.2094 50.864C30.2094 51.0027 30.1614 51.1147 30.0654 51.2C29.9747 51.28 29.8601 51.32 29.7214 51.32H26.1694ZM32.0492 55.512C32.0492 55.6507 31.9986 55.768 31.8972 55.864C31.7959 55.9547 31.6786 56 31.5452 56C31.3959 56 31.2759 55.9547 31.1852 55.864C31.0946 55.768 31.0492 55.6507 31.0492 55.512V50.888C31.0492 50.7493 31.0972 50.6347 31.1932 50.544C31.2892 50.448 31.4119 50.4 31.5612 50.4C31.6892 50.4 31.8012 50.448 31.8972 50.544C31.9986 50.6347 32.0492 50.7493 32.0492 50.888V55.512ZM37.3403 50.384C37.4737 50.384 37.5883 50.4293 37.6843 50.52C37.7857 50.6053 37.8363 50.7147 37.8363 50.848C37.8363 50.9173 37.8203 50.9893 37.7883 51.064L35.8123 55.688C35.7643 55.7947 35.695 55.8747 35.6043 55.928C35.519 55.976 35.431 56 35.3403 56C35.255 55.9947 35.1723 55.968 35.0923 55.92C35.0123 55.8667 34.951 55.792 34.9083 55.696L32.9323 51.056C32.9163 51.024 32.9057 50.992 32.9003 50.96C32.895 50.9227 32.8923 50.888 32.8923 50.856C32.8923 50.7013 32.9483 50.584 33.0603 50.504C33.1723 50.4187 33.279 50.376 33.3803 50.376C33.583 50.376 33.7297 50.48 33.8203 50.688L35.5723 54.808L35.2923 54.816L36.9003 50.688C36.991 50.4853 37.1377 50.384 37.3403 50.384ZM40.4568 51.656L38.7288 55.72C38.6914 55.8213 38.6328 55.9013 38.5528 55.96C38.4781 56.0133 38.3954 56.04 38.3048 56.04C38.1608 56.04 38.0541 56 37.9848 55.92C37.9154 55.84 37.8808 55.7413 37.8808 55.624C37.8808 55.576 37.8888 55.5253 37.9048 55.472L39.8968 50.688C39.9394 50.5813 40.0034 50.4987 40.0888 50.44C40.1794 50.3813 40.2754 50.3573 40.3768 50.368C40.4728 50.368 40.5608 50.3973 40.6408 50.456C40.7261 50.5093 40.7874 50.5867 40.8248 50.688L42.7928 55.376C42.8194 55.4453 42.8328 55.5093 42.8328 55.568C42.8328 55.712 42.7848 55.8267 42.6888 55.912C42.5981 55.9973 42.4968 56.04 42.3848 56.04C42.2888 56.04 42.2008 56.0107 42.1208 55.952C42.0461 55.8933 41.9874 55.8133 41.9448 55.712L40.2248 51.704L40.4568 51.656ZM38.9768 54.744L39.4168 53.824H41.5768L41.7288 54.744H38.9768ZM46.5982 55.064C46.7368 55.064 46.8515 55.1093 46.9422 55.2C47.0382 55.2853 47.0862 55.3973 47.0862 55.536C47.0862 55.6693 47.0382 55.7813 46.9422 55.872C46.8515 55.9573 46.7368 56 46.5982 56H43.9982C43.8595 56 43.7422 55.9547 43.6462 55.864C43.5555 55.768 43.5102 55.6507 43.5102 55.512V50.888C43.5102 50.7493 43.5582 50.6347 43.6542 50.544C43.7502 50.448 43.8728 50.4 44.0222 50.4C44.1502 50.4 44.2622 50.448 44.3582 50.544C44.4595 50.6347 44.5102 50.7493 44.5102 50.888V55.2L44.3342 55.064H46.5982Z" fill="black"/>
<path d="M14.9851 40.52L14.2985 41.247L14.3192 41.2666L14.341 41.2849L14.9851 40.52ZM15.0891 41.064L14.17 40.6701L14.1696 40.671L15.0891 41.064ZM13.1131 45.688L14.025 46.0984L14.0289 46.0897L14.0327 46.081L13.1131 45.688ZM12.9051 45.928L13.3954 46.7996L13.4038 46.7948L13.4121 46.7899L12.9051 45.928ZM12.6411 46L12.5787 46.9981L12.6099 47H12.6411V46ZM12.3931 45.92L11.8384 46.7521L11.8582 46.7652L11.8786 46.7775L12.3931 45.92ZM12.2091 45.696L11.2891 46.0878L11.2921 46.095L11.2953 46.1021L12.2091 45.696ZM10.2331 41.056L11.1532 40.6642L11.1412 40.6361L11.1276 40.6088L10.2331 41.056ZM10.2011 40.96L9.21118 41.1014L9.21282 41.1129L9.21473 41.1244L10.2011 40.96ZM10.3611 40.504L10.9424 41.3177L10.9549 41.3088L10.9672 41.2994L10.3611 40.504ZM11.1211 40.688L12.0414 40.2967L12.0378 40.2884L11.1211 40.688ZM12.8731 44.808L12.9017 45.8076L14.3671 45.7657L13.7934 44.4167L12.8731 44.808ZM12.5931 44.816L11.6613 44.453L11.1138 45.8587L12.6217 45.8156L12.5931 44.816ZM14.2011 40.688L13.2883 40.2796L13.2783 40.3021L13.2693 40.325L14.2011 40.688ZM14.6411 41.384C14.5922 41.384 14.5284 41.3752 14.4595 41.348C14.3904 41.3206 14.3363 41.2827 14.2985 41.247L15.6717 39.793C15.3881 39.5251 15.027 39.384 14.6411 39.384V41.384ZM14.341 41.2849C14.291 41.2428 14.2339 41.1772 14.1918 41.0865C14.1499 40.9959 14.1371 40.911 14.1371 40.848H16.1371C16.1371 40.4219 15.9579 40.0318 15.6293 39.7551L14.341 41.2849ZM14.1371 40.848C14.1371 40.7607 14.1577 40.6988 14.17 40.6701L16.0083 41.4579C16.0846 41.2799 16.1371 41.074 16.1371 40.848H14.1371ZM14.1696 40.671L12.1936 45.295L14.0327 46.081L16.0087 41.457L14.1696 40.671ZM12.2012 45.2776C12.213 45.2515 12.2341 45.2138 12.2694 45.1731C12.3054 45.1316 12.3493 45.0948 12.3981 45.0661L13.4121 46.7899C13.7011 46.62 13.902 46.3717 14.025 46.0984L12.2012 45.2776ZM12.4149 45.0564C12.4669 45.0272 12.5465 45 12.6411 45V47C12.9171 47 13.1727 46.9248 13.3954 46.7996L12.4149 45.0564ZM12.7035 45.0019C12.7922 45.0075 12.8631 45.0358 12.9076 45.0625L11.8786 46.7775C12.0831 46.9002 12.3194 46.9818 12.5787 46.9981L12.7035 45.0019ZM12.9478 45.0879C13.04 45.1494 13.0961 45.2294 13.1229 45.2899L11.2953 46.1021C11.4075 46.3546 11.5863 46.584 11.8384 46.7521L12.9478 45.0879ZM13.1292 45.3042L11.1532 40.6642L9.31308 41.4478L11.2891 46.0878L13.1292 45.3042ZM11.1276 40.6088C11.1516 40.6569 11.1749 40.7197 11.1875 40.7956L9.21473 41.1244C9.23804 41.2643 9.28266 41.3911 9.3387 41.5032L11.1276 40.6088ZM11.1911 40.8186C11.1913 40.8201 11.1931 40.8332 11.1931 40.856H9.19313C9.19313 40.9428 9.2003 41.0253 9.21118 41.1014L11.1911 40.8186ZM11.1931 40.856C11.1931 40.8998 11.1849 40.9837 11.1376 41.0827C11.0884 41.1859 11.0158 41.2653 10.9424 41.3177L9.77989 39.6903C9.36959 39.9833 9.19313 40.4246 9.19313 40.856H11.1931ZM10.9672 41.2994C10.9668 41.2997 10.9434 41.3177 10.8965 41.3365C10.8474 41.3561 10.7736 41.376 10.6811 41.376V39.376C10.2898 39.376 9.97475 39.5412 9.75508 39.7086L10.9672 41.2994ZM10.6811 41.376C10.6027 41.376 10.4815 41.3526 10.3647 41.2697C10.2552 41.1921 10.213 41.1073 10.2044 41.0876L12.0378 40.2884C11.9386 40.0607 11.7777 39.8199 11.5216 39.6383C11.2581 39.4514 10.9623 39.376 10.6811 39.376V41.376ZM10.2009 41.0793L11.9529 45.1993L13.7934 44.4167L12.0414 40.2967L10.2009 41.0793ZM12.8446 43.8084L12.5646 43.8164L12.6217 45.8156L12.9017 45.8076L12.8446 43.8084ZM13.5249 45.179L15.1329 41.051L13.2693 40.325L11.6613 44.453L13.5249 45.179ZM15.1139 41.0964C15.1028 41.1213 15.0577 41.2066 14.9476 41.2827C14.8316 41.3628 14.7141 41.384 14.6411 41.384V39.384C14.3655 39.384 14.0733 39.4558 13.8107 39.6373C13.5539 39.8147 13.3901 40.052 13.2883 40.2796L15.1139 41.0964ZM16.823 45.864L17.4898 46.6092L17.5004 46.5997L17.5107 46.59L16.823 45.864ZM16.111 45.864L15.384 46.5506L15.3938 46.561L15.4039 46.5711L16.111 45.864ZM16.119 40.544L16.8056 41.271L16.816 41.2612L16.8261 41.2511L16.119 40.544ZM16.823 40.544L16.1159 41.2511L16.1355 41.2707L16.1562 41.2892L16.823 40.544ZM15.975 45.512C15.975 45.4567 15.9858 45.3844 16.0189 45.3076C16.052 45.2309 16.0968 45.1745 16.1353 45.138L17.5107 46.59C17.8099 46.3065 17.975 45.9273 17.975 45.512H15.975ZM16.1562 45.1188C16.1882 45.0901 16.2358 45.0574 16.2986 45.0332C16.3617 45.0088 16.4219 45 16.471 45V47C16.8557 47 17.2091 46.8604 17.4898 46.6092L16.1562 45.1188ZM16.471 45C16.4976 45 16.5526 45.0041 16.6224 45.0305C16.6951 45.058 16.763 45.1018 16.8181 45.1569L15.4039 46.5711C15.713 46.8802 16.1036 47 16.471 47V45ZM16.838 45.1774C16.8773 45.219 16.9154 45.2752 16.9418 45.3436C16.9679 45.4111 16.975 45.4707 16.975 45.512H14.975C14.975 45.8919 15.1085 46.259 15.384 46.5506L16.838 45.1774ZM16.975 45.512V40.888H14.975V45.512H16.975ZM16.975 40.888C16.975 40.9359 16.9662 41.0058 16.9334 41.0841C16.9002 41.1636 16.8527 41.2265 16.8056 41.271L15.4324 39.817C15.1254 40.1069 14.975 40.4897 14.975 40.888H16.975ZM16.8261 41.2511C16.7796 41.2976 16.7185 41.3394 16.6474 41.3672C16.5781 41.3943 16.5205 41.4 16.487 41.4V39.4C16.1016 39.4 15.7151 39.5337 15.4119 39.8369L16.8261 41.2511ZM16.487 41.4C16.4225 41.4 16.3478 41.3872 16.2731 41.3551C16.1995 41.3236 16.1476 41.2828 16.1159 41.2511L17.5301 39.8369C17.2592 39.566 16.8976 39.4 16.487 39.4V41.4ZM16.1562 41.2892C16.11 41.2479 16.0592 41.1856 16.0223 41.1022C15.9857 41.0193 15.975 40.943 15.975 40.888H17.975C17.975 40.4713 17.8079 40.0834 17.4898 39.7988L16.1562 41.2892ZM15.975 40.888V45.512H17.975V40.888H15.975ZM21.6101 45.2L20.903 45.9071L20.9238 45.9279L20.9458 45.9474L21.6101 45.2ZM21.6101 45.872L22.2955 46.6002L22.2967 46.599L21.6101 45.872ZM18.3141 45.864L17.5871 46.5506L17.6067 46.5714L17.6275 46.591L18.3141 45.864ZM18.3221 40.544L19.0087 41.271L19.0191 41.2612L19.0292 41.2511L18.3221 40.544ZM19.0261 40.544L18.319 41.2511L18.3386 41.2707L18.3593 41.2892L19.0261 40.544ZM19.1781 45.2L18.5667 45.9913L20.1781 47.2365V45.2H19.1781ZM19.0021 45.064V44.064H16.0725L18.3907 45.8553L19.0021 45.064ZM21.2661 46.064C21.2252 46.064 21.1619 46.057 21.0885 46.028C21.0135 45.9983 20.9505 45.9545 20.903 45.9071L22.3172 44.4929C22.0228 44.1985 21.6462 44.064 21.2661 44.064V46.064ZM20.9458 45.9474C20.89 45.8978 20.836 45.8283 20.799 45.7419C20.7628 45.6574 20.7541 45.5835 20.7541 45.536H22.7541C22.7541 45.1373 22.6024 44.7441 22.2745 44.4526L20.9458 45.9474ZM20.7541 45.536C20.7541 45.4801 20.7648 45.4059 20.799 45.3261C20.8333 45.2461 20.8804 45.1857 20.9235 45.145L22.2967 46.599C22.595 46.3174 22.7541 45.9414 22.7541 45.536H20.7541ZM20.9248 45.1438C20.9748 45.0967 21.0374 45.0568 21.1074 45.0308C21.1755 45.0054 21.2321 45 21.2661 45V47C21.6281 47 21.9976 46.8805 22.2955 46.6002L20.9248 45.1438ZM21.2661 45H18.6661V47H21.2661V45ZM18.6661 45C18.7074 45 18.767 45.0071 18.8345 45.0332C18.9029 45.0596 18.9592 45.0977 19.0007 45.137L17.6275 46.591C17.9191 46.8665 18.2862 47 18.6661 47V45ZM19.0411 45.1774C19.0804 45.219 19.1185 45.2752 19.1449 45.3436C19.171 45.4111 19.1781 45.4707 19.1781 45.512H17.1781C17.1781 45.8919 17.3117 46.259 17.5871 46.5506L19.0411 45.1774ZM19.1781 45.512V40.888H17.1781V45.512H19.1781ZM19.1781 40.888C19.1781 40.9359 19.1694 41.0058 19.1366 41.0841C19.1033 41.1636 19.0559 41.2265 19.0087 41.271L17.6355 39.817C17.3285 40.1069 17.1781 40.4897 17.1781 40.888H19.1781ZM19.0292 41.2511C18.9827 41.2976 18.9216 41.3394 18.8505 41.3672C18.7813 41.3943 18.7236 41.4 18.6901 41.4V39.4C18.3047 39.4 17.9182 39.5337 17.615 39.8369L19.0292 41.2511ZM18.6901 41.4C18.6257 41.4 18.5509 41.3872 18.4762 41.3551C18.4026 41.3236 18.3507 41.2828 18.319 41.2511L19.7332 39.8369C19.4623 39.566 19.1007 39.4 18.6901 39.4V41.4ZM18.3593 41.2892C18.3131 41.2479 18.2623 41.1856 18.2254 41.1022C18.1888 41.0193 18.1781 40.943 18.1781 40.888H20.1781C20.1781 40.4713 20.011 40.0834 19.6929 39.7988L18.3593 41.2892ZM18.1781 40.888V45.2H20.1781V40.888H18.1781ZM19.7896 44.4087L19.6136 44.2727L18.3907 45.8553L18.5667 45.9913L19.7896 44.4087ZM19.0021 46.064H21.2661V44.064H19.0021V46.064ZM26.0943 40.616L25.66 41.5168L26.0943 40.616ZM26.8463 41.224L26.0561 41.8368L26.063 41.8458L26.0702 41.8546L26.8463 41.224ZM27.3103 42.12L26.3517 42.4046L26.3543 42.4136L26.3572 42.4226L27.3103 42.12ZM27.1903 44.616L28.1046 45.0211L28.1065 45.0168L27.1903 44.616ZM26.3743 45.624L25.8 44.8053L25.7942 44.8094L26.3743 45.624ZM22.8063 45.864L22.0793 46.5506L22.0989 46.5714L22.1197 46.591L22.8063 45.864ZM22.8063 40.544L22.0992 39.8369L22.0992 39.8369L22.8063 40.544ZM25.8143 44.824L26.439 45.6049L26.4449 45.6002L26.4507 45.5954L25.8143 44.824ZM26.2783 44.136L25.3349 43.8041L25.3314 43.8144L26.2783 44.136ZM26.3423 42.488L25.3683 42.7145L25.3714 42.728L25.3749 42.7414L26.3423 42.488ZM26.0863 41.888L25.2543 42.4427L25.2582 42.4486L25.2623 42.4545L26.0863 41.888ZM25.6383 41.472L25.1505 42.3449L25.1505 42.3449L25.6383 41.472ZM23.5903 41.32L22.9213 40.5767L20.9844 42.32H23.5903V41.32ZM23.6703 41.248H24.6703V39.0026L23.0013 40.5047L23.6703 41.248ZM23.6703 45.168L22.7924 45.6469L24.6703 45.168H23.6703ZM23.6223 45.08V44.08H21.9378L22.7444 45.5589L23.6223 45.08ZM25.0703 41.4C25.3277 41.4 25.5167 41.4477 25.66 41.5168L26.5286 39.7152C26.0746 39.4963 25.581 39.4 25.0703 39.4V41.4ZM25.66 41.5168C25.8197 41.5938 25.9485 41.698 26.0561 41.8368L27.6365 40.6112C27.3388 40.2273 26.9662 39.9262 26.5286 39.7152L25.66 41.5168ZM26.0702 41.8546C26.1888 42.0005 26.2848 42.1794 26.3517 42.4046L28.269 41.8354C28.1332 41.378 27.9199 40.9595 27.6224 40.5934L26.0702 41.8546ZM26.3572 42.4226C26.4301 42.6524 26.4703 42.9095 26.4703 43.2H28.4703C28.4703 42.7225 28.4038 42.2596 28.2634 41.8174L26.3572 42.4226ZM26.4703 43.2C26.4703 43.5947 26.3997 43.9283 26.2742 44.2152L28.1065 45.0168C28.3543 44.4504 28.4703 43.8399 28.4703 43.2H26.4703ZM26.276 44.2109C26.1587 44.4757 26.0001 44.665 25.8 44.8053L26.9486 46.4427C27.4632 46.0817 27.8486 45.5989 28.1046 45.0211L26.276 44.2109ZM25.7942 44.8094C25.6428 44.9172 25.4217 45 25.0703 45V47C25.7536 47 26.4018 46.8321 26.9544 46.4386L25.7942 44.8094ZM25.0703 45H23.1583V47H25.0703V45ZM23.1583 45C23.1996 45 23.2592 45.0071 23.3267 45.0332C23.3951 45.0596 23.4514 45.0977 23.4929 45.137L22.1197 46.591C22.4113 46.8665 22.7784 47 23.1583 47V45ZM23.5333 45.1774C23.5726 45.219 23.6107 45.2752 23.6371 45.3436C23.6632 45.4111 23.6703 45.4707 23.6703 45.512H21.6703C21.6703 45.8919 21.8039 46.259 22.0793 46.5506L23.5333 45.1774ZM23.6703 45.512V40.888H21.6703V45.512H23.6703ZM23.6703 40.888C23.6703 40.9289 23.6633 40.9923 23.6343 41.0657C23.6046 41.1406 23.5609 41.2037 23.5134 41.2511L22.0992 39.8369C21.8048 40.1313 21.6703 40.508 21.6703 40.888H23.6703ZM23.5134 41.2511C23.4743 41.2903 23.4177 41.3318 23.3449 41.3615C23.2726 41.3911 23.2066 41.4 23.1583 41.4V39.4C22.7608 39.4 22.3872 39.5489 22.0992 39.8369L23.5134 41.2511ZM23.1583 41.4H25.0703V39.4H23.1583V41.4ZM24.9903 46.08C25.4997 46.08 26.0105 45.9476 26.439 45.6049L25.1896 44.0431C25.1855 44.0464 25.1761 44.0534 25.1516 44.061C25.1249 44.0693 25.0742 44.08 24.9903 44.08V46.08ZM26.4507 45.5954C26.8187 45.2918 27.0744 44.9016 27.2252 44.4576L25.3314 43.8144C25.2902 43.9357 25.2366 44.0042 25.1779 44.0526L26.4507 45.5954ZM27.2216 44.4679C27.3641 44.0631 27.4303 43.6377 27.4303 43.2H25.4303C25.4303 43.4343 25.3952 43.6329 25.335 43.8041L27.2216 44.4679ZM27.4303 43.2C27.4303 42.8708 27.3917 42.5479 27.3097 42.2346L25.3749 42.7414C25.4102 42.8761 25.4303 43.0278 25.4303 43.2H27.4303ZM27.3163 42.2615C27.2385 41.927 27.1075 41.6082 26.9104 41.3215L25.2623 42.4545C25.2998 42.5091 25.3394 42.5904 25.3683 42.7145L27.3163 42.2615ZM26.9184 41.3333C26.7148 41.0279 26.4484 40.7792 26.1261 40.5991L25.1505 42.3449C25.1909 42.3675 25.2232 42.3961 25.2543 42.4427L26.9184 41.3333ZM26.1261 40.5991C25.7677 40.3988 25.3766 40.32 24.9903 40.32V42.32C25.1054 42.32 25.1462 42.3426 25.1505 42.3449L26.1261 40.5991ZM24.9903 40.32H23.5903V42.32H24.9903V40.32ZM24.2593 42.0633L24.3393 41.9913L23.0013 40.5047L22.9213 40.5767L24.2593 42.0633ZM22.6703 41.248V45.168H24.6703V41.248H22.6703ZM24.5482 44.6891L24.5002 44.6011L22.7444 45.5589L22.7924 45.6469L24.5482 44.6891ZM23.6223 46.08H24.9903V44.08H23.6223V46.08ZM29.1811 45.944L28.8751 46.896L28.8828 46.8985L28.8906 46.9009L29.1811 45.944ZM28.3251 45.448L28.9783 44.6908L28.971 44.6846L28.3251 45.448ZM28.2371 44.704L27.51 44.0174L27.5089 44.0186L28.2371 44.704ZM28.8451 44.656L29.4772 43.8811L29.4698 43.8751L28.8451 44.656ZM29.4451 45.032L29.0481 45.9499L29.057 45.9536L29.4451 45.032ZM30.7331 45.072L31.0675 46.0144L31.0808 46.0097L31.0941 46.0046L30.7331 45.072ZM31.1331 44.824L31.8402 45.5311L31.8492 45.522L31.8581 45.5127L31.1331 44.824ZM31.1411 44.056L31.9003 43.4052L31.9003 43.4052L31.1411 44.056ZM30.7011 43.776L30.3254 44.7027L30.3362 44.7071L30.3472 44.7113L30.7011 43.776ZM29.9491 43.592L29.8025 44.5812L29.8101 44.5823L29.9491 43.592ZM29.1891 43.4L28.806 44.3237L28.8157 44.3278L28.8255 44.3316L29.1891 43.4ZM28.6371 43.064L27.9434 43.7843L27.957 43.7974L27.971 43.8099L28.6371 43.064ZM28.3091 42.584L27.3805 42.9554L27.3844 42.9647L28.3091 42.584ZM28.4611 41.072L27.6569 40.4776L27.6527 40.4833L27.6485 40.4891L28.4611 41.072ZM29.1891 40.512L29.5771 41.4336L29.5771 41.4336L29.1891 40.512ZM31.1571 40.48L30.8153 41.4198L30.8255 41.4235L30.8358 41.427L31.1571 40.48ZM31.8851 40.872L31.2343 41.6313L31.2487 41.6437L31.2637 41.6555L31.8851 40.872ZM31.9811 41.616L32.7081 42.3026L32.7081 42.3026L31.9811 41.616ZM31.4451 41.688L30.7866 42.4406L30.8149 42.4654L30.8451 42.488L31.4451 41.688ZM31.1011 41.48L30.6672 42.381L30.681 42.3876L30.6949 42.3938L31.1011 41.48ZM30.6451 41.312L30.3577 42.2698L30.3725 42.2743L30.3874 42.2782L30.6451 41.312ZM29.6131 41.328L29.2688 40.3891L29.2584 40.393L29.6131 41.328ZM29.2771 42.32L28.5151 42.9676L28.5326 42.9882L28.5511 43.0077L29.2771 42.32ZM29.6851 42.568L29.3433 43.5078L29.356 43.5124L29.3688 43.5167L29.6851 42.568ZM30.3171 42.728L30.125 43.7095L30.1367 43.7116L30.3171 42.728ZM31.1571 42.936L30.8408 43.8847L30.847 43.8867L31.1571 42.936ZM31.7651 43.248L31.1404 44.0289L31.1484 44.0353L31.1566 44.0416L31.7651 43.248ZM32.1251 43.72L31.2019 44.1046L31.2059 44.1139L32.1251 43.72ZM31.9571 45.304L31.1632 44.6959L31.1632 44.6959L31.9571 45.304ZM31.1971 45.88L30.8069 44.9592L30.8012 44.9617L31.1971 45.88ZM30.1891 45.08C29.8955 45.08 29.6597 45.0442 29.4715 44.9871L28.8906 46.9009C29.2998 47.0251 29.736 47.08 30.1891 47.08V45.08ZM29.4871 44.992C29.3332 44.9425 29.1634 44.8506 28.9783 44.6908L27.6718 46.2052C28.0307 46.5148 28.4316 46.7535 28.8751 46.896L29.4871 44.992ZM28.971 44.6846C28.9959 44.7057 29.0311 44.744 29.0595 44.8008L27.2706 45.6952C27.3737 45.9013 27.5156 46.073 27.6791 46.2114L28.971 44.6846ZM29.0595 44.8008C29.0833 44.8484 29.1091 44.9259 29.1091 45.024H27.1091C27.1091 45.2714 27.1722 45.4983 27.2706 45.6952L29.0595 44.8008ZM29.1091 45.024C29.1091 45.0812 29.0986 45.1508 29.0695 45.2234C29.0406 45.2957 29.0012 45.3512 28.9653 45.3894L27.5089 44.0186C27.2519 44.2917 27.1091 44.6424 27.1091 45.024H29.1091ZM28.9641 45.3906C28.9234 45.4337 28.863 45.4809 28.783 45.5151C28.7032 45.5493 28.629 45.56 28.5731 45.56V43.56C28.1676 43.56 27.7917 43.7192 27.51 44.0174L28.9641 45.3906ZM28.5731 45.56C28.5165 45.56 28.4515 45.5507 28.3842 45.527C28.3171 45.5033 28.2621 45.4703 28.2204 45.4369L29.4698 43.8751C29.2146 43.671 28.9042 43.56 28.5731 43.56V45.56ZM28.2129 45.4309C28.4722 45.6424 28.7502 45.821 29.0482 45.9499L29.842 44.1141C29.7452 44.0723 29.6233 44.0003 29.4772 43.8811L28.2129 45.4309ZM29.057 45.9536C29.4161 46.1048 29.8045 46.16 30.1891 46.16V44.16C29.9869 44.16 29.8793 44.1298 29.8331 44.1104L29.057 45.9536ZM30.1891 46.16C30.4862 46.16 30.7822 46.1156 31.0675 46.0144L30.3987 44.1296C30.3532 44.1457 30.2865 44.16 30.1891 44.16V46.16ZM31.0941 46.0046C31.3593 45.9019 31.62 45.7513 31.8402 45.5311L30.426 44.1169C30.4435 44.0994 30.4375 44.1141 30.3721 44.1394L31.0941 46.0046ZM31.8581 45.5127C32.1161 45.2412 32.2851 44.8812 32.2851 44.464H30.2851C30.2851 44.4003 30.2979 44.3311 30.3258 44.265C30.353 44.2007 30.3864 44.158 30.4081 44.1353L31.8581 45.5127ZM32.2851 44.464C32.2851 44.0871 32.1653 43.7143 31.9003 43.4052L30.3818 44.7068C30.3513 44.6712 30.3241 44.6259 30.3061 44.5748C30.2884 44.5249 30.2851 44.485 30.2851 44.464H32.2851ZM31.9003 43.4052C31.6583 43.1228 31.3458 42.9508 31.055 42.8407L30.3472 44.7113C30.3705 44.7201 30.3881 44.7279 30.4007 44.7341C30.4134 44.7402 30.4201 44.7443 30.4222 44.7457C30.4267 44.7485 30.4083 44.7377 30.3818 44.7068L31.9003 43.4052ZM31.0768 42.8493C30.7781 42.7282 30.4409 42.6512 30.0881 42.6017L29.8101 44.5823C30.0653 44.6181 30.2293 44.6638 30.3254 44.7027L31.0768 42.8493ZM30.0956 42.6028C29.8649 42.5686 29.687 42.5209 29.5526 42.4684L28.8255 44.3316C29.1285 44.4498 29.4572 44.53 29.8025 44.5812L30.0956 42.6028ZM29.5721 42.4763C29.4386 42.4209 29.355 42.3644 29.3031 42.3181L27.971 43.8099C28.2178 44.0302 28.5022 44.1977 28.806 44.3237L29.5721 42.4763ZM29.3307 42.3437C29.2844 42.2991 29.2547 42.2541 29.2337 42.2033L27.3844 42.9647C27.5128 43.2766 27.7017 43.5516 27.9434 43.7843L29.3307 42.3437ZM29.2375 42.2126C29.2163 42.1595 29.1971 42.0799 29.1971 41.96H27.1971C27.1971 42.2988 27.2525 42.6352 27.3806 42.9554L29.2375 42.2126ZM29.1971 41.96C29.1971 41.7903 29.237 41.706 29.2736 41.6549L27.6485 40.4891C27.3331 40.9287 27.1971 41.4363 27.1971 41.96H29.1971ZM29.2652 41.6664C29.3312 41.5772 29.4248 41.4978 29.5771 41.4336L28.801 39.5904C28.3453 39.7822 27.9536 40.0761 27.6569 40.4776L29.2652 41.6664ZM29.5771 41.4336C29.7448 41.363 29.9469 41.32 30.1971 41.32V39.32C29.7112 39.32 29.2413 39.405 28.801 39.5904L29.5771 41.4336ZM30.1971 41.32C30.44 41.32 30.643 41.3571 30.8153 41.4198L31.4988 39.5402C31.0845 39.3895 30.6474 39.32 30.1971 39.32V41.32ZM30.8358 41.427C31.0463 41.4984 31.1676 41.5741 31.2343 41.6313L32.5359 40.1127C32.2292 39.8499 31.8652 39.6643 31.4784 39.533L30.8358 41.427ZM31.2637 41.6555C31.2592 41.652 31.22 41.6198 31.1818 41.55C31.1405 41.4746 31.1171 41.385 31.1171 41.296H33.1171C33.1171 40.7599 32.8386 40.352 32.5065 40.0885L31.2637 41.6555ZM31.1171 41.296C31.1171 41.222 31.1322 41.1448 31.1627 41.0729C31.1925 41.0029 31.2291 40.9557 31.254 40.9294L32.7081 42.3026C32.9503 42.0462 33.1171 41.7013 33.1171 41.296H31.1171ZM31.2541 40.9294C31.287 40.8945 31.3423 40.8482 31.4227 40.8121C31.5047 40.7752 31.588 40.76 31.6611 40.76V42.76C32.0815 42.76 32.4446 42.5816 32.7081 42.3026L31.2541 40.9294ZM31.6611 40.76C31.7227 40.76 31.7919 40.7695 31.8633 40.7933C31.9347 40.8171 31.9958 40.851 32.0451 40.888L30.8451 42.488C31.0822 42.6658 31.3647 42.76 31.6611 42.76V40.76ZM32.1036 40.9354C31.9197 40.7745 31.71 40.6563 31.5072 40.5662L30.6949 42.3938C30.7351 42.4117 30.7617 42.4261 30.7776 42.4357C30.7937 42.4455 30.7949 42.4479 30.7866 42.4406L32.1036 40.9354ZM31.5349 40.579C31.3323 40.4815 31.1212 40.404 30.9027 40.3458L30.3874 42.2782C30.4889 42.3053 30.5818 42.3399 30.6672 42.381L31.5349 40.579ZM30.9324 40.3542C30.6976 40.2837 30.4506 40.24 30.1971 40.24V42.24C30.2209 42.24 30.2725 42.2443 30.3577 42.2698L30.9324 40.3542ZM30.1971 40.24C29.8883 40.24 29.5699 40.2787 29.2688 40.3891L29.9573 42.2669C29.9762 42.2599 30.0471 42.24 30.1971 42.24V40.24ZM29.2584 40.393C28.9813 40.4981 28.6958 40.6701 28.4762 40.9484L30.0459 42.1876C29.9863 42.2632 29.9355 42.2752 29.9677 42.263L29.2584 40.393ZM28.4762 40.9484C28.252 41.2323 28.1411 41.5698 28.1411 41.92H30.1411C30.1411 41.9548 30.1356 42.0019 30.1176 42.0547C30.0994 42.1079 30.0733 42.153 30.0459 42.1876L28.4762 40.9484ZM28.1411 41.92C28.1411 42.2813 28.249 42.6545 28.5151 42.9676L30.039 41.6724C30.0757 41.7156 30.1042 41.7662 30.1218 41.8181C30.1389 41.8681 30.1411 41.9052 30.1411 41.92H28.1411ZM28.5511 43.0077C28.7839 43.2535 29.069 43.408 29.3433 43.5078L30.0268 41.6282C29.9902 41.6149 29.9734 41.6052 29.9705 41.6035C29.968 41.602 29.982 41.6101 30.003 41.6323L28.5511 43.0077ZM29.3688 43.5167C29.5967 43.5926 29.8511 43.6558 30.1251 43.7094L30.5091 41.7466C30.2924 41.7042 30.1254 41.6607 30.0013 41.6193L29.3688 43.5167ZM30.1367 43.7116C30.423 43.7641 30.6557 43.823 30.8408 43.8847L31.4733 41.9873C31.1784 41.889 30.8512 41.8093 30.4974 41.7444L30.1367 43.7116ZM30.847 43.8867C31.0065 43.9387 31.095 43.9926 31.1404 44.0289L32.3898 42.4671C32.1151 42.2474 31.7982 42.0933 31.4671 41.9853L30.847 43.8867ZM31.1566 44.0416C31.1732 44.0543 31.1871 44.0688 31.202 44.1046L33.0481 43.3354C32.9031 42.9872 32.6769 42.687 32.3735 42.4544L31.1566 44.0416ZM31.2059 44.1139C31.2178 44.1416 31.2451 44.228 31.2451 44.408H33.2451C33.2451 44.044 33.1924 43.6718 33.0442 43.3261L31.2059 44.1139ZM31.2451 44.408C31.2451 44.5576 31.2083 44.637 31.1632 44.6959L32.7509 45.9121C33.0898 45.4696 33.2451 44.9517 33.2451 44.408H31.2451ZM31.1632 44.6959C31.085 44.798 30.9757 44.8877 30.8069 44.9592L31.5872 46.8008C32.0477 46.6056 32.4451 46.3114 32.7509 45.9121L31.1632 44.6959ZM30.8012 44.9617C30.6263 45.0371 30.4262 45.08 30.1891 45.08V47.08C30.6773 47.08 31.1492 46.9896 31.5929 46.7983L30.8012 44.9617ZM36.6585 45.816L37.4627 45.2216L37.4547 45.211L36.6585 45.816ZM34.8105 43.384L34.0957 42.6846L33.492 43.3017L34.0143 43.989L34.8105 43.384ZM35.5385 42.64L36.3361 42.0368L35.6357 41.1108L34.8237 41.9406L35.5385 42.64ZM37.4505 45.168L38.2556 44.5748L38.2481 44.5648L37.4505 45.168ZM37.3945 45.864L38.0237 46.6412L38.0346 46.6324L38.0453 46.6233L37.3945 45.864ZM37.4265 40.52L36.6265 41.12L36.6434 41.1426L36.6616 41.1641L37.4265 40.52ZM37.4105 41.144L38.1019 41.8665L38.1098 41.8589L38.1176 41.8511L37.4105 41.144ZM34.0585 44.352L33.0591 44.3869L33.1371 46.618L34.7499 45.0745L34.0585 44.352ZM34.0185 43.208L33.3167 42.4956L33.0038 42.8039L33.0191 43.2429L34.0185 43.208ZM36.7225 40.544L37.4243 41.2564L37.4296 41.2511L36.7225 40.544ZM33.2985 45.864L32.5715 46.5506L32.5813 46.561L32.5914 46.5711L33.2985 45.864ZM33.3065 40.544L33.9931 41.271L34.0035 41.2612L34.0136 41.2511L33.3065 40.544ZM34.0265 40.544L33.2791 41.2084L33.2986 41.2303L33.3194 41.2511L34.0265 40.544ZM34.0265 45.864L34.7336 46.5711L34.7437 46.561L34.7535 46.5506L34.0265 45.864ZM37.0185 45C37.0847 45 37.176 45.0147 37.2716 45.0636C37.3665 45.1121 37.4283 45.1751 37.4627 45.2216L35.8543 46.4104C36.1288 46.7817 36.544 47 37.0185 47V45ZM37.4547 45.211L35.6067 42.779L34.0143 43.989L35.8623 46.421L37.4547 45.211ZM35.5253 44.0834L36.2533 43.3394L34.8237 41.9406L34.0957 42.6846L35.5253 44.0834ZM34.7409 43.2432L36.6529 45.7712L38.2481 44.5648L36.3361 42.0368L34.7409 43.2432ZM36.6454 45.7612C36.6276 45.7369 36.6053 45.6994 36.5882 45.6491C36.5707 45.5981 36.5625 45.5455 36.5625 45.496H38.5625C38.5625 45.1493 38.4471 44.8347 38.2556 44.5748L36.6454 45.7612ZM36.5625 45.496C36.5625 45.4429 36.5732 45.3671 36.6108 45.2847C36.6486 45.2019 36.6999 45.1423 36.7437 45.1047L38.0453 46.6233C38.3821 46.3346 38.5625 45.9331 38.5625 45.496H36.5625ZM36.7653 45.0868C36.7889 45.0677 36.8261 45.0438 36.8764 45.0256C36.9271 45.0073 36.9766 45 37.0185 45V47C37.3957 47 37.7412 46.8699 38.0237 46.6412L36.7653 45.0868ZM37.1145 41.36C37.0352 41.36 36.9345 41.3423 36.8322 41.2898C36.7312 41.2381 36.6647 41.171 36.6265 41.12L38.2265 39.92C37.9669 39.5738 37.5723 39.36 37.1145 39.36V41.36ZM36.6616 41.1641C36.633 41.1302 36.5545 41.0139 36.5545 40.832H38.5545C38.5545 40.4368 38.3906 40.1125 38.1914 39.8759L36.6616 41.1641ZM36.5545 40.832C36.5545 40.74 36.5753 40.6513 36.6105 40.5749C36.6442 40.502 36.6831 40.4572 36.7034 40.4369L38.1176 41.8511C38.3587 41.61 38.5545 41.2638 38.5545 40.832H36.5545ZM36.7191 40.4215L33.3671 43.6295L34.7499 45.0745L38.1019 41.8665L36.7191 40.4215ZM35.0579 44.3171L35.0179 43.1731L33.0191 43.2429L33.0591 44.3869L35.0579 44.3171ZM34.7203 43.9204L37.4243 41.2564L36.0207 39.8316L33.3167 42.4956L34.7203 43.9204ZM37.4296 41.2511C37.4251 41.2556 37.3957 41.2839 37.3374 41.3112C37.2754 41.3404 37.1981 41.36 37.1145 41.36V39.36C36.6477 39.36 36.2759 39.5764 36.0154 39.8369L37.4296 41.2511ZM33.6585 45C33.6851 45 33.7401 45.0041 33.8099 45.0305C33.8826 45.058 33.9505 45.1018 34.0056 45.1569L32.5914 46.5711C32.9005 46.8802 33.2911 47 33.6585 47V45ZM34.0255 45.1774C34.0648 45.219 34.1029 45.2752 34.1293 45.3436C34.1554 45.4111 34.1625 45.4707 34.1625 45.512H32.1625C32.1625 45.8919 32.296 46.259 32.5715 46.5506L34.0255 45.1774ZM34.1625 45.512V40.888H32.1625V45.512H34.1625ZM34.1625 40.888C34.1625 40.9359 34.1537 41.0058 34.1209 41.0841C34.0877 41.1636 34.0402 41.2265 33.9931 41.271L32.6199 39.817C32.3129 40.1069 32.1625 40.4897 32.1625 40.888H34.1625ZM34.0136 41.2511C33.9671 41.2976 33.906 41.3394 33.8349 41.3672C33.7656 41.3943 33.708 41.4 33.6745 41.4V39.4C33.2891 39.4 32.9026 39.5337 32.5994 39.8369L34.0136 41.2511ZM33.6745 41.4C33.642 41.4 33.5768 41.3946 33.4959 41.3615C33.4114 41.327 33.3364 41.2729 33.2791 41.2084L34.7739 39.8796C34.4673 39.5347 34.0583 39.4 33.6745 39.4V41.4ZM33.3194 41.2511C33.272 41.2037 33.2282 41.1406 33.1985 41.0657C33.1695 40.9923 33.1625 40.9289 33.1625 40.888H35.1625C35.1625 40.508 35.028 40.1313 34.7336 39.8369L33.3194 41.2511ZM33.1625 40.888V45.512H35.1625V40.888H33.1625ZM33.1625 45.512C33.1625 45.4707 33.1696 45.4111 33.1957 45.3436C33.2221 45.2752 33.2602 45.219 33.2995 45.1774L34.7535 46.5506C35.029 46.259 35.1625 45.8919 35.1625 45.512H33.1625ZM33.3194 45.1569C33.3782 45.0981 33.4486 45.0544 33.5198 45.028C33.5877 45.0029 33.6386 45 33.6585 45V47C34.0199 47 34.4178 46.8869 34.7336 46.5711L33.3194 45.1569ZM42.5995 40.536L41.8521 41.2004L41.8615 41.211L41.8713 41.2214L42.5995 40.536ZM42.4395 44.952L41.5679 44.4617L41.5621 44.4722L42.4395 44.952ZM41.6635 45.752L41.1614 44.8872L41.1614 44.8872L41.6635 45.752ZM39.3515 45.752L38.8494 46.6168L38.8554 46.6202L39.3515 45.752ZM38.5675 44.952L37.6901 45.4318L37.6959 45.4423L38.5675 44.952ZM38.4315 40.536L39.1181 41.263L39.1285 41.2532L39.1386 41.2431L38.4315 40.536ZM39.1275 40.536L38.4204 41.2431L38.44 41.2627L38.4607 41.2812L39.1275 40.536ZM39.4475 44.472L38.5778 44.9656L38.5858 44.9797L38.5942 44.9934L39.4475 44.472ZM39.9035 44.92L39.4073 45.7883L39.4179 45.7942L39.9035 44.92ZM41.1515 44.92L40.676 44.0403L40.676 44.0403L41.1515 44.92ZM41.6315 44.472L42.4743 45.0104L42.4808 44.9999L41.6315 44.472ZM41.9355 40.536L42.6853 41.1976L42.6947 41.187L42.7037 41.1762L41.9355 40.536ZM42.2635 41.392C42.216 41.392 42.1421 41.3834 42.0576 41.3471C41.9712 41.3101 41.9017 41.2562 41.8521 41.2004L43.3469 39.8716C43.0554 39.5437 42.6622 39.392 42.2635 39.392V41.392ZM41.8713 41.2214C41.8242 41.1713 41.7843 41.1087 41.7583 41.0387C41.7329 40.9706 41.7275 40.914 41.7275 40.88H43.7275C43.7275 40.518 43.608 40.1485 43.3277 39.8506L41.8713 41.2214ZM41.7275 40.88V43.776H43.7275V40.88H41.7275ZM41.7275 43.776C41.7275 44.0697 41.6652 44.2887 41.5679 44.4617L43.3111 45.4423C43.5978 44.9326 43.7275 44.3676 43.7275 43.776H41.7275ZM41.5621 44.4722C41.4614 44.6563 41.3313 44.7886 41.1614 44.8872L42.1656 46.6168C42.6571 46.3314 43.0442 45.9304 43.3169 45.4318L41.5621 44.4722ZM41.1614 44.8872C41.0041 44.9785 40.7982 45.04 40.5115 45.04V47.04C41.0994 47.04 41.6616 46.9095 42.1656 46.6168L41.1614 44.8872ZM40.5115 45.04C40.2251 45.04 40.0137 44.9787 39.8476 44.8838L38.8554 46.6202C39.3613 46.9093 39.9232 47.04 40.5115 47.04V45.04ZM39.8536 44.8872C39.6812 44.7871 39.5458 44.6514 39.4391 44.4617L37.6959 45.4423C37.9732 45.9352 38.3605 46.3329 38.8494 46.6168L39.8536 44.8872ZM39.4449 44.4722C39.3492 44.2972 39.2875 44.0744 39.2875 43.776H37.2875C37.2875 44.363 37.4125 44.9241 37.6901 45.4318L39.4449 44.4722ZM39.2875 43.776V40.88H37.2875V43.776H39.2875ZM39.2875 40.88C39.2875 40.9279 39.2787 40.9978 39.2459 41.0761C39.2127 41.1556 39.1652 41.2185 39.1181 41.263L37.7449 39.809C37.4379 40.0989 37.2875 40.4817 37.2875 40.88H39.2875ZM39.1386 41.2431C39.0921 41.2896 39.031 41.3314 38.9599 41.3592C38.8906 41.3863 38.833 41.392 38.7995 41.392V39.392C38.4141 39.392 38.0276 39.5257 37.7244 39.8289L39.1386 41.2431ZM38.7995 41.392C38.7263 41.392 38.6471 41.3768 38.5715 41.3436C38.4979 41.3113 38.4483 41.271 38.4204 41.2431L39.8346 39.8289C39.573 39.5673 39.2169 39.392 38.7995 39.392V41.392ZM38.4607 41.2812C38.4145 41.2399 38.3637 41.1776 38.3268 41.0942C38.2902 41.0113 38.2795 40.935 38.2795 40.88H40.2795C40.2795 40.4633 40.1124 40.0754 39.7943 39.7908L38.4607 41.2812ZM38.2795 40.88V43.776H40.2795V40.88H38.2795ZM38.2795 43.776C38.2795 44.1852 38.3665 44.5933 38.5778 44.9656L40.3172 43.9784C40.3045 43.956 40.2795 43.9001 40.2795 43.776H38.2795ZM38.5942 44.9934C38.7952 45.3224 39.0674 45.594 39.4074 45.7882L40.3996 44.0518C40.3663 44.0327 40.3345 44.0056 40.3008 43.9506L38.5942 44.9934ZM39.4179 45.7942C39.7538 45.9808 40.1231 46.08 40.5115 46.08V44.08C40.4733 44.08 40.4372 44.0725 40.3891 44.0458L39.4179 45.7942ZM40.5115 46.08C40.903 46.08 41.2803 45.9871 41.627 45.7997L40.676 44.0403C40.6281 44.0662 40.5787 44.08 40.5115 44.08V46.08ZM41.627 45.7997C41.9762 45.611 42.2616 45.3431 42.4742 45.0104L40.7888 43.9336C40.7561 43.9849 40.7215 44.0157 40.676 44.0403L41.627 45.7997ZM42.4808 44.9999C42.7158 44.6218 42.8155 44.2011 42.8155 43.776H40.8155C40.8155 43.8842 40.7925 43.9275 40.7822 43.9441L42.4808 44.9999ZM42.8155 43.776V40.88H40.8155V43.776H42.8155ZM42.8155 40.88C42.8155 40.9071 42.8115 40.957 42.7897 41.0194C42.7672 41.0838 42.7314 41.1454 42.6853 41.1976L41.1857 39.8744C40.9209 40.1744 40.8155 40.5358 40.8155 40.88H42.8155ZM42.7037 41.1762C42.6494 41.2414 42.5732 41.3025 42.4795 41.3436C42.3886 41.3835 42.3104 41.392 42.2635 41.392V39.392C41.8648 39.392 41.4596 39.545 41.1673 39.8958L42.7037 41.1762ZM47.3521 40.616L46.9178 41.5168L47.3521 40.616ZM48.1041 41.224L47.3139 41.8368L47.3209 41.8458L47.328 41.8546L48.1041 41.224ZM48.5681 42.12L47.6095 42.4046L47.6122 42.4136L47.615 42.4226L48.5681 42.12ZM48.4481 44.616L49.3624 45.0211L49.3643 45.0168L48.4481 44.616ZM47.6321 45.624L47.0578 44.8053L47.0521 44.8094L47.6321 45.624ZM44.0641 45.864L43.3371 46.5506L43.3567 46.5714L43.3775 46.591L44.0641 45.864ZM44.0641 40.544L43.357 39.8369L43.357 39.8369L44.0641 40.544ZM47.0721 44.824L47.6968 45.6049L47.7027 45.6002L47.7085 45.5954L47.0721 44.824ZM47.5361 44.136L46.5928 43.8041L46.5892 43.8144L47.5361 44.136ZM47.6001 42.488L46.6261 42.7145L46.6292 42.728L46.6328 42.7414L47.6001 42.488ZM47.3441 41.888L46.5121 42.4427L46.516 42.4486L46.5201 42.4545L47.3441 41.888ZM46.8961 41.472L46.4083 42.3449L46.4083 42.3449L46.8961 41.472ZM44.8481 41.32L44.1792 40.5767L42.2422 42.32H44.8481V41.32ZM44.9281 41.248H45.9281V39.0026L44.2592 40.5047L44.9281 41.248ZM44.9281 45.168L44.0502 45.6469L45.9281 45.168H44.9281ZM44.8801 45.08V44.08H43.1956L44.0022 45.5589L44.8801 45.08ZM46.3281 41.4C46.5855 41.4 46.7745 41.4477 46.9178 41.5168L47.7864 39.7152C47.3324 39.4963 46.8388 39.4 46.3281 39.4V41.4ZM46.9178 41.5168C47.0776 41.5938 47.2063 41.698 47.3139 41.8368L48.8943 40.6112C48.5966 40.2273 48.224 39.9262 47.7864 39.7152L46.9178 41.5168ZM47.328 41.8546C47.4466 42.0005 47.5426 42.1794 47.6095 42.4046L49.5268 41.8354C49.391 41.378 49.1777 40.9595 48.8802 40.5934L47.328 41.8546ZM47.615 42.4226C47.688 42.6524 47.7281 42.9095 47.7281 43.2H49.7281C49.7281 42.7225 49.6616 42.2596 49.5212 41.8174L47.615 42.4226ZM47.7281 43.2C47.7281 43.5947 47.6575 43.9283 47.532 44.2152L49.3643 45.0168C49.6121 44.4504 49.7281 43.8399 49.7281 43.2H47.7281ZM47.5338 44.2109C47.4165 44.4757 47.2579 44.665 47.0578 44.8053L48.2064 46.4427C48.721 46.0817 49.1064 45.5989 49.3624 45.0211L47.5338 44.2109ZM47.0521 44.8094C46.9007 44.9172 46.6795 45 46.3281 45V47C47.0115 47 47.6596 46.8321 48.2122 46.4386L47.0521 44.8094ZM46.3281 45H44.4161V47H46.3281V45ZM44.4161 45C44.4574 45 44.517 45.0071 44.5845 45.0332C44.6529 45.0596 44.7092 45.0977 44.7507 45.137L43.3775 46.591C43.6691 46.8665 44.0362 47 44.4161 47V45ZM44.7911 45.1774C44.8304 45.219 44.8685 45.2752 44.8949 45.3436C44.921 45.4111 44.9281 45.4707 44.9281 45.512H42.9281C42.9281 45.8919 43.0617 46.259 43.3371 46.5506L44.7911 45.1774ZM44.9281 45.512V40.888H42.9281V45.512H44.9281ZM44.9281 40.888C44.9281 40.9289 44.9211 40.9923 44.8921 41.0657C44.8625 41.1406 44.8187 41.2037 44.7712 41.2511L43.357 39.8369C43.0626 40.1313 42.9281 40.508 42.9281 40.888H44.9281ZM44.7712 41.2511C44.7321 41.2903 44.6755 41.3318 44.6028 41.3615C44.5304 41.3911 44.4644 41.4 44.4161 41.4V39.4C44.0186 39.4 43.645 39.5489 43.357 39.8369L44.7712 41.2511ZM44.4161 41.4H46.3281V39.4H44.4161V41.4ZM46.2481 46.08C46.7575 46.08 47.2684 45.9476 47.6968 45.6049L46.4474 44.0431C46.4434 44.0464 46.4339 44.0534 46.4094 44.061C46.3827 44.0693 46.332 44.08 46.2481 44.08V46.08ZM47.7085 45.5954C48.0765 45.2918 48.3322 44.9016 48.483 44.4576L46.5892 43.8144C46.548 43.9357 46.4944 44.0042 46.4357 44.0526L47.7085 45.5954ZM48.4794 44.4679C48.6219 44.0631 48.6881 43.6377 48.6881 43.2H46.6881C46.6881 43.4343 46.653 43.6329 46.5928 43.8041L48.4794 44.4679ZM48.6881 43.2C48.6881 42.8708 48.6495 42.5479 48.5675 42.2346L46.6328 42.7414C46.6681 42.8761 46.6881 43.0278 46.6881 43.2H48.6881ZM48.5741 42.2615C48.4963 41.927 48.3653 41.6082 48.1682 41.3215L46.5201 42.4545C46.5576 42.5091 46.5972 42.5904 46.6261 42.7145L48.5741 42.2615ZM48.1762 41.3333C47.9726 41.0279 47.7062 40.7792 47.3839 40.5991L46.4083 42.3449C46.4487 42.3675 46.481 42.3961 46.5121 42.4427L48.1762 41.3333ZM47.3839 40.5991C47.0256 40.3988 46.6344 40.32 46.2481 40.32V42.32C46.3632 42.32 46.404 42.3426 46.4083 42.3449L47.3839 40.5991ZM46.2481 40.32H44.8481V42.32H46.2481V40.32ZM45.5171 42.0633L45.5971 41.9913L44.2592 40.5047L44.1792 40.5767L45.5171 42.0633ZM43.9281 41.248V45.168H45.9281V41.248H43.9281ZM45.806 44.6891L45.758 44.6011L44.0022 45.5589L44.0502 45.6469L45.806 44.6891ZM44.8801 46.08H46.2481V44.08H44.8801V46.08ZM12.3337 55.864L11.6066 56.5506L11.6263 56.5714L11.647 56.591L12.3337 55.864ZM12.3337 50.544L11.6265 49.8369L11.6265 49.8369L12.3337 50.544ZM15.6297 50.536L14.9225 51.2431L14.9433 51.2639L14.9653 51.2834L15.6297 50.536ZM15.6297 51.184L14.943 50.457L14.9326 50.4668L14.9225 50.4769L15.6297 51.184ZM13.1257 51.32L12.3257 50.72L11.1257 52.32H13.1257V51.32ZM13.1977 51.224H14.1977V48.224L12.3977 50.624L13.1977 51.224ZM13.1977 52.832L12.3172 53.3061L14.1977 52.832H13.1977ZM13.1417 52.728V51.728H11.4674L12.2612 53.2021L13.1417 52.728ZM15.2697 52.864L14.5625 53.5711L14.5833 53.5919L14.6053 53.6114L15.2697 52.864ZM15.2697 53.512L14.583 52.785L14.5726 52.7948L14.5625 52.8049L15.2697 53.512ZM13.1257 53.648L12.4185 52.9409L10.7114 54.648H13.1257V53.648ZM13.1977 53.576H14.1977V51.1618L12.4905 52.8689L13.1977 53.576ZM13.0457 55.864L13.7323 56.591L13.7334 56.59L13.0457 55.864ZM12.7017 55C12.7287 55 12.7801 55.0043 12.8443 55.028C12.9106 55.0525 12.9713 55.0907 13.0203 55.137L11.647 56.591C11.9534 56.8803 12.3331 57 12.7017 57V55ZM13.0607 55.1774C13.0999 55.219 13.138 55.2752 13.1645 55.3436C13.1905 55.4111 13.1977 55.4707 13.1977 55.512H11.1977C11.1977 55.8919 11.3312 56.259 11.6066 56.5506L13.0607 55.1774ZM13.1977 55.512V50.888H11.1977V55.512H13.1977ZM13.1977 50.888C13.1977 50.9289 13.1906 50.9923 13.1616 51.0657C13.132 51.1406 13.0882 51.2037 13.0408 51.2511L11.6265 49.8369C11.3321 50.1313 11.1977 50.508 11.1977 50.888H13.1977ZM13.0408 51.2511C13.0016 51.2903 12.9451 51.3318 12.8723 51.3615C12.7999 51.3911 12.7339 51.4 12.6857 51.4V49.4C12.2881 49.4 11.9145 49.5489 11.6265 49.8369L13.0408 51.2511ZM12.6857 51.4H15.2857V49.4H12.6857V51.4ZM15.2857 51.4C15.2447 51.4 15.1814 51.393 15.108 51.364C15.033 51.3343 14.97 51.2905 14.9225 51.2431L16.3368 49.8289C16.0423 49.5345 15.6657 49.4 15.2857 49.4V51.4ZM14.9653 51.2834C14.9095 51.2338 14.8555 51.1643 14.8185 51.0779C14.7823 50.9934 14.7737 50.9195 14.7737 50.872H16.7737C16.7737 50.4733 16.6219 50.0801 16.294 49.7886L14.9653 51.2834ZM14.7737 50.872C14.7737 50.7896 14.7916 50.7016 14.8297 50.6189C14.8667 50.5388 14.9123 50.486 14.943 50.457L16.3163 51.911C16.5847 51.6575 16.7737 51.3003 16.7737 50.872H14.7737ZM14.9225 50.4769C14.97 50.4295 15.033 50.3857 15.108 50.356C15.1814 50.327 15.2447 50.32 15.2857 50.32V52.32C15.6657 52.32 16.0423 52.1855 16.3368 51.8911L14.9225 50.4769ZM15.2857 50.32H13.1257V52.32H15.2857V50.32ZM13.9257 51.92L13.9977 51.824L12.3977 50.624L12.3257 50.72L13.9257 51.92ZM12.1977 51.224V52.832H14.1977V51.224H12.1977ZM14.0781 52.3579L14.0221 52.2539L12.2612 53.2021L12.3172 53.3061L14.0781 52.3579ZM13.1417 53.728H14.9257V51.728H13.1417V53.728ZM14.9257 53.728C14.8847 53.728 14.8214 53.721 14.748 53.692C14.673 53.6623 14.61 53.6185 14.5625 53.5711L15.9768 52.1569C15.6823 51.8625 15.3057 51.728 14.9257 51.728V53.728ZM14.6053 53.6114C14.5495 53.5618 14.4955 53.4923 14.4585 53.4059C14.4223 53.3214 14.4137 53.2475 14.4137 53.2H16.4137C16.4137 52.8013 16.2619 52.4081 15.934 52.1166L14.6053 53.6114ZM14.4137 53.2C14.4137 53.1176 14.4316 53.0296 14.4697 52.9469C14.5067 52.8668 14.5523 52.814 14.583 52.785L15.9563 54.239C16.2247 53.9855 16.4137 53.6283 16.4137 53.2H14.4137ZM14.5625 52.8049C14.61 52.7575 14.673 52.7137 14.748 52.684C14.8214 52.655 14.8847 52.648 14.9257 52.648V54.648C15.3057 54.648 15.6823 54.5135 15.9768 54.2191L14.5625 52.8049ZM14.9257 52.648H13.1257V54.648H14.9257V52.648ZM13.8328 54.3551L13.9048 54.2831L12.4905 52.8689L12.4185 52.9409L13.8328 54.3551ZM12.1977 53.576V55.512H14.1977V53.576H12.1977ZM12.1977 55.512C12.1977 55.4567 12.2084 55.3844 12.2416 55.3076C12.2747 55.2309 12.3194 55.1745 12.3579 55.138L13.7334 56.59C14.0326 56.3065 14.1977 55.9273 14.1977 55.512H12.1977ZM12.359 55.137C12.3969 55.1013 12.4509 55.0634 12.52 55.036C12.5889 55.0088 12.6528 55 12.7017 55V57C13.0876 57 13.4486 56.8589 13.7323 56.591L12.359 55.137ZM20.2018 50.536L19.4947 51.2431L19.5155 51.2639L19.5375 51.2834L20.2018 50.536ZM20.2018 51.2L20.8635 51.9498L20.8662 51.9474L20.2018 51.2ZM17.6178 51.32L16.7341 50.8521L15.9569 52.32H17.6178V51.32ZM17.6898 51.184H18.6898L16.8061 50.7161L17.6898 51.184ZM17.6898 52.744L16.9827 53.4511L18.6898 55.1582V52.744H17.6898ZM17.6258 52.68V51.68H15.2116L16.9187 53.3871L17.6258 52.68ZM19.8418 52.816L19.1347 53.5231L19.1555 53.5439L19.1775 53.5634L19.8418 52.816ZM19.8418 53.48L20.5035 54.2298L20.5062 54.2274L19.8418 53.48ZM17.6498 53.6L16.8018 53.07L15.8456 54.6H17.6498V53.6ZM17.6898 53.536H18.6898V50.0492L16.8418 53.006L17.6898 53.536ZM17.6898 55.152L16.9424 55.8164L18.6898 57.7822V55.152H17.6898ZM17.6258 55.08V54.08H15.399L16.8784 55.7444L17.6258 55.08ZM20.2018 55.224L19.4748 55.9106L19.4944 55.9314L19.5152 55.951L20.2018 55.224ZM20.2018 55.872L19.5375 55.1246L19.5268 55.134L19.5165 55.1438L20.2018 55.872ZM16.8258 55.864L16.0988 56.5506L16.1184 56.5714L16.1392 56.591L16.8258 55.864ZM16.8258 50.544L16.1187 49.8369L16.1187 49.8369L16.8258 50.544ZM17.1778 51.4H19.8578V49.4H17.1778V51.4ZM19.8578 51.4C19.8169 51.4 19.7536 51.393 19.6802 51.364C19.6052 51.3343 19.5422 51.2905 19.4947 51.2431L20.909 49.8289C20.6145 49.5345 20.2379 49.4 19.8578 49.4V51.4ZM19.5375 51.2834C19.4817 51.2338 19.4277 51.1643 19.3907 51.0779C19.3545 50.9934 19.3458 50.9195 19.3458 50.872H21.3458C21.3458 50.4733 21.1941 50.0801 20.8662 49.7886L19.5375 51.2834ZM19.3458 50.872C19.3458 50.8165 19.3564 50.7381 19.3942 50.652C19.4324 50.565 19.4861 50.4983 19.5375 50.4526L20.8662 51.9474C21.1848 51.6642 21.3458 51.2786 21.3458 50.872H19.3458ZM19.5402 50.4502C19.5924 50.4041 19.6541 50.3683 19.7185 50.3458C19.7809 50.324 19.8307 50.32 19.8578 50.32V52.32C20.2021 52.32 20.5634 52.2146 20.8635 51.9498L19.5402 50.4502ZM19.8578 50.32H17.6178V52.32H19.8578V50.32ZM18.5016 51.7879L18.5736 51.6519L16.8061 50.7161L16.7341 50.8521L18.5016 51.7879ZM16.6898 51.184V52.744H18.6898V51.184H16.6898ZM18.397 52.0369L18.333 51.9729L16.9187 53.3871L16.9827 53.4511L18.397 52.0369ZM17.6258 53.68H19.4978V51.68H17.6258V53.68ZM19.4978 53.68C19.4569 53.68 19.3936 53.673 19.3202 53.644C19.2452 53.6143 19.1822 53.5705 19.1347 53.5231L20.549 52.1089C20.2545 51.8145 19.8779 51.68 19.4978 51.68V53.68ZM19.1775 53.5634C19.1217 53.5138 19.0677 53.4443 19.0307 53.3579C18.9945 53.2734 18.9858 53.1995 18.9858 53.152H20.9858C20.9858 52.7533 20.8341 52.3601 20.5062 52.0686L19.1775 53.5634ZM18.9858 53.152C18.9858 53.0965 18.9964 53.0181 19.0342 52.932C19.0724 52.845 19.1261 52.7783 19.1775 52.7326L20.5062 54.2274C20.8248 53.9442 20.9858 53.5586 20.9858 53.152H18.9858ZM19.1802 52.7302C19.2324 52.6841 19.2941 52.6483 19.3585 52.6258C19.4209 52.604 19.4707 52.6 19.4978 52.6V54.6C19.8421 54.6 20.2034 54.4946 20.5035 54.2298L19.1802 52.7302ZM19.4978 52.6H17.6498V54.6H19.4978V52.6ZM18.4978 54.13L18.5378 54.066L16.8418 53.006L16.8018 53.07L18.4978 54.13ZM16.6898 53.536V55.152H18.6898V53.536H16.6898ZM18.4373 54.4876L18.3733 54.4156L16.8784 55.7444L16.9424 55.8164L18.4373 54.4876ZM17.6258 56.08H19.8578V54.08H17.6258V56.08ZM19.8578 56.08C19.8099 56.08 19.7401 56.0712 19.6617 56.0384C19.5823 56.0052 19.5193 55.9577 19.4748 55.9106L20.9289 54.5374C20.6389 54.2304 20.2561 54.08 19.8578 54.08V56.08ZM19.5152 55.951C19.4803 55.9181 19.4341 55.8627 19.3979 55.7824C19.361 55.7004 19.3458 55.6171 19.3458 55.544H21.3458C21.3458 55.1236 21.1674 54.7604 20.8885 54.497L19.5152 55.951ZM19.3458 55.544C19.3458 55.4885 19.3564 55.4101 19.3942 55.324C19.4324 55.237 19.4861 55.1703 19.5375 55.1246L20.8662 56.6194C21.1848 56.3362 21.3458 55.9506 21.3458 55.544H19.3458ZM19.5165 55.1438C19.5665 55.0967 19.6292 55.0568 19.6991 55.0308C19.7672 55.0054 19.8238 55 19.8578 55V57C20.2198 57 20.5894 56.8805 20.8872 56.6002L19.5165 55.1438ZM19.8578 55H17.1778V57H19.8578V55ZM17.1778 55C17.2191 55 17.2787 55.0071 17.3462 55.0332C17.4146 55.0596 17.4709 55.0977 17.5125 55.137L16.1392 56.591C16.4309 56.8665 16.798 57 17.1778 57V55ZM17.5529 55.1774C17.5921 55.219 17.6302 55.2752 17.6566 55.3436C17.6827 55.4111 17.6898 55.4707 17.6898 55.512H15.6898C15.6898 55.8919 15.8234 56.259 16.0988 56.5506L17.5529 55.1774ZM17.6898 55.512V50.888H15.6898V55.512H17.6898ZM17.6898 50.888C17.6898 50.9289 17.6828 50.9923 17.6538 51.0657C17.6242 51.1406 17.5804 51.2037 17.533 51.2511L16.1187 49.8369C15.8243 50.1313 15.6898 50.508 15.6898 50.888H17.6898ZM17.533 51.2511C17.4938 51.2903 17.4372 51.3318 17.3645 51.3615C17.2921 51.3911 17.2261 51.4 17.1778 51.4V49.4C16.7803 49.4 16.4067 49.5489 16.1187 49.8369L17.533 51.2511ZM22.06 55.944L21.754 56.896L21.7617 56.8985L21.7695 56.9009L22.06 55.944ZM21.204 55.448L21.8572 54.6908L21.8499 54.6846L21.204 55.448ZM21.116 54.704L20.389 54.0174L20.3878 54.0186L21.116 54.704ZM21.724 54.656L22.3561 53.8811L22.3487 53.8751L21.724 54.656ZM22.324 55.032L21.927 55.9499L21.9359 55.9536L22.324 55.032ZM23.612 55.072L23.9464 56.0144L23.9597 56.0097L23.973 56.0046L23.612 55.072ZM24.012 54.824L24.7191 55.5311L24.7281 55.522L24.737 55.5127L24.012 54.824ZM24.02 54.056L24.7792 53.4052L24.7792 53.4052L24.02 54.056ZM23.58 53.776L23.2043 54.7027L23.2151 54.7071L23.2261 54.7113L23.58 53.776ZM22.828 53.592L22.6814 54.5812L22.689 54.5823L22.828 53.592ZM22.068 53.4L21.685 54.3237L21.6946 54.3278L21.7044 54.3316L22.068 53.4ZM21.516 53.064L20.8223 53.7843L20.8359 53.7974L20.85 53.8099L21.516 53.064ZM21.188 52.584L20.2594 52.9554L20.2633 52.9647L21.188 52.584ZM21.34 51.072L20.5358 50.4776L20.5316 50.4833L20.5274 50.4891L21.34 51.072ZM22.068 50.512L22.456 51.4336L22.456 51.4336L22.068 50.512ZM24.036 50.48L23.6942 51.4198L23.7044 51.4235L23.7147 51.427L24.036 50.48ZM24.764 50.872L24.1132 51.6313L24.1276 51.6437L24.1426 51.6555L24.764 50.872ZM24.86 51.616L25.587 52.3026L25.587 52.3026L24.86 51.616ZM24.324 51.688L23.6655 52.4406L23.6938 52.4654L23.724 52.488L24.324 51.688ZM23.98 51.48L23.5462 52.381L23.5599 52.3876L23.5738 52.3938L23.98 51.48ZM23.524 51.312L23.2366 52.2698L23.2514 52.2743L23.2663 52.2782L23.524 51.312ZM22.492 51.328L22.1477 50.3891L22.1373 50.393L22.492 51.328ZM22.156 52.32L21.394 52.9676L21.4115 52.9882L21.43 53.0077L22.156 52.32ZM22.564 52.568L22.2222 53.5078L22.2349 53.5124L22.2477 53.5167L22.564 52.568ZM23.196 52.728L23.0039 53.7095L23.0156 53.7116L23.196 52.728ZM24.036 52.936L23.7197 53.8847L23.7259 53.8867L24.036 52.936ZM24.644 53.248L24.0193 54.0289L24.0273 54.0353L24.0355 54.0416L24.644 53.248ZM25.004 53.72L24.0808 54.1046L24.0848 54.1139L25.004 53.72ZM24.836 55.304L24.0421 54.6959L24.0421 54.6959L24.836 55.304ZM24.076 55.88L23.6858 54.9592L23.6801 54.9617L24.076 55.88ZM23.068 55.08C22.7744 55.08 22.5386 55.0442 22.3505 54.9871L21.7695 56.9009C22.1787 57.0251 22.6149 57.08 23.068 57.08V55.08ZM22.366 54.992C22.2121 54.9425 22.0423 54.8506 21.8572 54.6908L20.5507 56.2052C20.9096 56.5148 21.3105 56.7535 21.754 56.896L22.366 54.992ZM21.8499 54.6846C21.8748 54.7057 21.91 54.744 21.9384 54.8008L20.1495 55.6952C20.2526 55.9013 20.3945 56.073 20.558 56.2114L21.8499 54.6846ZM21.9384 54.8008C21.9622 54.8484 21.988 54.9259 21.988 55.024H19.988C19.988 55.2714 20.0511 55.4983 20.1495 55.6952L21.9384 54.8008ZM21.988 55.024C21.988 55.0812 21.9775 55.1508 21.9484 55.2234C21.9195 55.2957 21.8801 55.3512 21.8442 55.3894L20.3878 54.0186C20.1308 54.2917 19.988 54.6424 19.988 55.024H21.988ZM21.843 55.3906C21.8023 55.4337 21.7419 55.4809 21.6619 55.5151C21.5821 55.5493 21.5079 55.56 21.452 55.56V53.56C21.0465 53.56 20.6706 53.7192 20.389 54.0174L21.843 55.3906ZM21.452 55.56C21.3954 55.56 21.3304 55.5507 21.2631 55.527C21.1961 55.5033 21.141 55.4703 21.0993 55.4369L22.3487 53.8751C22.0935 53.671 21.7831 53.56 21.452 53.56V55.56ZM21.0918 55.4309C21.3511 55.6424 21.6291 55.821 21.9271 55.9499L22.7209 54.1141C22.6241 54.0723 22.5022 54.0003 22.3561 53.8811L21.0918 55.4309ZM21.9359 55.9536C22.295 56.1048 22.6835 56.16 23.068 56.16V54.16C22.8658 54.16 22.7582 54.1298 22.712 54.1104L21.9359 55.9536ZM23.068 56.16C23.3652 56.16 23.6612 56.1156 23.9464 56.0144L23.2776 54.1296C23.2321 54.1457 23.1655 54.16 23.068 54.16V56.16ZM23.973 56.0046C24.2382 55.9019 24.4989 55.7513 24.7191 55.5311L23.3049 54.1169C23.3224 54.0994 23.3164 54.1141 23.251 54.1394L23.973 56.0046ZM24.737 55.5127C24.995 55.2412 25.164 54.8812 25.164 54.464H23.164C23.164 54.4003 23.1768 54.3311 23.2047 54.265C23.2319 54.2007 23.2654 54.158 23.287 54.1353L24.737 55.5127ZM25.164 54.464C25.164 54.0871 25.0442 53.7143 24.7792 53.4052L23.2607 54.7068C23.2302 54.6712 23.203 54.6259 23.185 54.5748C23.1674 54.5249 23.164 54.485 23.164 54.464H25.164ZM24.7792 53.4052C24.5372 53.1228 24.2247 52.9508 23.9339 52.8407L23.2261 54.7113C23.2494 54.7201 23.267 54.7279 23.2796 54.7341C23.2923 54.7402 23.299 54.7443 23.3011 54.7457C23.3056 54.7485 23.2872 54.7377 23.2607 54.7068L24.7792 53.4052ZM23.9557 52.8493C23.6571 52.7282 23.3198 52.6512 22.967 52.6017L22.689 54.5823C22.9442 54.6181 23.1082 54.6638 23.2043 54.7027L23.9557 52.8493ZM22.9745 52.6028C22.7438 52.5686 22.5659 52.5209 22.4315 52.4684L21.7044 54.3316C22.0074 54.4498 22.3361 54.53 22.6814 54.5812L22.9745 52.6028ZM22.451 52.4763C22.3175 52.4209 22.2339 52.3644 22.182 52.3181L20.85 53.8099C21.0967 54.0302 21.3811 54.1977 21.685 54.3237L22.451 52.4763ZM22.2096 52.3437C22.1633 52.2991 22.1336 52.2541 22.1126 52.2033L20.2633 52.9647C20.3917 53.2766 20.5806 53.5516 20.8223 53.7843L22.2096 52.3437ZM22.1164 52.2126C22.0952 52.1595 22.076 52.0799 22.076 51.96H20.076C20.076 52.2988 20.1314 52.6352 20.2595 52.9554L22.1164 52.2126ZM22.076 51.96C22.076 51.7903 22.1159 51.706 22.1525 51.6549L20.5274 50.4891C20.2121 50.9287 20.076 51.4363 20.076 51.96H22.076ZM22.1441 51.6664C22.2101 51.5772 22.3037 51.4978 22.456 51.4336L21.6799 49.5904C21.2242 49.7822 20.8325 50.0761 20.5358 50.4776L22.1441 51.6664ZM22.456 51.4336C22.6237 51.363 22.8258 51.32 23.076 51.32V49.32C22.5901 49.32 22.1202 49.405 21.6799 49.5904L22.456 51.4336ZM23.076 51.32C23.3189 51.32 23.5219 51.3571 23.6942 51.4198L24.3777 49.5402C23.9634 49.3895 23.5264 49.32 23.076 49.32V51.32ZM23.7147 51.427C23.9252 51.4984 24.0465 51.5741 24.1132 51.6313L25.4148 50.1127C25.1081 49.8499 24.7441 49.6643 24.3573 49.533L23.7147 51.427ZM24.1426 51.6555C24.1381 51.652 24.0989 51.6198 24.0607 51.55C24.0194 51.4746 23.996 51.385 23.996 51.296H25.996C25.996 50.7599 25.7175 50.352 25.3854 50.0885L24.1426 51.6555ZM23.996 51.296C23.996 51.222 24.0111 51.1448 24.0416 51.0729C24.0714 51.0029 24.108 50.9557 24.133 50.9294L25.587 52.3026C25.8292 52.0462 25.996 51.7013 25.996 51.296H23.996ZM24.133 50.9294C24.1659 50.8945 24.2213 50.8482 24.3016 50.8121C24.3836 50.7752 24.4669 50.76 24.54 50.76V52.76C24.9604 52.76 25.3235 52.5816 25.587 52.3026L24.133 50.9294ZM24.54 50.76C24.6016 50.76 24.6708 50.7695 24.7422 50.7933C24.8136 50.8171 24.8747 50.851 24.924 50.888L23.724 52.488C23.9611 52.6658 24.2436 52.76 24.54 52.76V50.76ZM24.9825 50.9354C24.7986 50.7745 24.5889 50.6563 24.3861 50.5662L23.5738 52.3938C23.614 52.4117 23.6406 52.4261 23.6565 52.4357C23.6727 52.4455 23.6738 52.4479 23.6655 52.4406L24.9825 50.9354ZM24.4138 50.579C24.2112 50.4815 24.0001 50.404 23.7816 50.3458L23.2663 52.2782C23.3679 52.3053 23.4607 52.3399 23.5462 52.381L24.4138 50.579ZM23.8113 50.3542C23.5765 50.2837 23.3295 50.24 23.076 50.24V52.24C23.0998 52.24 23.1514 52.2443 23.2366 52.2698L23.8113 50.3542ZM23.076 50.24C22.7672 50.24 22.4488 50.2787 22.1477 50.3891L22.8362 52.2669C22.8551 52.2599 22.9261 52.24 23.076 52.24V50.24ZM22.1373 50.393C21.8602 50.4981 21.5747 50.6701 21.3551 50.9484L22.9249 52.1876C22.8652 52.2632 22.8144 52.2752 22.8466 52.263L22.1373 50.393ZM21.3551 50.9484C21.1309 51.2323 21.02 51.5698 21.02 51.92H23.02C23.02 51.9548 23.0145 52.0019 22.9965 52.0547C22.9783 52.1079 22.9522 52.153 22.9249 52.1876L21.3551 50.9484ZM21.02 51.92C21.02 52.2813 21.1279 52.6545 21.394 52.9676L22.9179 51.6724C22.9546 51.7156 22.9831 51.7662 23.0007 51.8181C23.0178 51.8681 23.02 51.9052 23.02 51.92H21.02ZM21.43 53.0077C21.6629 53.2535 21.9479 53.408 22.2222 53.5078L22.9057 51.6282C22.8691 51.6149 22.8523 51.6052 22.8494 51.6035C22.8469 51.602 22.8609 51.6101 22.8819 51.6323L21.43 53.0077ZM22.2477 53.5167C22.4756 53.5926 22.73 53.6558 23.004 53.7094L23.388 51.7466C23.1713 51.7042 23.0044 51.6607 22.8802 51.6193L22.2477 53.5167ZM23.0156 53.7116C23.3019 53.7641 23.5346 53.823 23.7197 53.8847L24.3522 51.9873C24.0573 51.889 23.7301 51.8093 23.3763 51.7444L23.0156 53.7116ZM23.7259 53.8867C23.8855 53.9387 23.9739 53.9926 24.0193 54.0289L25.2687 52.4671C24.994 52.2474 24.6772 52.0933 24.346 51.9853L23.7259 53.8867ZM24.0355 54.0416C24.0522 54.0543 24.066 54.0688 24.0809 54.1046L25.927 53.3354C25.782 52.9872 25.5558 52.687 25.2524 52.4544L24.0355 54.0416ZM24.0848 54.1139C24.0967 54.1416 24.124 54.228 24.124 54.408H26.124C26.124 54.044 26.0713 53.6718 25.9231 53.3261L24.0848 54.1139ZM24.124 54.408C24.124 54.5576 24.0872 54.637 24.0421 54.6959L25.6298 55.9121C25.9688 55.4696 26.124 54.9517 26.124 54.408H24.124ZM24.0421 54.6959C23.9639 54.798 23.8546 54.8877 23.6858 54.9592L24.4661 56.8008C24.9266 56.6056 25.324 56.3114 25.6298 55.9121L24.0421 54.6959ZM23.6801 54.9617C23.5052 55.0371 23.3051 55.08 23.068 55.08V57.08C23.5562 57.08 24.0281 56.9896 24.4718 56.7983L23.6801 54.9617ZM27.5694 55.864L26.8623 56.5711L26.8724 56.5812L26.8828 56.591L27.5694 55.864ZM27.4254 50.872V49.872H26.4254V50.872H27.4254ZM28.4654 50.872H29.4654V49.872H28.4654V50.872ZM28.3134 55.864L29 56.591L29.0012 56.59L28.3134 55.864ZM25.8174 51.192L25.132 51.9202L25.1424 51.93L25.153 51.9394L25.8174 51.192ZM25.8174 50.528L26.479 51.2778L26.4818 51.2754L25.8174 50.528ZM30.0654 50.528L29.38 51.2562L29.3904 51.266L29.401 51.2754L30.0654 50.528ZM30.0654 51.2L30.727 51.9498L30.7298 51.9474L30.0654 51.2ZM27.9374 55C27.9645 55 28.0159 55.0043 28.0801 55.028C28.1464 55.0525 28.2071 55.0907 28.256 55.137L26.8828 56.591C27.1891 56.8803 27.5689 57 27.9374 57V55ZM28.2765 55.1569C28.3157 55.1961 28.3572 55.2526 28.387 55.3254C28.4165 55.3977 28.4254 55.4637 28.4254 55.512H26.4254C26.4254 55.9095 26.5743 56.2831 26.8623 56.5711L28.2765 55.1569ZM28.4254 55.512V50.872H26.4254V55.512H28.4254ZM27.4254 51.872H28.4654V49.872H27.4254V51.872ZM27.4654 50.872V55.512H29.4654V50.872H27.4654ZM27.4654 55.512C27.4654 55.4567 27.4762 55.3844 27.5093 55.3076C27.5425 55.2309 27.5872 55.1745 27.6257 55.138L29.0012 56.59C29.3003 56.3065 29.4654 55.9273 29.4654 55.512H27.4654ZM27.6268 55.137C27.6794 55.0873 27.7423 55.0491 27.8073 55.0256C27.8696 55.0031 27.917 55 27.9374 55V57C28.3006 57 28.687 56.8867 29 56.591L27.6268 55.137ZM26.1694 50.32C26.2038 50.32 26.2568 50.3255 26.3191 50.3482C26.3826 50.3713 26.4381 50.4058 26.4818 50.4446L25.153 51.9394C25.4473 52.201 25.807 52.32 26.1694 52.32V50.32ZM26.5028 50.4638C26.5592 50.5169 26.6092 50.587 26.6424 50.6688C26.6745 50.7483 26.6814 50.8155 26.6814 50.856H24.6814C24.6814 51.2357 24.8167 51.6234 25.132 51.9202L26.5028 50.4638ZM26.6814 50.856C26.6814 50.8959 26.6747 50.9673 26.6391 51.053C26.6022 51.1421 26.5453 51.2194 26.479 51.2778L25.1558 49.7782C24.8173 50.0768 24.6814 50.4771 24.6814 50.856H26.6814ZM26.4818 51.2754C26.4381 51.3142 26.3826 51.3487 26.3191 51.3718C26.2568 51.3945 26.2038 51.4 26.1694 51.4V49.4C25.807 49.4 25.4473 49.519 25.153 49.7806L26.4818 51.2754ZM26.1694 51.4H29.7214V49.4H26.1694V51.4ZM29.7214 51.4C29.6874 51.4 29.6308 51.3946 29.5627 51.3692C29.4927 51.3432 29.4301 51.3033 29.38 51.2562L30.7508 49.7998C30.4529 49.5195 30.0834 49.4 29.7214 49.4V51.4ZM29.401 51.2754C29.3452 51.2258 29.2913 51.1563 29.2543 51.0699C29.218 50.9854 29.2094 50.9115 29.2094 50.864H31.2094C31.2094 50.4653 31.0577 50.0721 30.7298 49.7806L29.401 51.2754ZM29.2094 50.864C29.2094 50.8165 29.218 50.7426 29.2543 50.6581C29.2913 50.5717 29.3452 50.5022 29.401 50.4526L30.7298 51.9474C31.0577 51.6559 31.2094 51.2627 31.2094 50.864H29.2094ZM29.4038 50.4502C29.456 50.4041 29.5176 50.3683 29.582 50.3458C29.6444 50.324 29.6943 50.32 29.7214 50.32V52.32C30.0656 52.32 30.427 52.2146 30.727 51.9498L29.4038 50.4502ZM29.7214 50.32H26.1694V52.32H29.7214V50.32ZM31.8972 55.864L32.564 56.6092L32.5746 56.5997L32.585 56.59L31.8972 55.864ZM31.1852 55.864L30.4582 56.5506L30.468 56.561L30.4781 56.5711L31.1852 55.864ZM31.1932 50.544L31.8798 51.271L31.8902 51.2612L31.9003 51.2511L31.1932 50.544ZM31.8972 50.544L31.1901 51.2511L31.2097 51.2707L31.2304 51.2892L31.8972 50.544ZM31.0492 55.512C31.0492 55.4567 31.06 55.3844 31.0932 55.3076C31.1263 55.2309 31.171 55.1745 31.2095 55.138L32.585 56.59C32.8841 56.3065 33.0492 55.9273 33.0492 55.512H31.0492ZM31.2304 55.1188C31.2624 55.0901 31.3101 55.0574 31.3728 55.0332C31.4359 55.0088 31.4961 55 31.5452 55V57C31.9299 57 32.2833 56.8604 32.564 56.6092L31.2304 55.1188ZM31.5452 55C31.5718 55 31.6268 55.0041 31.6966 55.0305C31.7693 55.058 31.8373 55.1018 31.8923 55.1569L30.4781 56.5711C30.7872 56.8802 31.1778 57 31.5452 57V55ZM31.9122 55.1774C31.9515 55.219 31.9896 55.2752 32.016 55.3436C32.0421 55.4111 32.0492 55.4707 32.0492 55.512H30.0492C30.0492 55.8919 30.1828 56.259 30.4582 56.5506L31.9122 55.1774ZM32.0492 55.512V50.888H30.0492V55.512H32.0492ZM32.0492 50.888C32.0492 50.9359 32.0405 51.0058 32.0077 51.0841C31.9744 51.1636 31.927 51.2265 31.8798 51.271L30.5066 49.817C30.1996 50.1069 30.0492 50.4897 30.0492 50.888H32.0492ZM31.9003 51.2511C31.8538 51.2976 31.7927 51.3394 31.7216 51.3672C31.6524 51.3943 31.5947 51.4 31.5612 51.4V49.4C31.1758 49.4 30.7893 49.5337 30.4861 49.8369L31.9003 51.2511ZM31.5612 51.4C31.4968 51.4 31.422 51.3872 31.3473 51.3551C31.2737 51.3236 31.2218 51.2828 31.1901 51.2511L32.6043 49.8369C32.3334 49.566 31.9718 49.4 31.5612 49.4V51.4ZM31.2304 51.2892C31.1842 51.2479 31.1334 51.1856 31.0965 51.1022C31.0599 51.0193 31.0492 50.943 31.0492 50.888H33.0492C33.0492 50.4713 32.8821 50.0834 32.564 49.7988L31.2304 51.2892ZM31.0492 50.888V55.512H33.0492V50.888H31.0492ZM37.6843 50.52L36.9977 51.247L37.0184 51.2666L37.0402 51.2849L37.6843 50.52ZM37.7883 51.064L36.8692 50.6701L36.8688 50.671L37.7883 51.064ZM35.8123 55.688L36.7243 56.0984L36.7282 56.0897L36.7319 56.081L35.8123 55.688ZM35.6043 55.928L36.0946 56.7996L36.103 56.7948L36.1114 56.7899L35.6043 55.928ZM35.3403 56L35.278 56.9981L35.3091 57H35.3403V56ZM35.0923 55.92L34.5376 56.7521L34.5574 56.7652L34.5778 56.7775L35.0923 55.92ZM34.9083 55.696L33.9883 56.0878L33.9914 56.095L33.9945 56.1021L34.9083 55.696ZM32.9323 51.056L33.8524 50.6642L33.8404 50.6361L33.8268 50.6088L32.9323 51.056ZM32.9003 50.96L31.9104 51.1014L31.912 51.1129L31.9139 51.1244L32.9003 50.96ZM33.0603 50.504L33.6416 51.3177L33.6541 51.3088L33.6664 51.2994L33.0603 50.504ZM33.8203 50.688L34.7406 50.2967L34.737 50.2884L33.8203 50.688ZM35.5723 54.808L35.6009 55.8076L37.0663 55.7657L36.4926 54.4167L35.5723 54.808ZM35.2923 54.816L34.3605 54.453L33.813 55.8587L35.3209 55.8156L35.2923 54.816ZM36.9003 50.688L35.9875 50.2796L35.9775 50.3021L35.9685 50.325L36.9003 50.688ZM37.3403 51.384C37.2914 51.384 37.2276 51.3752 37.1587 51.348C37.0896 51.3206 37.0356 51.2827 36.9977 51.247L38.371 49.793C38.0873 49.5251 37.7262 49.384 37.3403 49.384V51.384ZM37.0402 51.2849C36.9903 51.2428 36.9331 51.1772 36.891 51.0865C36.8491 50.9959 36.8363 50.911 36.8363 50.848H38.8363C38.8363 50.4219 38.6571 50.0318 38.3285 49.7551L37.0402 51.2849ZM36.8363 50.848C36.8363 50.7607 36.8569 50.6988 36.8692 50.6701L38.7075 51.4579C38.7838 51.2799 38.8363 51.074 38.8363 50.848H36.8363ZM36.8688 50.671L34.8928 55.295L36.7319 56.081L38.7079 51.457L36.8688 50.671ZM34.9004 55.2776C34.9122 55.2515 34.9333 55.2138 34.9687 55.1731C35.0046 55.1316 35.0485 55.0948 35.0973 55.0661L36.1114 56.7899C36.4003 56.62 36.6012 56.3717 36.7243 56.0984L34.9004 55.2776ZM35.1141 55.0564C35.1661 55.0272 35.2457 55 35.3403 55V57C35.6163 57 35.8719 56.9248 36.0946 56.7996L35.1141 55.0564ZM35.4027 55.0019C35.4914 55.0075 35.5623 55.0358 35.6068 55.0625L34.5778 56.7775C34.7824 56.9002 35.0186 56.9818 35.278 56.9981L35.4027 55.0019ZM35.647 55.0879C35.7392 55.1494 35.7953 55.2294 35.8222 55.2899L33.9945 56.1021C34.1067 56.3546 34.2855 56.584 34.5376 56.7521L35.647 55.0879ZM35.8284 55.3042L33.8524 50.6642L32.0123 51.4478L33.9883 56.0878L35.8284 55.3042ZM33.8268 50.6088C33.8508 50.6569 33.8741 50.7197 33.8867 50.7956L31.9139 51.1244C31.9373 51.2643 31.9819 51.3911 32.0379 51.5032L33.8268 50.6088ZM33.8903 50.8186C33.8905 50.8201 33.8923 50.8332 33.8923 50.856H31.8923C31.8923 50.9428 31.8995 51.0253 31.9104 51.1014L33.8903 50.8186ZM33.8923 50.856C33.8923 50.8998 33.8841 50.9837 33.8368 51.0827C33.7876 51.1859 33.715 51.2653 33.6416 51.3177L32.4791 49.6903C32.0688 49.9833 31.8923 50.4246 31.8923 50.856H33.8923ZM33.6664 51.2994C33.6661 51.2997 33.6426 51.3177 33.5957 51.3365C33.5466 51.3561 33.4728 51.376 33.3803 51.376V49.376C32.989 49.376 32.674 49.5412 32.4543 49.7086L33.6664 51.2994ZM33.3803 51.376C33.3019 51.376 33.1807 51.3526 33.0639 51.2697C32.9544 51.1921 32.9122 51.1073 32.9036 51.0876L34.737 50.2884C34.6378 50.0607 34.4769 49.8199 34.2208 49.6383C33.9573 49.4514 33.6615 49.376 33.3803 49.376V51.376ZM32.9001 51.0793L34.6521 55.1993L36.4926 54.4167L34.7406 50.2967L32.9001 51.0793ZM35.5438 53.8084L35.2638 53.8164L35.3209 55.8156L35.6009 55.8076L35.5438 53.8084ZM36.2241 55.179L37.8321 51.051L35.9685 50.325L34.3605 54.453L36.2241 55.179ZM37.8132 51.0964C37.802 51.1213 37.7569 51.2066 37.6468 51.2827C37.5308 51.3628 37.4133 51.384 37.3403 51.384V49.384C37.0647 49.384 36.7725 49.4558 36.5099 49.6373C36.2531 49.8147 36.0894 50.052 35.9875 50.2796L37.8132 51.0964ZM40.4568 51.656L41.377 52.0473L42.1243 50.2898L40.2542 50.6767L40.4568 51.656ZM38.7288 55.72L37.8085 55.3287L37.7989 55.3513L37.7904 55.3743L38.7288 55.72ZM38.5528 55.96L39.1341 56.7738L39.1441 56.7664L38.5528 55.96ZM37.9848 55.92L38.7405 55.2651L38.7405 55.2651L37.9848 55.92ZM37.9048 55.472L36.9816 55.0876L36.9618 55.1352L36.947 55.1847L37.9048 55.472ZM39.8968 50.688L40.82 51.0724L40.8253 51.0594L39.8968 50.688ZM40.0888 50.44L39.5455 49.6004L39.5338 49.608L39.5223 49.616L40.0888 50.44ZM40.3768 50.368L40.2721 51.3625L40.3243 51.368H40.3768V50.368ZM40.6408 50.456L40.0494 51.2624L40.0793 51.2843L40.1108 51.304L40.6408 50.456ZM40.8248 50.688L39.8864 51.0337L39.8941 51.0546L39.9027 51.0751L40.8248 50.688ZM42.7928 55.376L43.7261 55.017L43.7207 55.0029L43.7148 54.9889L42.7928 55.376ZM42.6888 55.912L42.0244 55.1646L42.0138 55.174L42.0034 55.1838L42.6888 55.912ZM42.1208 55.952L41.503 56.7383L41.516 56.7486L41.5294 56.7584L42.1208 55.952ZM41.9448 55.712L42.8664 55.3239L42.8637 55.3176L41.9448 55.712ZM40.2248 51.704L40.0222 50.7247L38.8228 50.9729L39.3058 52.0984L40.2248 51.704ZM38.9768 54.744L38.0746 54.3125L37.39 55.744H38.9768V54.744ZM39.4168 53.824V52.824H38.7866L38.5146 53.3925L39.4168 53.824ZM41.5768 53.824L42.5634 53.661L42.4251 52.824H41.5768V53.824ZM41.7288 54.744V55.744H42.9076L42.7154 54.581L41.7288 54.744ZM39.5365 51.2647L37.8085 55.3287L39.649 56.1113L41.377 52.0473L39.5365 51.2647ZM37.7904 55.3743C37.8012 55.345 37.8198 55.3063 37.8504 55.2646C37.8813 55.2224 37.9192 55.1846 37.9614 55.1536L39.1441 56.7664C39.3966 56.5813 39.5682 56.3343 39.6671 56.0657L37.7904 55.3743ZM37.9715 55.1463C38.0132 55.1165 38.0657 55.0883 38.1278 55.0683C38.1899 55.0482 38.2505 55.04 38.3048 55.04V57.04C38.6065 57.04 38.8919 56.9466 39.134 56.7737L37.9715 55.1463ZM38.3048 55.04C38.3224 55.04 38.3837 55.0421 38.4679 55.0737C38.5586 55.1077 38.6576 55.1695 38.7405 55.2651L37.2291 56.5749C37.55 56.9452 37.9804 57.04 38.3048 57.04V55.04ZM38.7405 55.2651C38.7871 55.3189 38.8254 55.3837 38.8502 55.4545C38.8746 55.5238 38.8808 55.5834 38.8808 55.624H36.8808C36.8808 55.9539 36.9848 56.293 37.2291 56.5749L38.7405 55.2651ZM38.8808 55.624C38.8808 55.6874 38.8702 55.734 38.8626 55.7593L36.947 55.1847C36.9074 55.3167 36.8808 55.4646 36.8808 55.624H38.8808ZM38.8279 55.8564L40.8199 51.0724L38.9736 50.3036L36.9816 55.0876L38.8279 55.8564ZM40.8253 51.0594C40.8155 51.0839 40.7977 51.1192 40.7675 51.1582C40.7368 51.1978 40.6987 51.2342 40.6553 51.264L39.5223 49.616C39.2567 49.7985 39.076 50.0475 38.9683 50.3166L40.8253 51.0594ZM40.632 51.2796C40.5934 51.3046 40.5394 51.3311 40.4713 51.3481C40.4025 51.3653 40.3342 51.369 40.2721 51.3625L40.4815 49.3735C40.1386 49.3374 39.8158 49.4256 39.5455 49.6004L40.632 51.2796ZM40.3768 51.368C40.3211 51.368 40.2601 51.3592 40.1986 51.3387C40.1374 51.3183 40.0874 51.2902 40.0494 51.2624L41.2321 49.6496C40.9868 49.4696 40.693 49.368 40.3768 49.368V51.368ZM40.1108 51.304C40.0586 51.2714 40.009 51.2279 39.9673 51.1754C39.9261 51.1235 39.901 51.0732 39.8864 51.0337L41.7631 50.3423C41.6551 50.0491 41.4583 49.7877 41.1708 49.608L40.1108 51.304ZM39.9027 51.0751L41.8707 55.7631L43.7148 54.9889L41.7468 50.3009L39.9027 51.0751ZM41.8594 55.735C41.8533 55.719 41.8328 55.6599 41.8328 55.568H43.8328C43.8328 55.3588 43.7856 55.1717 43.7261 55.017L41.8594 55.735ZM41.8328 55.568C41.8328 55.5282 41.8397 55.4586 41.8743 55.3759C41.9102 55.2903 41.9642 55.2181 42.0244 55.1646L43.3531 56.6594C43.6898 56.3601 43.8328 55.9591 43.8328 55.568H41.8328ZM42.0034 55.1838C42.0335 55.1555 42.084 55.117 42.1567 55.0864C42.2312 55.055 42.31 55.04 42.3848 55.04V57.04C42.7808 57.04 43.1205 56.879 43.3741 56.6402L42.0034 55.1838ZM42.3848 55.04C42.4405 55.04 42.5015 55.0488 42.563 55.0693C42.6242 55.0897 42.6742 55.1178 42.7121 55.1456L41.5294 56.7584C41.7748 56.9384 42.0686 57.04 42.3848 57.04V55.04ZM42.7386 55.1657C42.8171 55.2274 42.8537 55.2938 42.8664 55.3239L41.0231 56.1001C41.1212 56.3329 41.2751 56.5593 41.503 56.7383L42.7386 55.1657ZM42.8637 55.3176L41.1437 51.3096L39.3058 52.0984L41.0258 56.1064L42.8637 55.3176ZM40.4274 52.6833L40.6594 52.6353L40.2542 50.6767L40.0222 50.7247L40.4274 52.6833ZM39.8789 55.1755L40.3189 54.2555L38.5146 53.3925L38.0746 54.3125L39.8789 55.1755ZM39.4168 54.824H41.5768V52.824H39.4168V54.824ZM40.5902 53.987L40.7422 54.907L42.7154 54.581L42.5634 53.661L40.5902 53.987ZM41.7288 53.744H38.9768V55.744H41.7288V53.744ZM46.9422 55.2L46.235 55.9071L46.2558 55.9279L46.2778 55.9474L46.9422 55.2ZM46.9422 55.872L47.6275 56.6002L47.6288 56.599L46.9422 55.872ZM43.6462 55.864L42.9191 56.5506L42.9388 56.5714L42.9595 56.591L43.6462 55.864ZM43.6542 50.544L44.3408 51.271L44.3512 51.2612L44.3613 51.2511L43.6542 50.544ZM44.3582 50.544L43.651 51.2511L43.6707 51.2707L43.6914 51.2892L44.3582 50.544ZM44.5102 55.2L43.8987 55.9913L45.5102 57.2365V55.2H44.5102ZM44.3342 55.064V54.064H41.4046L43.7227 55.8553L44.3342 55.064ZM46.5982 56.064C46.5572 56.064 46.4939 56.057 46.4205 56.028C46.3455 55.9983 46.2825 55.9545 46.235 55.9071L47.6493 54.4929C47.3548 54.1985 46.9782 54.064 46.5982 54.064V56.064ZM46.2778 55.9474C46.222 55.8978 46.168 55.8283 46.131 55.7419C46.0948 55.6574 46.0862 55.5835 46.0862 55.536H48.0862C48.0862 55.1373 47.9344 54.7441 47.6065 54.4526L46.2778 55.9474ZM46.0862 55.536C46.0862 55.4801 46.0968 55.4059 46.131 55.3261C46.1653 55.2461 46.2125 55.1857 46.2555 55.145L47.6288 56.599C47.927 56.3174 48.0862 55.9414 48.0862 55.536H46.0862ZM46.2568 55.1438C46.3068 55.0967 46.3695 55.0568 46.4394 55.0308C46.5075 55.0054 46.5642 55 46.5982 55V57C46.9601 57 47.3297 56.8805 47.6275 56.6002L46.2568 55.1438ZM46.5982 55H43.9982V57H46.5982V55ZM43.9982 55C44.0395 55 44.099 55.0071 44.1666 55.0332C44.2349 55.0596 44.2912 55.0977 44.3328 55.137L42.9595 56.591C43.2512 56.8665 43.6183 57 43.9982 57V55ZM44.3732 55.1774C44.4124 55.219 44.4505 55.2752 44.477 55.3436C44.503 55.4111 44.5102 55.4707 44.5102 55.512H42.5102C42.5102 55.8919 42.6437 56.259 42.9191 56.5506L44.3732 55.1774ZM44.5102 55.512V50.888H42.5102V55.512H44.5102ZM44.5102 50.888C44.5102 50.9359 44.5014 51.0058 44.4686 51.0841C44.4353 51.1636 44.3879 51.2265 44.3408 51.271L42.9675 49.817C42.6605 50.1069 42.5102 50.4897 42.5102 50.888H44.5102ZM44.3613 51.2511C44.3148 51.2976 44.2537 51.3394 44.1826 51.3672C44.1133 51.3943 44.0556 51.4 44.0222 51.4V49.4C43.6367 49.4 43.2502 49.5337 42.947 49.8369L44.3613 51.2511ZM44.0222 51.4C43.9577 51.4 43.883 51.3872 43.8082 51.3551C43.7347 51.3236 43.6828 51.2828 43.651 51.2511L45.0653 49.8369C44.7944 49.566 44.4327 49.4 44.0222 49.4V51.4ZM43.6914 51.2892C43.6452 51.2479 43.5943 51.1856 43.5575 51.1022C43.5208 51.0193 43.5102 50.943 43.5102 50.888H45.5102C45.5102 50.4713 45.3431 50.0834 45.025 49.7988L43.6914 51.2892ZM43.5102 50.888V55.2H45.5102V50.888H43.5102ZM45.1216 54.4087L44.9456 54.2727L43.7227 55.8553L43.8987 55.9913L45.1216 54.4087ZM44.3342 56.064H46.5982V54.064H44.3342V56.064Z" fill="white"/>
</svg>
