<svg width="59" height="71" viewBox="0 0 59 71" fill="none" xmlns="http://www.w3.org/2000/svg">
<path d="M12.8964 43.4C13.1737 43.4 13.4324 43.48 13.6724 43.64C13.9177 43.8 14.115 44.016 14.2644 44.288C14.4137 44.56 14.4884 44.864 14.4884 45.2C14.4884 45.5307 14.4137 45.832 14.2644 46.104C14.115 46.376 13.9177 46.5947 13.6724 46.76C13.4324 46.92 13.1737 47 12.8964 47H11.4244L11.5044 46.856V48.512C11.5044 48.6507 11.4617 48.768 11.3764 48.864C11.291 48.9547 11.179 49 11.0404 49C10.907 49 10.7977 48.9547 10.7124 48.864C10.627 48.768 10.5844 48.6507 10.5844 48.512V43.888C10.5844 43.7493 10.6297 43.6347 10.7204 43.544C10.8164 43.448 10.9337 43.4 11.0724 43.4H12.8964ZM12.8964 46.088C12.9977 46.088 13.0964 46.0453 13.1924 45.96C13.2884 45.8747 13.3684 45.7653 13.4324 45.632C13.4964 45.4933 13.5284 45.3493 13.5284 45.2C13.5284 45.0453 13.4964 44.9013 13.4324 44.768C13.3684 44.6347 13.2884 44.528 13.1924 44.448C13.0964 44.3627 12.9977 44.32 12.8964 44.32H11.4084L11.5044 44.176V46.216L11.4164 46.088H12.8964ZM15.9807 49C15.8314 49 15.698 48.9547 15.5807 48.864C15.4634 48.768 15.4047 48.6507 15.4047 48.512V43.888C15.4047 43.7493 15.45 43.6347 15.5407 43.544C15.6367 43.448 15.754 43.4 15.8927 43.4H18.1967C18.474 43.4 18.7327 43.4747 18.9727 43.624C19.218 43.768 19.4154 43.9707 19.5647 44.232C19.714 44.488 19.7887 44.784 19.7887 45.12C19.7887 45.3227 19.746 45.52 19.6607 45.712C19.5807 45.904 19.4687 46.0773 19.3247 46.232C19.186 46.3867 19.0287 46.5067 18.8527 46.592L18.8607 46.408C19.01 46.488 19.1327 46.584 19.2287 46.696C19.33 46.8027 19.4074 46.92 19.4607 47.048C19.5194 47.1707 19.554 47.304 19.5647 47.448C19.586 47.5813 19.5994 47.6987 19.6047 47.8C19.6154 47.9013 19.6314 47.9867 19.6527 48.056C19.6794 48.1253 19.7274 48.1787 19.7967 48.216C19.914 48.2853 19.986 48.3867 20.0127 48.52C20.0447 48.648 20.0154 48.7627 19.9247 48.864C19.866 48.9333 19.7914 48.9787 19.7007 49C19.61 49.016 19.5194 49.016 19.4287 49C19.338 48.9787 19.2634 48.952 19.2047 48.92C19.114 48.8667 19.0234 48.7893 18.9327 48.688C18.842 48.5813 18.7674 48.44 18.7087 48.264C18.6554 48.088 18.6287 47.8613 18.6287 47.584C18.6287 47.4933 18.6127 47.4107 18.5807 47.336C18.5487 47.256 18.5034 47.1893 18.4447 47.136C18.386 47.0773 18.3114 47.0347 18.2207 47.008C18.13 46.976 18.0234 46.96 17.9007 46.96H16.2847L16.4047 46.776V48.512C16.4047 48.6507 16.3674 48.768 16.2927 48.864C16.218 48.9547 16.114 49 15.9807 49ZM16.2927 46.136H18.1567C18.2527 46.136 18.346 46.0933 18.4367 46.008C18.5274 45.9173 18.602 45.7973 18.6607 45.648C18.7194 45.4933 18.7487 45.3253 18.7487 45.144C18.7487 44.9093 18.6847 44.7147 18.5567 44.56C18.434 44.4 18.3007 44.32 18.1567 44.32H16.3087L16.4047 44.064V46.328L16.2927 46.136ZM25.9708 46.2C25.9708 46.6 25.9041 46.9733 25.7708 47.32C25.6374 47.6667 25.4481 47.9733 25.2028 48.24C24.9628 48.5013 24.6748 48.7067 24.3388 48.856C24.0081 49.0053 23.6454 49.08 23.2508 49.08C22.8561 49.08 22.4934 49.0053 22.1628 48.856C21.8321 48.7067 21.5441 48.5013 21.2988 48.24C21.0588 47.9733 20.8721 47.6667 20.7388 47.32C20.6054 46.9733 20.5388 46.6 20.5388 46.2C20.5388 45.8 20.6054 45.4267 20.7388 45.08C20.8721 44.7333 21.0588 44.4293 21.2988 44.168C21.5441 43.9013 21.8321 43.6933 22.1628 43.544C22.4934 43.3947 22.8561 43.32 23.2508 43.32C23.6454 43.32 24.0081 43.3947 24.3388 43.544C24.6748 43.6933 24.9628 43.9013 25.2028 44.168C25.4481 44.4293 25.6374 44.7333 25.7708 45.08C25.9041 45.4267 25.9708 45.8 25.9708 46.2ZM24.9308 46.2C24.9308 45.8427 24.8588 45.52 24.7148 45.232C24.5708 44.9387 24.3734 44.7067 24.1228 44.536C23.8721 44.3653 23.5814 44.28 23.2508 44.28C22.9201 44.28 22.6294 44.3653 22.3788 44.536C22.1281 44.7067 21.9308 44.936 21.7868 45.224C21.6481 45.512 21.5788 45.8373 21.5788 46.2C21.5788 46.5573 21.6481 46.8827 21.7868 47.176C21.9308 47.464 22.1281 47.6933 22.3788 47.864C22.6294 48.0347 22.9201 48.12 23.2508 48.12C23.5814 48.12 23.8721 48.0347 24.1228 47.864C24.3734 47.6933 24.5708 47.464 24.7148 47.176C24.8588 46.8827 24.9308 46.5573 24.9308 46.2ZM29.5291 49.08C29.1237 49.08 28.7451 49.0053 28.3931 48.856C28.0411 48.7067 27.7317 48.5013 27.4651 48.24C27.1984 47.9733 26.9877 47.6667 26.8331 47.32C26.6837 46.9733 26.6091 46.6 26.6091 46.2C26.6091 45.8 26.6837 45.4267 26.8331 45.08C26.9877 44.7333 27.1984 44.4293 27.4651 44.168C27.7317 43.9013 28.0411 43.6933 28.3931 43.544C28.7451 43.3947 29.1237 43.32 29.5291 43.32C29.7797 43.32 30.0224 43.3467 30.2571 43.4C30.4917 43.4533 30.7077 43.5333 30.9051 43.64C30.9851 43.6827 31.0437 43.7413 31.0811 43.816C31.1237 43.8853 31.1451 43.9573 31.1451 44.032C31.1451 44.16 31.1024 44.2747 31.0171 44.376C30.9317 44.4773 30.8224 44.528 30.6891 44.528C30.6464 44.528 30.6011 44.5227 30.5531 44.512C30.5104 44.5013 30.4677 44.4853 30.4251 44.464C30.2917 44.4053 30.1504 44.36 30.0011 44.328C29.8517 44.296 29.6944 44.28 29.5291 44.28C29.1824 44.28 28.8651 44.368 28.5771 44.544C28.2944 44.7147 28.0677 44.9467 27.8971 45.24C27.7317 45.528 27.6491 45.848 27.6491 46.2C27.6491 46.5467 27.7317 46.8667 27.8971 47.16C28.0677 47.4533 28.2944 47.688 28.5771 47.864C28.8651 48.0347 29.1824 48.12 29.5291 48.12C29.6891 48.12 29.8651 48.104 30.0571 48.072C30.2491 48.04 30.4064 47.9973 30.5291 47.944L30.4571 48.184V46.816L30.5931 46.936H29.7051C29.5664 46.936 29.4491 46.8907 29.3531 46.8C29.2624 46.7093 29.2171 46.5947 29.2171 46.456C29.2171 46.3173 29.2624 46.2027 29.3531 46.112C29.4491 46.0213 29.5664 45.976 29.7051 45.976H31.0171C31.1557 45.976 31.2704 46.024 31.3611 46.12C31.4517 46.2107 31.4971 46.3253 31.4971 46.464V48.16C31.4971 48.2667 31.4704 48.3547 31.4171 48.424C31.3691 48.4933 31.3131 48.5493 31.2491 48.592C31.0037 48.7413 30.7344 48.8613 30.4411 48.952C30.1531 49.0373 29.8491 49.08 29.5291 49.08ZM33.0354 49C32.886 49 32.7527 48.9547 32.6354 48.864C32.518 48.768 32.4594 48.6507 32.4594 48.512V43.888C32.4594 43.7493 32.5047 43.6347 32.5954 43.544C32.6914 43.448 32.8087 43.4 32.9474 43.4H35.2514C35.5287 43.4 35.7874 43.4747 36.0274 43.624C36.2727 43.768 36.47 43.9707 36.6194 44.232C36.7687 44.488 36.8434 44.784 36.8434 45.12C36.8434 45.3227 36.8007 45.52 36.7154 45.712C36.6354 45.904 36.5234 46.0773 36.3794 46.232C36.2407 46.3867 36.0834 46.5067 35.9074 46.592L35.9154 46.408C36.0647 46.488 36.1874 46.584 36.2834 46.696C36.3847 46.8027 36.462 46.92 36.5154 47.048C36.574 47.1707 36.6087 47.304 36.6194 47.448C36.6407 47.5813 36.654 47.6987 36.6594 47.8C36.67 47.9013 36.686 47.9867 36.7074 48.056C36.734 48.1253 36.782 48.1787 36.8514 48.216C36.9687 48.2853 37.0407 48.3867 37.0674 48.52C37.0994 48.648 37.07 48.7627 36.9794 48.864C36.9207 48.9333 36.846 48.9787 36.7554 49C36.6647 49.016 36.574 49.016 36.4834 49C36.3927 48.9787 36.318 48.952 36.2594 48.92C36.1687 48.8667 36.078 48.7893 35.9874 48.688C35.8967 48.5813 35.822 48.44 35.7634 48.264C35.71 48.088 35.6834 47.8613 35.6834 47.584C35.6834 47.4933 35.6674 47.4107 35.6354 47.336C35.6034 47.256 35.558 47.1893 35.4994 47.136C35.4407 47.0773 35.366 47.0347 35.2754 47.008C35.1847 46.976 35.078 46.96 34.9554 46.96H33.3394L33.4594 46.776V48.512C33.4594 48.6507 33.422 48.768 33.3474 48.864C33.2727 48.9547 33.1687 49 33.0354 49ZM33.3474 46.136H35.2114C35.3074 46.136 35.4007 46.0933 35.4914 46.008C35.582 45.9173 35.6567 45.7973 35.7154 45.648C35.774 45.4933 35.8034 45.3253 35.8034 45.144C35.8034 44.9093 35.7394 44.7147 35.6114 44.56C35.4887 44.4 35.3554 44.32 35.2114 44.32H33.3634L33.4594 44.064V46.328L33.3474 46.136ZM40.0076 44.656L38.2796 48.72C38.2422 48.8213 38.1836 48.9013 38.1036 48.96C38.0289 49.0133 37.9462 49.04 37.8556 49.04C37.7116 49.04 37.6049 49 37.5356 48.92C37.4662 48.84 37.4316 48.7413 37.4316 48.624C37.4316 48.576 37.4396 48.5253 37.4556 48.472L39.4476 43.688C39.4902 43.5813 39.5542 43.4987 39.6396 43.44C39.7302 43.3813 39.8262 43.3573 39.9276 43.368C40.0236 43.368 40.1116 43.3973 40.1916 43.456C40.2769 43.5093 40.3382 43.5867 40.3756 43.688L42.3436 48.376C42.3702 48.4453 42.3836 48.5093 42.3836 48.568C42.3836 48.712 42.3356 48.8267 42.2396 48.912C42.1489 48.9973 42.0476 49.04 41.9356 49.04C41.8396 49.04 41.7516 49.0107 41.6716 48.952C41.5969 48.8933 41.5382 48.8133 41.4956 48.712L39.7756 44.704L40.0076 44.656ZM38.5276 47.744L38.9676 46.824H41.1276L41.2796 47.744H38.5276ZM43.5649 43.392C43.6396 43.392 43.7169 43.4133 43.7969 43.456C43.8823 43.4933 43.9463 43.544 43.9889 43.608L45.9329 46.6L45.5329 46.584L47.5249 43.608C47.6263 43.464 47.7569 43.392 47.9169 43.392C48.0449 43.392 48.1596 43.4373 48.2609 43.528C48.3623 43.6187 48.4129 43.736 48.4129 43.88V48.512C48.4129 48.6507 48.3676 48.768 48.2769 48.864C48.1863 48.9547 48.0663 49 47.9169 49C47.7676 49 47.6449 48.9547 47.5489 48.864C47.4583 48.768 47.4129 48.6507 47.4129 48.512V44.744L47.7249 44.816L46.0929 47.304C46.0449 47.3627 45.9836 47.4133 45.9089 47.456C45.8396 47.4987 45.7676 47.5173 45.6929 47.512C45.6236 47.5173 45.5516 47.4987 45.4769 47.456C45.4076 47.4133 45.3489 47.3627 45.3009 47.304L43.7729 44.888L43.9809 44.464V48.512C43.9809 48.6507 43.9383 48.768 43.8529 48.864C43.7676 48.9547 43.6556 49 43.5169 49C43.3836 49 43.2743 48.9547 43.1889 48.864C43.1036 48.768 43.0609 48.6507 43.0609 48.512V43.88C43.0609 43.7467 43.1089 43.632 43.2049 43.536C43.3063 43.44 43.4263 43.392 43.5649 43.392Z" fill="black"/>
<path d="M13.6724 43.64L13.1176 44.4721L13.1261 44.4776L13.6724 43.64ZM13.6724 46.76L14.2271 47.5921L14.2312 47.5893L13.6724 46.76ZM11.4244 47L10.5502 46.5144L9.72486 48H11.4244V47ZM11.5044 46.856H12.5044V42.9969L10.6302 46.3704L11.5044 46.856ZM11.3764 48.864L12.1046 49.5494L12.1143 49.539L12.1238 49.5284L11.3764 48.864ZM10.7124 48.864L9.96497 49.5284L9.97442 49.539L9.98418 49.5494L10.7124 48.864ZM10.7204 43.544L10.0133 42.8369L10.0133 42.8369L10.7204 43.544ZM13.4324 45.632L14.3339 46.0647L14.3372 46.0579L14.3403 46.0511L13.4324 45.632ZM13.4324 44.768L14.3339 44.3353L14.3339 44.3353L13.4324 44.768ZM13.1924 44.448L12.528 45.1954L12.5399 45.206L12.5522 45.2162L13.1924 44.448ZM11.4084 44.32L10.5763 43.7653L9.53986 45.32H11.4084V44.32ZM11.5044 44.176H12.5044V40.8732L10.6723 43.6213L11.5044 44.176ZM11.5044 46.216L10.6803 46.7825L12.5044 49.4357V46.216H11.5044ZM11.4164 46.088V45.088H9.51534L10.5923 46.6545L11.4164 46.088ZM12.8964 44.4C12.9681 44.4 13.035 44.4169 13.1177 44.472L14.2271 42.8079C13.8298 42.5431 13.3793 42.4 12.8964 42.4V44.4ZM13.1261 44.4776C13.2255 44.5424 13.3127 44.6326 13.3878 44.7693L15.141 43.8067C14.9173 43.3994 14.6099 43.0576 14.2186 42.8024L13.1261 44.4776ZM13.3878 44.7693C13.4495 44.8817 13.4884 45.0179 13.4884 45.2H15.4884C15.4884 44.7101 15.3779 44.2383 15.141 43.8067L13.3878 44.7693ZM13.4884 45.2C13.4884 45.3738 13.4508 45.5079 13.3878 45.6227L15.141 46.5853C15.3766 46.1561 15.4884 45.6875 15.4884 45.2H13.4884ZM13.3878 45.6227C13.3113 45.7621 13.2202 45.8588 13.1135 45.9307L14.2312 47.5893C14.6152 47.3305 14.9188 46.9899 15.141 46.5853L13.3878 45.6227ZM13.1177 45.9279C13.035 45.9831 12.9681 46 12.8964 46V48C13.3793 48 13.8298 47.8569 14.2271 47.5921L13.1177 45.9279ZM12.8964 46H11.4244V48H12.8964V46ZM12.2985 47.4856L12.3785 47.3416L10.6302 46.3704L10.5502 46.5144L12.2985 47.4856ZM10.5044 46.856V48.512H12.5044V46.856H10.5044ZM10.5044 48.512C10.5044 48.4776 10.5099 48.4246 10.5326 48.3623C10.5557 48.2988 10.5902 48.2433 10.629 48.1996L12.1238 49.5284C12.3854 49.2341 12.5044 48.8744 12.5044 48.512H10.5044ZM10.6482 48.1786C10.7013 48.1222 10.7713 48.0722 10.8532 48.0391C10.9327 48.0069 10.9999 48 11.0404 48V50C11.4201 50 11.8078 49.8647 12.1046 49.5494L10.6482 48.1786ZM11.0404 48C11.0886 48 11.1602 48.0086 11.2414 48.0423C11.3241 48.0766 11.3915 48.1265 11.4406 48.1786L9.98418 49.5494C10.273 49.8562 10.6532 50 11.0404 50V48ZM11.4598 48.1996C11.4986 48.2433 11.5331 48.2988 11.5562 48.3623C11.5788 48.4246 11.5844 48.4776 11.5844 48.512H9.58438C9.58438 48.8744 9.7034 49.2341 9.96497 49.5284L11.4598 48.1996ZM11.5844 48.512V43.888H9.58438V48.512H11.5844ZM11.5844 43.888C11.5844 43.9289 11.5774 43.9923 11.5483 44.0657C11.5187 44.1406 11.4749 44.2037 11.4275 44.2511L10.0133 42.8369C9.71885 43.1313 9.58438 43.508 9.58438 43.888H11.5844ZM11.4275 44.2511C11.3883 44.2903 11.3318 44.3318 11.259 44.3615C11.1867 44.3911 11.1206 44.4 11.0724 44.4V42.4C10.6748 42.4 10.3013 42.5489 10.0133 42.8369L11.4275 44.2511ZM11.0724 44.4H12.8964V42.4H11.0724V44.4ZM12.8964 47.088C13.3028 47.088 13.6283 46.9105 13.8567 46.7074L12.528 45.2126C12.5645 45.1802 12.6926 45.088 12.8964 45.088V47.088ZM13.8567 46.7074C14.0658 46.5216 14.2211 46.2997 14.3339 46.0647L12.5309 45.1993C12.523 45.2155 12.5179 45.2227 12.5173 45.2235C12.5169 45.2241 12.5202 45.2195 12.528 45.2126L13.8567 46.7074ZM14.3403 46.0511C14.4636 45.7841 14.5284 45.4974 14.5284 45.2H12.5284C12.5284 45.2015 12.5283 45.2023 12.5283 45.2026C12.5283 45.2028 12.5282 45.2029 12.5282 45.2031C12.5281 45.2033 12.528 45.204 12.5275 45.2054C12.527 45.2068 12.5261 45.2093 12.5244 45.2129L14.3403 46.0511ZM14.5284 45.2C14.5284 44.9026 14.4657 44.6099 14.3339 44.3353L12.5309 45.2007C12.5299 45.1987 12.5288 45.1957 12.5282 45.1929C12.5276 45.1903 12.5284 45.1921 12.5284 45.2H14.5284ZM14.3339 44.3353C14.2191 44.0961 14.0571 43.8669 13.8326 43.6798L12.5522 45.2162C12.5367 45.2033 12.5278 45.1926 12.5244 45.188C12.5212 45.1837 12.5241 45.1867 12.5309 45.2007L14.3339 44.3353ZM13.8567 43.7006C13.6283 43.4975 13.3028 43.32 12.8964 43.32V45.32C12.6926 45.32 12.5645 45.2278 12.528 45.1954L13.8567 43.7006ZM12.8964 43.32H11.4084V45.32H12.8964V43.32ZM12.2404 44.8747L12.3364 44.7307L10.6723 43.6213L10.5763 43.7653L12.2404 44.8747ZM10.5044 44.176V46.216H12.5044V44.176H10.5044ZM12.3284 45.6495L12.2404 45.5215L10.5923 46.6545L10.6803 46.7825L12.3284 45.6495ZM11.4164 47.088H12.8964V45.088H11.4164V47.088ZM15.5807 48.864L14.9474 49.638L14.9582 49.6468L14.9692 49.6553L15.5807 48.864ZM15.5407 43.544L14.8336 42.8369L14.8336 42.8369L15.5407 43.544ZM18.9727 43.624L18.4444 44.4731L18.4554 44.4799L18.4665 44.4864L18.9727 43.624ZM19.5647 44.232L18.6964 44.7282L18.7009 44.7359L19.5647 44.232ZM19.6607 45.712L18.7469 45.3059L18.7421 45.3166L18.7376 45.3274L19.6607 45.712ZM19.3247 46.232L18.5928 45.5506L18.5864 45.5575L18.5801 45.5645L19.3247 46.232ZM18.8527 46.592L17.8536 46.5486L17.7808 48.223L19.289 47.4918L18.8527 46.592ZM18.8607 46.408L19.3329 45.5265L17.9307 44.7754L17.8616 46.3646L18.8607 46.408ZM19.2287 46.696L18.4694 47.3468L18.4861 47.3662L18.5037 47.3847L19.2287 46.696ZM19.4607 47.048L18.5376 47.4326L18.5475 47.4563L18.5586 47.4795L19.4607 47.048ZM19.5647 47.448L18.5674 47.5219L18.5706 47.5641L18.5772 47.606L19.5647 47.448ZM19.6047 47.8L18.6061 47.8526L18.6074 47.8787L18.6102 47.9047L19.6047 47.8ZM19.6527 48.056L18.6969 48.3501L18.707 48.3829L18.7193 48.415L19.6527 48.056ZM19.7967 48.216L20.3054 47.3551L20.2883 47.345L20.2708 47.3355L19.7967 48.216ZM20.0127 48.52L19.0321 48.7161L19.0368 48.7394L19.0425 48.7625L20.0127 48.52ZM19.9247 48.864L19.1794 48.1972L19.1702 48.2075L19.1613 48.2181L19.9247 48.864ZM19.7007 49L19.8745 49.9848L19.9023 49.9799L19.9297 49.9734L19.7007 49ZM19.4287 49L19.1996 49.9734L19.2271 49.9799L19.2549 49.9848L19.4287 49ZM19.2047 48.92L18.6977 49.7819L18.7116 49.7901L18.7258 49.7979L19.2047 48.92ZM18.9327 48.688L18.1707 49.3356L18.179 49.3453L18.1874 49.3548L18.9327 48.688ZM18.7087 48.264L17.7517 48.554L17.7557 48.5672L17.76 48.5802L18.7087 48.264ZM18.5807 47.336L17.6522 47.7074L17.6567 47.7187L17.6615 47.7299L18.5807 47.336ZM18.4447 47.136L17.7376 47.8431L17.7544 47.8599L17.772 47.8759L18.4447 47.136ZM18.2207 47.008L17.8879 47.951L17.913 47.9599L17.9385 47.9674L18.2207 47.008ZM16.2847 46.96L15.4471 46.4137L14.4386 47.96H16.2847V46.96ZM16.4047 46.776H17.4047V43.4121L15.5671 46.2297L16.4047 46.776ZM16.2927 48.864L17.0646 49.4997L17.0735 49.4889L17.082 49.4779L16.2927 48.864ZM16.2927 46.136V45.136H14.5517L15.4289 46.6399L16.2927 46.136ZM18.4367 46.008L19.1221 46.7362L19.1331 46.7258L19.1438 46.7151L18.4367 46.008ZM18.6607 45.648L19.5915 46.0137L19.5957 46.0027L18.6607 45.648ZM18.5567 44.56L17.7631 45.1684L17.7744 45.1832L17.7863 45.1976L18.5567 44.56ZM16.3087 44.32L15.3724 43.9689L14.8657 45.32H16.3087V44.32ZM16.4047 44.064H17.4047L15.4684 43.7129L16.4047 44.064ZM16.4047 46.328L15.5409 46.8319L17.4047 50.0269V46.328H16.4047ZM15.9807 48C16.0089 48 16.0475 48.0046 16.0906 48.0192C16.1338 48.0339 16.1682 48.0542 16.1921 48.0727L14.9692 49.6553C15.263 49.8823 15.6118 50 15.9807 50V48ZM16.2139 48.09C16.2475 48.1175 16.3003 48.1712 16.3431 48.2568C16.3872 48.3449 16.4047 48.4352 16.4047 48.512H14.4047C14.4047 48.9811 14.6226 49.3722 14.9474 49.638L16.2139 48.09ZM16.4047 48.512V43.888H14.4047V48.512H16.4047ZM16.4047 43.888C16.4047 43.9289 16.3977 43.9923 16.3686 44.0657C16.339 44.1406 16.2952 44.2037 16.2478 44.2511L14.8336 42.8369C14.5392 43.1313 14.4047 43.508 14.4047 43.888H16.4047ZM16.2478 44.2511C16.2086 44.2903 16.1521 44.3318 16.0793 44.3615C16.007 44.3911 15.941 44.4 15.8927 44.4V42.4C15.4952 42.4 15.1216 42.5489 14.8336 42.8369L16.2478 44.2511ZM15.8927 44.4H18.1967V42.4H15.8927V44.4ZM18.1967 44.4C18.2835 44.4 18.3597 44.4204 18.4444 44.4731L19.501 42.7749C19.1057 42.529 18.6645 42.4 18.1967 42.4V44.4ZM18.4665 44.4864C18.5524 44.5368 18.6285 44.6093 18.6964 44.7281L20.4329 43.7359C20.2022 43.3321 19.8836 42.9992 19.4789 42.7616L18.4665 44.4864ZM18.7009 44.7359C18.7496 44.8194 18.7887 44.9369 18.7887 45.12H20.7887C20.7887 44.6311 20.6784 44.1566 20.4285 43.7281L18.7009 44.7359ZM18.7887 45.12C18.7887 45.1776 18.7775 45.2369 18.7469 45.3059L20.5745 46.1181C20.7145 45.8031 20.7887 45.4678 20.7887 45.12H18.7887ZM18.7376 45.3274C18.704 45.4081 18.6573 45.4813 18.5928 45.5506L20.0566 46.9134C20.2801 46.6734 20.4574 46.3999 20.5838 46.0966L18.7376 45.3274ZM18.5801 45.5645C18.5227 45.6285 18.4684 45.667 18.4164 45.6922L19.289 47.4918C19.589 47.3464 19.8493 47.1448 20.0693 46.8995L18.5801 45.5645ZM19.8517 46.6354L19.8597 46.4514L17.8616 46.3646L17.8536 46.5486L19.8517 46.6354ZM18.3885 47.2895C18.4447 47.3196 18.465 47.3417 18.4694 47.3468L19.9879 46.0452C19.8003 45.8263 19.5754 45.6564 19.3329 45.5265L18.3885 47.2895ZM18.5037 47.3847C18.5262 47.4084 18.534 47.424 18.5376 47.4326L20.3838 46.6634C20.2807 46.416 20.1339 46.1969 19.9537 46.0073L18.5037 47.3847ZM18.5586 47.4795C18.5603 47.4831 18.5654 47.4942 18.5674 47.5219L20.562 47.3741C20.5427 47.1138 20.4784 46.8583 20.3628 46.6165L18.5586 47.4795ZM18.5772 47.606C18.5947 47.715 18.6031 47.7959 18.6061 47.8526L20.6033 47.7474C20.5956 47.6015 20.5773 47.4476 20.5521 47.29L18.5772 47.606ZM18.6102 47.9047C18.6251 48.0467 18.6507 48.1999 18.6969 48.3501L20.6085 47.7619C20.6108 47.7695 20.6099 47.7683 20.6076 47.7557C20.6053 47.7435 20.6022 47.7237 20.5992 47.6953L18.6102 47.9047ZM18.7193 48.415C18.8373 48.7216 19.0565 48.9532 19.3226 49.0965L20.2708 47.3355C20.3275 47.3661 20.3919 47.4123 20.452 47.479C20.5126 47.5464 20.5571 47.6217 20.586 47.697L18.7193 48.415ZM19.288 49.0769C19.2376 49.0472 19.1763 48.9975 19.1235 48.9232C19.0707 48.8488 19.0437 48.7743 19.0321 48.7161L20.9933 48.3239C20.9107 47.9112 20.6667 47.5685 20.3054 47.3551L19.288 49.0769ZM19.0425 48.7625C19.023 48.6843 19.0149 48.5754 19.0459 48.4542C19.0766 48.3342 19.1337 48.2483 19.1794 48.1972L20.6699 49.5308C20.9736 49.1914 21.0981 48.7387 20.9828 48.2775L19.0425 48.7625ZM19.1613 48.2181C19.1988 48.1737 19.2472 48.1307 19.3057 48.0952C19.364 48.0598 19.4215 48.0384 19.4716 48.0266L19.9297 49.9734C20.2233 49.9043 20.4872 49.7473 20.6881 49.5099L19.1613 48.2181ZM19.5269 48.0152C19.5512 48.0109 19.5782 48.0109 19.6025 48.0152L19.2549 49.9848C19.4605 50.0211 19.6688 50.0211 19.8745 49.9848L19.5269 48.0152ZM19.6577 48.0266C19.6426 48.023 19.6378 48.0211 19.641 48.0223C19.644 48.0233 19.6596 48.029 19.6835 48.0421L18.7258 49.7979C18.8872 49.8859 19.0533 49.939 19.1996 49.9734L19.6577 48.0266ZM19.7117 48.0581C19.7226 48.0645 19.7244 48.0669 19.7176 48.0612C19.7108 48.0554 19.6974 48.043 19.6779 48.0212L18.1874 49.3548C18.3279 49.5118 18.4963 49.6635 18.6977 49.7819L19.7117 48.0581ZM19.6946 48.0404C19.7026 48.0497 19.7009 48.05 19.6929 48.0349C19.6848 48.0196 19.6721 47.9918 19.6574 47.9478L17.76 48.5802C17.8467 48.8403 17.975 49.1054 18.1707 49.3356L19.6946 48.0404ZM19.6657 47.974C19.6514 47.9268 19.6287 47.8076 19.6287 47.584H17.6287C17.6287 47.9151 17.6593 48.2492 17.7517 48.554L19.6657 47.974ZM19.6287 47.584C19.6287 47.3737 19.5911 47.1549 19.4998 46.9421L17.6615 47.7299C17.6343 47.6664 17.6287 47.613 17.6287 47.584H19.6287ZM19.5092 46.9646C19.4259 46.7564 19.2976 46.5599 19.1174 46.3961L17.772 47.8759C17.7091 47.8188 17.6715 47.7556 17.6522 47.7074L19.5092 46.9646ZM19.1518 46.4289C18.9592 46.2363 18.7314 46.1159 18.5029 46.0486L17.9385 47.9674C17.8913 47.9535 17.8128 47.9184 17.7376 47.8431L19.1518 46.4289ZM18.5535 46.065C18.3311 45.9865 18.1069 45.96 17.9007 45.96V47.96C17.919 47.96 17.9262 47.9612 17.9243 47.9609C17.9223 47.9606 17.9092 47.9585 17.8879 47.951L18.5535 46.065ZM17.9007 45.96H16.2847V47.96H17.9007V45.96ZM17.1223 47.5063L17.2423 47.3223L15.5671 46.2297L15.4471 46.4137L17.1223 47.5063ZM15.4047 46.776V48.512H17.4047V46.776H15.4047ZM15.4047 48.512C15.4047 48.4912 15.4076 48.4517 15.4238 48.4008C15.4404 48.3485 15.4673 48.2964 15.5033 48.2501L17.082 49.4779C17.312 49.1822 17.4047 48.8403 17.4047 48.512H15.4047ZM15.5208 48.2283C15.58 48.1564 15.6614 48.0919 15.7591 48.0493C15.8533 48.0083 15.9336 48 15.9807 48V50C16.3674 50 16.7729 49.854 17.0646 49.4997L15.5208 48.2283ZM16.2927 47.136H18.1567V45.136H16.2927V47.136ZM18.1567 47.136C18.5761 47.136 18.9028 46.9425 19.1221 46.7362L17.7513 45.2798C17.7892 45.2441 17.9293 45.136 18.1567 45.136V47.136ZM19.1438 46.7151C19.3528 46.5061 19.4947 46.2598 19.5914 46.0137L17.7299 45.2823C17.7199 45.3079 17.7129 45.3197 17.7116 45.3217C17.7106 45.3234 17.7158 45.3147 17.7296 45.3009L19.1438 46.7151ZM19.5957 46.0027C19.7013 45.7243 19.7487 45.4348 19.7487 45.144H17.7487C17.7487 45.2158 17.7374 45.2624 17.7257 45.2933L19.5957 46.0027ZM19.7487 45.144C19.7487 44.7178 19.6278 44.2858 19.3271 43.9224L17.7863 45.1976C17.7784 45.1881 17.7709 45.1771 17.7643 45.1652C17.7578 45.1533 17.7534 45.1426 17.7507 45.1343C17.7452 45.1174 17.7487 45.1176 17.7487 45.144H19.7487ZM19.3503 43.9516C19.1187 43.6495 18.7235 43.32 18.1567 43.32V45.32C18.033 45.32 17.9261 45.283 17.8502 45.2375C17.7822 45.1967 17.7567 45.1601 17.7631 45.1684L19.3503 43.9516ZM18.1567 43.32H16.3087V45.32H18.1567V43.32ZM17.245 44.6711L17.341 44.4151L15.4684 43.7129L15.3724 43.9689L17.245 44.6711ZM15.4047 44.064V46.328H17.4047V44.064H15.4047ZM17.2685 45.8241L17.1565 45.6321L15.4289 46.6399L15.5409 46.8319L17.2685 45.8241ZM25.7708 47.32L24.8374 46.961L24.8374 46.961L25.7708 47.32ZM25.2028 48.24L24.4668 47.5629L24.4662 47.5636L25.2028 48.24ZM24.3388 48.856L23.9326 47.9422L23.9272 47.9446L24.3388 48.856ZM22.1628 48.856L22.5743 47.9446L22.5743 47.9446L22.1628 48.856ZM21.2988 48.24L20.5555 48.909L20.5625 48.9168L20.5697 48.9244L21.2988 48.24ZM20.7388 47.32L21.6721 46.961L21.6721 46.961L20.7388 47.32ZM20.7388 45.08L21.6721 45.439L21.6721 45.439L20.7388 45.08ZM21.2988 44.168L20.5628 43.4909L20.5622 43.4916L21.2988 44.168ZM22.1628 43.544L22.5743 44.4554L22.5743 44.4554L22.1628 43.544ZM24.3388 43.544L23.9272 44.4554L23.9326 44.4578L24.3388 43.544ZM25.2028 44.168L24.4595 44.837L24.4665 44.8448L24.4737 44.8524L25.2028 44.168ZM25.7708 45.08L24.8374 45.439L24.8374 45.439L25.7708 45.08ZM24.7148 45.232L23.8171 45.6727L23.8203 45.6792L24.7148 45.232ZM24.1228 44.536L24.6855 43.7094L24.6855 43.7094L24.1228 44.536ZM22.3788 44.536L22.9415 45.3626L22.9415 45.3626L22.3788 44.536ZM21.7868 45.224L20.8923 44.7768L20.889 44.7835L20.8857 44.7902L21.7868 45.224ZM21.7868 47.176L20.8827 47.6034L20.8874 47.6133L20.8923 47.6232L21.7868 47.176ZM22.3788 47.864L22.9415 47.0374L22.9415 47.0374L22.3788 47.864ZM24.1228 47.864L24.6855 48.6906L24.6855 48.6906L24.1228 47.864ZM24.7148 47.176L25.6092 47.6232L25.6124 47.6167L24.7148 47.176ZM24.9708 46.2C24.9708 46.4868 24.9234 46.7375 24.8374 46.961L26.7041 47.679C26.8848 47.2092 26.9708 46.7132 26.9708 46.2H24.9708ZM24.8374 46.961C24.7481 47.1932 24.6248 47.3913 24.4668 47.5629L25.9387 48.9171C26.2714 48.5554 26.5267 48.1402 26.7041 47.679L24.8374 46.961ZM24.4662 47.5636C24.3223 47.7203 24.148 47.8464 23.9326 47.9422L24.7449 49.7698C25.2015 49.5669 25.6032 49.2824 25.9393 48.9164L24.4662 47.5636ZM23.9272 47.9446C23.7369 48.0306 23.5161 48.08 23.2508 48.08V50.08C23.7747 50.08 24.2793 49.9801 24.7503 49.7674L23.9272 47.9446ZM23.2508 48.08C22.9854 48.08 22.7646 48.0306 22.5743 47.9446L21.7512 49.7674C22.2222 49.9801 22.7268 50.08 23.2508 50.08V48.08ZM22.5743 47.9446C22.3619 47.8487 22.1821 47.7199 22.0278 47.5556L20.5697 48.9244C20.906 49.2827 21.3023 49.5647 21.7512 49.7674L22.5743 47.9446ZM22.042 47.571C21.8867 47.3984 21.7631 47.1977 21.6721 46.961L19.8054 47.679C19.981 48.1356 20.2308 48.5482 20.5555 48.909L22.042 47.571ZM21.6721 46.961C21.5861 46.7375 21.5388 46.4868 21.5388 46.2H19.5388C19.5388 46.7132 19.6247 47.2092 19.8054 47.679L21.6721 46.961ZM21.5388 46.2C21.5388 45.9132 21.5861 45.6625 21.6721 45.439L19.8054 44.721C19.6247 45.1908 19.5388 45.6868 19.5388 46.2H21.5388ZM21.6721 45.439C21.7625 45.204 21.8842 45.0089 22.0353 44.8444L20.5622 43.4916C20.2333 43.8497 19.9817 44.2627 19.8054 44.721L21.6721 45.439ZM22.0347 44.8451C22.1887 44.6777 22.3663 44.5493 22.5743 44.4554L21.7512 42.6326C21.2979 42.8373 20.8995 43.125 20.5628 43.4909L22.0347 44.8451ZM22.5743 44.4554C22.7646 44.3694 22.9854 44.32 23.2508 44.32V42.32C22.7268 42.32 22.2222 42.4199 21.7512 42.6326L22.5743 44.4554ZM23.2508 44.32C23.5161 44.32 23.7369 44.3694 23.9272 44.4554L24.7503 42.6326C24.2793 42.4199 23.7747 42.32 23.2508 42.32V44.32ZM23.9326 44.4578C24.1436 44.5516 24.3158 44.6773 24.4595 44.837L25.946 43.499C25.6097 43.1253 25.2059 42.8351 24.7449 42.6302L23.9326 44.4578ZM24.4737 44.8524C24.6273 45.0161 24.7488 45.2085 24.8374 45.439L26.7041 44.721C26.5261 44.2581 26.2689 43.8426 25.9318 43.4836L24.4737 44.8524ZM24.8374 45.439C24.9234 45.6625 24.9708 45.9132 24.9708 46.2H26.9708C26.9708 45.6868 26.8848 45.1908 26.7041 44.721L24.8374 45.439ZM25.9308 46.2C25.9308 45.7047 25.8299 45.2263 25.6092 44.7848L23.8203 45.6792C23.8876 45.8137 23.9308 45.9807 23.9308 46.2H25.9308ZM25.6124 44.7913C25.3982 44.355 25.0904 43.9851 24.6855 43.7094L23.56 45.3626C23.6564 45.4283 23.7433 45.5224 23.8171 45.6727L25.6124 44.7913ZM24.6855 43.7094C24.2539 43.4155 23.7632 43.28 23.2508 43.28V45.28C23.3997 45.28 23.4903 45.3151 23.56 45.3626L24.6855 43.7094ZM23.2508 43.28C22.7383 43.28 22.2476 43.4155 21.816 43.7094L22.9415 45.3626C23.0112 45.3151 23.1018 45.28 23.2508 45.28V43.28ZM21.816 43.7094C21.4154 43.9821 21.1078 44.3459 20.8923 44.7768L22.6812 45.6712C22.7537 45.5261 22.8407 45.4312 22.9415 45.3626L21.816 43.7094ZM20.8857 44.7902C20.6737 45.2307 20.5788 45.7074 20.5788 46.2H22.5788C22.5788 45.9672 22.6225 45.7933 22.6878 45.6578L20.8857 44.7902ZM20.5788 46.2C20.5788 46.69 20.6747 47.1634 20.8827 47.6034L22.6908 46.7486C22.6215 46.602 22.5788 46.4247 22.5788 46.2H20.5788ZM20.8923 47.6232C21.1078 48.0541 21.4154 48.4179 21.816 48.6906L22.9415 47.0374C22.8407 46.9688 22.7537 46.8739 22.6812 46.7288L20.8923 47.6232ZM21.816 48.6906C22.2476 48.9845 22.7383 49.12 23.2508 49.12V47.12C23.1018 47.12 23.0112 47.0849 22.9415 47.0374L21.816 48.6906ZM23.2508 49.12C23.7632 49.12 24.2539 48.9845 24.6855 48.6906L23.56 47.0374C23.4903 47.0849 23.3997 47.12 23.2508 47.12V49.12ZM24.6855 48.6906C25.0861 48.4179 25.3937 48.0541 25.6092 47.6232L23.8203 46.7288C23.7478 46.8739 23.6608 46.9688 23.56 47.0374L24.6855 48.6906ZM25.6124 47.6167C25.8299 47.1737 25.9308 46.6956 25.9308 46.2H23.9308C23.9308 46.4191 23.8876 46.5916 23.8171 46.7353L25.6124 47.6167ZM28.3931 48.856L28.0025 49.7766L28.0025 49.7766L28.3931 48.856ZM27.4651 48.24L26.7579 48.9471L26.7651 48.9542L27.4651 48.24ZM26.8331 47.32L25.9146 47.7157L25.9198 47.7274L26.8331 47.32ZM26.8331 45.08L25.9198 44.6725L25.9146 44.6844L26.8331 45.08ZM27.4651 44.168L28.165 44.8822L28.1722 44.8751L27.4651 44.168ZM28.3931 43.544L28.0025 42.6234L28.0025 42.6234L28.3931 43.544ZM30.9051 43.64L30.4295 44.5197L30.4345 44.5224L30.9051 43.64ZM31.0811 43.816L30.1866 44.2632L30.2063 44.3026L30.2294 44.3401L31.0811 43.816ZM31.0171 44.376L30.2522 43.7319L30.2522 43.7319L31.0171 44.376ZM30.5531 44.512L30.3105 45.4821L30.3233 45.4853L30.3361 45.4882L30.5531 44.512ZM30.4251 44.464L30.8723 43.5696L30.8503 43.5586L30.8278 43.5487L30.4251 44.464ZM30.0011 44.328L30.2106 43.3502L30.2106 43.3502L30.0011 44.328ZM28.5771 44.544L29.0939 45.4001L29.0985 45.3973L28.5771 44.544ZM27.8971 45.24L27.0327 44.7371L27.0298 44.7421L27.8971 45.24ZM27.8971 47.16L27.0258 47.6511L27.0327 47.6629L27.8971 47.16ZM28.5771 47.864L28.0485 48.7129L28.0578 48.7187L28.0673 48.7243L28.5771 47.864ZM30.0571 48.072L30.2215 49.0584L30.2215 49.0584L30.0571 48.072ZM30.5291 47.944L31.4869 48.2313L32.1059 46.168L30.1303 47.0269L30.5291 47.944ZM30.4571 48.184H29.4571L31.4149 48.4713L30.4571 48.184ZM30.4571 46.816L31.1187 46.0662L29.4571 44.6V46.816H30.4571ZM30.5931 46.936V47.936H33.2378L31.2547 46.1862L30.5931 46.936ZM29.3531 46.8L28.646 47.5071L28.6561 47.5172L28.6664 47.527L29.3531 46.8ZM29.3531 46.112L28.6664 45.385L28.6561 45.3948L28.646 45.4049L29.3531 46.112ZM31.3611 46.12L30.634 46.8066L30.6439 46.817L30.654 46.8271L31.3611 46.12ZM31.4171 48.424L30.6244 47.8143L30.6091 47.8342L30.5949 47.8548L31.4171 48.424ZM31.2491 48.592L31.769 49.4462L31.7866 49.4355L31.8038 49.4241L31.2491 48.592ZM30.4411 48.952L30.7252 49.9109L30.7364 49.9074L30.4411 48.952ZM29.5291 48.08C29.2497 48.08 29.0048 48.0292 28.7836 47.9354L28.0025 49.7766C28.4854 49.9814 28.9977 50.08 29.5291 50.08V48.08ZM28.7836 47.9354C28.5439 47.8337 28.3402 47.6975 28.165 47.5258L26.7651 48.9542C27.1233 49.3052 27.5382 49.5796 28.0025 49.7766L28.7836 47.9354ZM28.1722 47.5329C27.9925 47.3533 27.8515 47.1483 27.7463 46.9126L25.9198 47.7274C26.124 48.185 26.4043 48.5934 26.758 48.9471L28.1722 47.5329ZM27.7515 46.9244C27.6591 46.71 27.6091 46.4722 27.6091 46.2H25.6091C25.6091 46.7278 25.7083 47.2366 25.9146 47.7156L27.7515 46.9244ZM27.6091 46.2C27.6091 45.9278 27.6591 45.69 27.7515 45.4756L25.9146 44.6844C25.7083 45.1634 25.6091 45.6722 25.6091 46.2H27.6091ZM27.7463 45.4874C27.8506 45.2536 27.9896 45.0541 28.165 44.8822L26.7651 43.4538C26.4072 43.8046 26.1248 44.2131 25.9198 44.6726L27.7463 45.4874ZM28.1722 44.8751C28.3467 44.7006 28.5482 44.5645 28.7836 44.4646L28.0025 42.6234C27.5339 42.8222 27.1167 43.1021 26.758 43.4609L28.1722 44.8751ZM28.7836 44.4646C29.0048 44.3708 29.2497 44.32 29.5291 44.32V42.32C28.9977 42.32 28.4854 42.4186 28.0025 42.6234L28.7836 44.4646ZM29.5291 44.32C29.7083 44.32 29.8765 44.339 30.0354 44.3751L30.4787 42.4249C30.1683 42.3543 29.8512 42.32 29.5291 42.32V44.32ZM30.0354 44.3751C30.188 44.4098 30.3177 44.4593 30.4295 44.5197L31.3806 42.7603C31.0977 42.6074 30.7955 42.4969 30.4787 42.4249L30.0354 44.3751ZM30.4345 44.5224C30.3481 44.4763 30.2501 44.3902 30.1866 44.2632L31.9755 43.3688C31.8374 43.0925 31.6221 42.8891 31.3756 42.7576L30.4345 44.5224ZM30.2294 44.3401C30.1842 44.2666 30.1451 44.159 30.1451 44.032H32.1451C32.1451 43.7557 32.0633 43.5041 31.9327 43.2919L30.2294 44.3401ZM30.1451 44.032C30.1451 43.9825 30.1538 43.9246 30.1758 43.8653C30.1977 43.8064 30.227 43.7618 30.2522 43.7319L31.782 45.0201C32.0134 44.7454 32.1451 44.4045 32.1451 44.032H30.1451ZM30.2522 43.7319C30.2942 43.6819 30.3599 43.6247 30.4506 43.5827C30.5412 43.5407 30.6261 43.528 30.6891 43.528V45.528C31.1152 45.528 31.5052 45.3488 31.782 45.0201L30.2522 43.7319ZM30.6891 43.528C30.7294 43.528 30.7573 43.533 30.77 43.5358L30.3361 45.4882C30.4448 45.5123 30.5634 45.528 30.6891 45.528V43.528ZM30.7956 43.5419C30.8294 43.5503 30.8551 43.561 30.8723 43.5696L29.9778 45.3584C30.0803 45.4097 30.1914 45.4524 30.3105 45.4821L30.7956 43.5419ZM30.8278 43.5487C30.6294 43.4614 30.4231 43.3957 30.2106 43.3502L29.7915 45.3058C29.8777 45.3243 29.954 45.3493 30.0223 45.3793L30.8278 43.5487ZM30.2106 43.3502C29.987 43.3023 29.7591 43.28 29.5291 43.28V45.28C29.6297 45.28 29.7165 45.2897 29.7915 45.3058L30.2106 43.3502ZM29.5291 43.28C29.0036 43.28 28.505 43.4161 28.0556 43.6907L29.0985 45.3973C29.2251 45.3199 29.3612 45.28 29.5291 45.28V43.28ZM28.0602 43.6879C27.6298 43.9478 27.2853 44.303 27.0327 44.7371L28.7614 45.7429C28.8502 45.5904 28.959 45.4815 29.0939 45.4001L28.0602 43.6879ZM27.0298 44.7421C26.7722 45.1908 26.6491 45.6842 26.6491 46.2H28.6491C28.6491 46.0118 28.6912 45.8652 28.7643 45.7379L27.0298 44.7421ZM26.6491 46.2C26.6491 46.7134 26.7735 47.2033 27.0259 47.651L28.7682 46.669C28.6899 46.5301 28.6491 46.3799 28.6491 46.2H26.6491ZM27.0327 47.6629C27.2838 48.0944 27.6246 48.449 28.0485 48.7129L29.1056 47.0151C28.9642 46.927 28.8517 46.8123 28.7614 46.6571L27.0327 47.6629ZM28.0673 48.7243C28.5152 48.9898 29.0097 49.12 29.5291 49.12V47.12C29.3551 47.12 29.2149 47.0796 29.0869 47.0037L28.0673 48.7243ZM29.5291 49.12C29.7544 49.12 29.9863 49.0976 30.2215 49.0584L29.8927 47.0856C29.7438 47.1104 29.6237 47.12 29.5291 47.12V49.12ZM30.2215 49.0584C30.4611 49.0185 30.7046 48.9581 30.9278 48.8611L30.1303 47.0269C30.1082 47.0366 30.0371 47.0615 29.8927 47.0856L30.2215 49.0584ZM29.5712 47.6567L29.4992 47.8967L31.4149 48.4713L31.4869 48.2313L29.5712 47.6567ZM31.4571 48.184V46.816H29.4571V48.184H31.4571ZM29.7954 47.5658L29.9314 47.6858L31.2547 46.1862L31.1187 46.0662L29.7954 47.5658ZM30.5931 45.936H29.7051V47.936H30.5931V45.936ZM29.7051 45.936C29.7464 45.936 29.806 45.9431 29.8735 45.9692C29.9418 45.9956 29.9981 46.0337 30.0397 46.073L28.6664 47.527C28.9581 47.8025 29.3252 47.936 29.7051 47.936V45.936ZM30.0602 46.0929C30.1076 46.1403 30.1514 46.2034 30.181 46.2783C30.21 46.3517 30.2171 46.4151 30.2171 46.456H28.2171C28.2171 46.836 28.3515 47.2127 28.646 47.5071L30.0602 46.0929ZM30.2171 46.456C30.2171 46.4969 30.21 46.5603 30.181 46.6337C30.1514 46.7086 30.1076 46.7717 30.0602 46.8191L28.646 45.4049C28.3515 45.6993 28.2171 46.076 28.2171 46.456H30.2171ZM30.0397 46.839C29.9981 46.8783 29.9418 46.9164 29.8735 46.9428C29.806 46.9689 29.7464 46.976 29.7051 46.976V44.976C29.3252 44.976 28.9581 45.1095 28.6664 45.385L30.0397 46.839ZM29.7051 46.976H31.0171V44.976H29.7051V46.976ZM31.0171 46.976C30.9691 46.976 30.8993 46.9672 30.8209 46.9344C30.7415 46.9012 30.6785 46.8537 30.634 46.8066L32.0881 45.4334C31.7981 45.1264 31.4154 44.976 31.0171 44.976V46.976ZM30.654 46.8271C30.6065 46.7797 30.5627 46.7166 30.5331 46.6417C30.5041 46.5683 30.4971 46.5049 30.4971 46.464H32.4971C32.4971 46.084 32.3626 45.7073 32.0682 45.4129L30.654 46.8271ZM30.4971 46.464V48.16H32.4971V46.464H30.4971ZM30.4971 48.16C30.4971 48.0958 30.5159 47.9554 30.6244 47.8143L32.2097 49.0337C32.4249 48.7539 32.4971 48.4375 32.4971 48.16H30.4971ZM30.5949 47.8548C30.6117 47.8304 30.6437 47.7937 30.6944 47.7599L31.8038 49.4241C31.9824 49.305 32.1264 49.1562 32.2393 48.9932L30.5949 47.8548ZM30.7291 47.7378C30.5589 47.8414 30.3657 47.9286 30.1458 47.9966L30.7364 49.9074C31.1031 49.7941 31.4486 49.6412 31.769 49.4462L30.7291 47.7378ZM30.157 47.9932C29.967 48.0495 29.7592 48.08 29.5291 48.08V50.08C29.939 50.08 30.3391 50.0252 30.7252 49.9108L30.157 47.9932ZM32.6354 48.864L32.0021 49.638L32.0129 49.6468L32.0239 49.6553L32.6354 48.864ZM32.5954 43.544L31.8883 42.8369L31.8883 42.8369L32.5954 43.544ZM36.0274 43.624L35.4991 44.4731L35.51 44.4799L35.5212 44.4864L36.0274 43.624ZM36.6194 44.232L35.7511 44.7282L35.7556 44.7359L36.6194 44.232ZM36.7154 45.712L35.8016 45.3059L35.7968 45.3166L35.7923 45.3274L36.7154 45.712ZM36.3794 46.232L35.6475 45.5506L35.6411 45.5575L35.6348 45.5645L36.3794 46.232ZM35.9074 46.592L34.9083 46.5486L34.8355 48.223L36.3436 47.4918L35.9074 46.592ZM35.9154 46.408L36.3876 45.5265L34.9854 44.7754L34.9163 46.3646L35.9154 46.408ZM36.2834 46.696L35.5241 47.3468L35.5408 47.3662L35.5584 47.3847L36.2834 46.696ZM36.5154 47.048L35.5923 47.4326L35.6022 47.4563L35.6132 47.4795L36.5154 47.048ZM36.6194 47.448L35.6221 47.5219L35.6252 47.5641L35.6319 47.606L36.6194 47.448ZM36.6594 47.8L35.6608 47.8526L35.6621 47.8787L35.6649 47.9047L36.6594 47.8ZM36.7074 48.056L35.7516 48.3501L35.7617 48.3829L35.774 48.415L36.7074 48.056ZM36.8514 48.216L37.3601 47.3551L37.343 47.345L37.3255 47.3355L36.8514 48.216ZM37.0674 48.52L36.0868 48.7161L36.0915 48.7394L36.0972 48.7625L37.0674 48.52ZM36.9794 48.864L36.2341 48.1972L36.2249 48.2075L36.216 48.2181L36.9794 48.864ZM36.7554 49L36.9292 49.9848L36.9569 49.9799L36.9844 49.9734L36.7554 49ZM36.4834 49L36.2543 49.9734L36.2818 49.9799L36.3096 49.9848L36.4834 49ZM36.2594 48.92L35.7524 49.7819L35.7663 49.7901L35.7805 49.7979L36.2594 48.92ZM35.9874 48.688L35.2254 49.3356L35.2337 49.3453L35.2421 49.3548L35.9874 48.688ZM35.7634 48.264L34.8064 48.554L34.8103 48.5672L34.8147 48.5802L35.7634 48.264ZM35.6354 47.336L34.7069 47.7074L34.7114 47.7187L34.7162 47.7299L35.6354 47.336ZM35.4994 47.136L34.7923 47.8431L34.8091 47.8599L34.8267 47.8759L35.4994 47.136ZM35.2754 47.008L34.9426 47.951L34.9677 47.9599L34.9932 47.9674L35.2754 47.008ZM33.3394 46.96L32.5018 46.4137L31.4933 47.96H33.3394V46.96ZM33.4594 46.776H34.4594V43.4121L32.6218 46.2297L33.4594 46.776ZM33.3474 48.864L34.1193 49.4997L34.1282 49.4889L34.1367 49.4779L33.3474 48.864ZM33.3474 46.136V45.136H31.6063L32.4836 46.6399L33.3474 46.136ZM35.4914 46.008L36.1767 46.7362L36.1878 46.7258L36.1985 46.7151L35.4914 46.008ZM35.7154 45.648L36.6462 46.0137L36.6504 46.0027L35.7154 45.648ZM35.6114 44.56L34.8178 45.1684L34.8291 45.1832L34.841 45.1976L35.6114 44.56ZM33.3634 44.32L32.427 43.9689L31.9204 45.32H33.3634V44.32ZM33.4594 44.064H34.4594L32.523 43.7129L33.4594 44.064ZM33.4594 46.328L32.5956 46.8319L34.4594 50.0269V46.328H33.4594ZM33.0354 48C33.0636 48 33.1022 48.0046 33.1453 48.0192C33.1885 48.0339 33.2229 48.0542 33.2468 48.0727L32.0239 49.6553C32.3177 49.8823 32.6664 50 33.0354 50V48ZM33.2686 48.09C33.3022 48.1175 33.355 48.1712 33.3978 48.2568C33.4419 48.3449 33.4594 48.4352 33.4594 48.512H31.4594C31.4594 48.9811 31.6773 49.3722 32.0021 49.638L33.2686 48.09ZM33.4594 48.512V43.888H31.4594V48.512H33.4594ZM33.4594 43.888C33.4594 43.9289 33.4524 43.9923 33.4233 44.0657C33.3937 44.1406 33.3499 44.2037 33.3025 44.2511L31.8883 42.8369C31.5938 43.1313 31.4594 43.508 31.4594 43.888H33.4594ZM33.3025 44.2511C33.2633 44.2903 33.2068 44.3318 33.134 44.3615C33.0617 44.3911 32.9956 44.4 32.9474 44.4V42.4C32.5498 42.4 32.1763 42.5489 31.8883 42.8369L33.3025 44.2511ZM32.9474 44.4H35.2514V42.4H32.9474V44.4ZM35.2514 44.4C35.3382 44.4 35.4144 44.4204 35.4991 44.4731L36.5557 42.7749C36.1603 42.529 35.7192 42.4 35.2514 42.4V44.4ZM35.5212 44.4864C35.6071 44.5368 35.6832 44.6093 35.7511 44.7281L37.4876 43.7359C37.2569 43.3321 36.9383 42.9992 36.5336 42.7616L35.5212 44.4864ZM35.7556 44.7359C35.8043 44.8194 35.8434 44.9369 35.8434 45.12H37.8434C37.8434 44.6311 37.7331 44.1566 37.4832 43.7281L35.7556 44.7359ZM35.8434 45.12C35.8434 45.1776 35.8322 45.2369 35.8016 45.3059L37.6292 46.1181C37.7692 45.8031 37.8434 45.4678 37.8434 45.12H35.8434ZM35.7923 45.3274C35.7587 45.4081 35.712 45.4813 35.6475 45.5506L37.1113 46.9134C37.3348 46.6734 37.5121 46.3999 37.6385 46.0966L35.7923 45.3274ZM35.6348 45.5645C35.5774 45.6285 35.5231 45.667 35.4711 45.6922L36.3436 47.4918C36.6436 47.3464 36.904 47.1448 37.1239 46.8995L35.6348 45.5645ZM36.9064 46.6354L36.9144 46.4514L34.9163 46.3646L34.9083 46.5486L36.9064 46.6354ZM35.4432 47.2895C35.4994 47.3196 35.5197 47.3417 35.5241 47.3468L37.0426 46.0452C36.855 45.8263 36.6301 45.6564 36.3876 45.5265L35.4432 47.2895ZM35.5584 47.3847C35.5809 47.4084 35.5887 47.424 35.5923 47.4326L37.4385 46.6634C37.3354 46.416 37.1886 46.1969 37.0084 46.0073L35.5584 47.3847ZM35.6132 47.4795C35.615 47.4831 35.6201 47.4942 35.6221 47.5219L37.6166 47.3741C37.5974 47.1138 37.5331 46.8583 37.4175 46.6165L35.6132 47.4795ZM35.6319 47.606C35.6494 47.715 35.6578 47.7959 35.6608 47.8526L37.658 47.7474C37.6503 47.6015 37.632 47.4476 37.6068 47.29L35.6319 47.606ZM35.6649 47.9047C35.6798 48.0467 35.7054 48.1999 35.7516 48.3501L37.6632 47.7619C37.6655 47.7695 37.6646 47.7683 37.6622 47.7557C37.66 47.7435 37.6569 47.7237 37.6539 47.6953L35.6649 47.9047ZM35.774 48.415C35.892 48.7216 36.1112 48.9532 36.3773 49.0965L37.3255 47.3355C37.3822 47.3661 37.4466 47.4123 37.5067 47.479C37.5673 47.5464 37.6118 47.6217 37.6407 47.697L35.774 48.415ZM36.3426 49.0769C36.2923 49.0472 36.231 48.9975 36.1782 48.9232C36.1254 48.8488 36.0984 48.7743 36.0868 48.7161L38.048 48.3239C37.9654 47.9112 37.7214 47.5685 37.3601 47.3551L36.3426 49.0769ZM36.0972 48.7625C36.0777 48.6843 36.0696 48.5754 36.1006 48.4542C36.1313 48.3342 36.1884 48.2483 36.2341 48.1972L37.7246 49.5308C38.0283 49.1914 38.1528 48.7387 38.0375 48.2775L36.0972 48.7625ZM36.216 48.2181C36.2535 48.1737 36.3019 48.1307 36.3604 48.0952C36.4187 48.0598 36.4762 48.0384 36.5263 48.0266L36.9844 49.9734C37.278 49.9043 37.5419 49.7473 37.7428 49.5099L36.216 48.2181ZM36.5816 48.0152C36.6059 48.0109 36.6329 48.0109 36.6572 48.0152L36.3096 49.9848C36.5152 50.0211 36.7235 50.0211 36.9292 49.9848L36.5816 48.0152ZM36.7124 48.0266C36.6973 48.023 36.6925 48.0211 36.6957 48.0223C36.6987 48.0233 36.7143 48.029 36.7382 48.0421L35.7805 49.7979C35.9419 49.8859 36.108 49.939 36.2543 49.9734L36.7124 48.0266ZM36.7664 48.0581C36.7773 48.0645 36.7791 48.0669 36.7723 48.0612C36.7655 48.0554 36.7521 48.043 36.7326 48.0212L35.2421 49.3548C35.3826 49.5118 35.551 49.6635 35.7524 49.7819L36.7664 48.0581ZM36.7493 48.0404C36.7573 48.0497 36.7556 48.05 36.7476 48.0349C36.7395 48.0196 36.7268 47.9918 36.7121 47.9478L34.8147 48.5802C34.9014 48.8403 35.0297 49.1054 35.2254 49.3356L36.7493 48.0404ZM36.7204 47.974C36.7061 47.9268 36.6834 47.8076 36.6834 47.584H34.6834C34.6834 47.9151 34.714 48.2492 34.8064 48.554L36.7204 47.974ZM36.6834 47.584C36.6834 47.3737 36.6457 47.1549 36.5545 46.9421L34.7162 47.7299C34.689 47.6664 34.6834 47.613 34.6834 47.584H36.6834ZM36.5639 46.9646C36.4806 46.7564 36.3523 46.5599 36.172 46.3961L34.8267 47.8759C34.7638 47.8188 34.7262 47.7556 34.7069 47.7074L36.5639 46.9646ZM36.2065 46.4289C36.0139 46.2363 35.7861 46.1159 35.5575 46.0486L34.9932 47.9674C34.946 47.9535 34.8675 47.9184 34.7923 47.8431L36.2065 46.4289ZM35.6082 46.065C35.3858 45.9865 35.1616 45.96 34.9554 45.96V47.96C34.9737 47.96 34.9809 47.9612 34.979 47.9609C34.977 47.9606 34.9638 47.9585 34.9426 47.951L35.6082 46.065ZM34.9554 45.96H33.3394V47.96H34.9554V45.96ZM34.177 47.5063L34.297 47.3223L32.6218 46.2297L32.5018 46.4137L34.177 47.5063ZM32.4594 46.776V48.512H34.4594V46.776H32.4594ZM32.4594 48.512C32.4594 48.4912 32.4623 48.4517 32.4784 48.4008C32.4951 48.3485 32.522 48.2964 32.558 48.2501L34.1367 49.4779C34.3667 49.1822 34.4594 48.8403 34.4594 48.512H32.4594ZM32.5754 48.2283C32.6347 48.1564 32.7161 48.0919 32.8138 48.0493C32.908 48.0083 32.9883 48 33.0354 48V50C33.4221 50 33.8276 49.854 34.1193 49.4997L32.5754 48.2283ZM33.3474 47.136H35.2114V45.136H33.3474V47.136ZM35.2114 47.136C35.6308 47.136 35.9575 46.9425 36.1767 46.7362L34.806 45.2798C34.8439 45.2441 34.9839 45.136 35.2114 45.136V47.136ZM36.1985 46.7151C36.4075 46.5061 36.5494 46.2598 36.6461 46.0137L34.7846 45.2823C34.7746 45.3079 34.7676 45.3197 34.7663 45.3217C34.7653 45.3234 34.7704 45.3147 34.7843 45.3009L36.1985 46.7151ZM36.6504 46.0027C36.756 45.7243 36.8034 45.4348 36.8034 45.144H34.8034C34.8034 45.2158 34.7921 45.2624 34.7804 45.2933L36.6504 46.0027ZM36.8034 45.144C36.8034 44.7178 36.6825 44.2858 36.3818 43.9224L34.841 45.1976C34.8331 45.1881 34.8256 45.1771 34.819 45.1652C34.8125 45.1533 34.8081 45.1426 34.8054 45.1343C34.7998 45.1174 34.8034 45.1176 34.8034 45.144H36.8034ZM36.405 43.9516C36.1734 43.6495 35.7781 43.32 35.2114 43.32V45.32C35.0877 45.32 34.9808 45.283 34.9049 45.2375C34.8369 45.1967 34.8114 45.1601 34.8178 45.1684L36.405 43.9516ZM35.2114 43.32H33.3634V45.32H35.2114V43.32ZM34.2997 44.6711L34.3957 44.4151L32.523 43.7129L32.427 43.9689L34.2997 44.6711ZM32.4594 44.064V46.328H34.4594V44.064H32.4594ZM34.3232 45.8241L34.2112 45.6321L32.4836 46.6399L32.5956 46.8319L34.3232 45.8241ZM40.0076 44.656L40.9278 45.0473L41.6751 43.2898L39.805 43.6767L40.0076 44.656ZM38.2796 48.72L37.3593 48.3287L37.3497 48.3513L37.3412 48.3743L38.2796 48.72ZM38.1036 48.96L38.6848 49.7738L38.6949 49.7664L38.1036 48.96ZM37.5356 48.92L38.2913 48.2651L38.2913 48.2651L37.5356 48.92ZM37.4556 48.472L36.5324 48.0876L36.5126 48.1352L36.4977 48.1847L37.4556 48.472ZM39.4476 43.688L40.3708 44.0724L40.376 44.0594L39.4476 43.688ZM39.6396 43.44L39.0963 42.6004L39.0846 42.608L39.073 42.616L39.6396 43.44ZM39.9276 43.368L39.8229 44.3625L39.8751 44.368H39.9276V43.368ZM40.1916 43.456L39.6002 44.2624L39.6301 44.2843L39.6616 44.304L40.1916 43.456ZM40.3756 43.688L39.4372 44.0337L39.4449 44.0546L39.4535 44.0751L40.3756 43.688ZM42.3436 48.376L43.2769 48.017L43.2715 48.0029L43.2656 47.9889L42.3436 48.376ZM42.2396 48.912L41.5752 48.1646L41.5646 48.174L41.5542 48.1838L42.2396 48.912ZM41.6716 48.952L41.0537 49.7383L41.0668 49.7486L41.0802 49.7584L41.6716 48.952ZM41.4956 48.712L42.4172 48.3239L42.4145 48.3176L41.4956 48.712ZM39.7756 44.704L39.573 43.7247L38.3736 43.9729L38.8566 45.0984L39.7756 44.704ZM38.5276 47.744L37.6254 47.3125L36.9408 48.744H38.5276V47.744ZM38.9676 46.824V45.824H38.3373L38.0654 46.3925L38.9676 46.824ZM41.1276 46.824L42.1142 46.661L41.9759 45.824H41.1276V46.824ZM41.2796 47.744V48.744H42.4583L42.2662 47.581L41.2796 47.744ZM39.0873 44.2647L37.3593 48.3287L39.1998 49.1113L40.9278 45.0473L39.0873 44.2647ZM37.3412 48.3743C37.352 48.345 37.3706 48.3063 37.4012 48.2646C37.4321 48.2224 37.47 48.1846 37.5122 48.1536L38.6949 49.7664C38.9474 49.5813 39.1189 49.3343 39.2179 49.0657L37.3412 48.3743ZM37.5223 48.1463C37.564 48.1165 37.6165 48.0883 37.6786 48.0683C37.7407 48.0482 37.8013 48.04 37.8556 48.04V50.04C38.1573 50.04 38.4427 49.9466 38.6848 49.7737L37.5223 48.1463ZM37.8556 48.04C37.8732 48.04 37.9345 48.0421 38.0187 48.0737C38.1093 48.1077 38.2084 48.1695 38.2913 48.2651L36.7799 49.5749C37.1008 49.9452 37.5312 50.04 37.8556 50.04V48.04ZM38.2913 48.2651C38.3379 48.3189 38.3761 48.3837 38.401 48.4545C38.4254 48.5238 38.4316 48.5834 38.4316 48.624H36.4316C36.4316 48.9539 36.5356 49.293 36.7799 49.5749L38.2913 48.2651ZM38.4316 48.624C38.4316 48.6874 38.421 48.734 38.4134 48.7593L36.4977 48.1847C36.4581 48.3167 36.4316 48.4646 36.4316 48.624H38.4316ZM38.3787 48.8564L40.3707 44.0724L38.5244 43.3036L36.5324 48.0876L38.3787 48.8564ZM40.376 44.0594C40.3662 44.0839 40.3485 44.1192 40.3183 44.1582C40.2876 44.1978 40.2495 44.2342 40.2061 44.264L39.073 42.616C38.8075 42.7985 38.6267 43.0475 38.5191 43.3166L40.376 44.0594ZM40.1828 44.2796C40.1442 44.3046 40.0901 44.3311 40.0221 44.3481C39.9533 44.3653 39.885 44.369 39.8229 44.3625L40.0322 42.3735C39.6893 42.3374 39.3665 42.4256 39.0963 42.6004L40.1828 44.2796ZM39.9276 44.368C39.8719 44.368 39.8108 44.3592 39.7493 44.3387C39.6882 44.3183 39.6381 44.2902 39.6002 44.2624L40.7829 42.6496C40.5375 42.4696 40.2437 42.368 39.9276 42.368V44.368ZM39.6616 44.304C39.6093 44.2714 39.5597 44.2279 39.5181 44.1754C39.4769 44.1235 39.4518 44.0732 39.4372 44.0337L41.3139 43.3423C41.2059 43.0491 41.0091 42.7877 40.7216 42.608L39.6616 44.304ZM39.4535 44.0751L41.4215 48.7631L43.2656 47.9889L41.2976 43.3009L39.4535 44.0751ZM41.4102 48.735C41.4041 48.719 41.3836 48.6599 41.3836 48.568H43.3836C43.3836 48.3588 43.3364 48.1717 43.2769 48.017L41.4102 48.735ZM41.3836 48.568C41.3836 48.5282 41.3905 48.4586 41.4251 48.3759C41.4609 48.2903 41.515 48.2181 41.5752 48.1646L42.9039 49.6594C43.2406 49.3601 43.3836 48.9591 43.3836 48.568H41.3836ZM41.5542 48.1838C41.5843 48.1555 41.6348 48.117 41.7075 48.0864C41.782 48.055 41.8608 48.04 41.9356 48.04V50.04C42.3316 50.04 42.6712 49.879 42.9249 49.6402L41.5542 48.1838ZM41.9356 48.04C41.9913 48.04 42.0523 48.0488 42.1138 48.0693C42.175 48.0897 42.225 48.1178 42.2629 48.1456L41.0802 49.7584C41.3256 49.9384 41.6194 50.04 41.9356 50.04V48.04ZM42.2894 48.1657C42.3679 48.2274 42.4045 48.2938 42.4172 48.3239L40.5739 49.1001C40.672 49.3329 40.8259 49.5593 41.0537 49.7383L42.2894 48.1657ZM42.4145 48.3176L40.6945 44.3096L38.8566 45.0984L40.5766 49.1064L42.4145 48.3176ZM39.9782 45.6833L40.2102 45.6353L39.805 43.6767L39.573 43.7247L39.9782 45.6833ZM39.4297 48.1755L39.8697 47.2555L38.0654 46.3925L37.6254 47.3125L39.4297 48.1755ZM38.9676 47.824H41.1276V45.824H38.9676V47.824ZM40.1409 46.987L40.2929 47.907L42.2662 47.581L42.1142 46.661L40.1409 46.987ZM41.2796 46.744H38.5276V48.744H41.2796V46.744ZM43.7969 43.456L43.3263 44.3384L43.3606 44.3566L43.3961 44.3722L43.7969 43.456ZM43.9889 43.608L44.8275 43.0631L44.821 43.0533L43.9889 43.608ZM45.9329 46.6L45.893 47.5992L47.8249 47.6765L46.7715 46.0552L45.9329 46.6ZM45.5329 46.584L44.7019 46.0278L43.7086 47.5118L45.493 47.5832L45.5329 46.584ZM47.5249 43.608L46.7071 43.0325L46.7004 43.0421L46.6939 43.0518L47.5249 43.608ZM48.2609 43.528L47.5941 44.2732L47.5941 44.2732L48.2609 43.528ZM48.2769 48.864L48.984 49.5711L48.9941 49.561L49.004 49.5506L48.2769 48.864ZM47.5489 48.864L46.8219 49.5506L46.8415 49.5714L46.8623 49.591L47.5489 48.864ZM47.4129 44.744L47.6378 43.7696L46.4129 43.4869V44.744H47.4129ZM47.7249 44.816L48.5611 45.3645L49.3483 44.1643L47.9498 43.8416L47.7249 44.816ZM46.0929 47.304L46.8669 47.9372L46.9002 47.8965L46.9291 47.8525L46.0929 47.304ZM45.9089 47.456L45.4128 46.5878L45.3987 46.5958L45.3848 46.6043L45.9089 47.456ZM45.6929 47.512L45.7642 46.5145L45.6902 46.5093L45.6162 46.5149L45.6929 47.512ZM45.4769 47.456L44.9528 48.3077L44.9667 48.3162L44.9808 48.3242L45.4769 47.456ZM45.3009 47.304L44.4558 47.8385L44.4884 47.89L44.527 47.9372L45.3009 47.304ZM43.7729 44.888L42.8751 44.4476L42.6288 44.9498L42.9278 45.4225L43.7729 44.888ZM43.9809 44.464H44.9809L43.0831 44.0236L43.9809 44.464ZM43.8529 48.864L44.5811 49.5494L44.5909 49.539L44.6003 49.5284L43.8529 48.864ZM43.1889 48.864L42.4415 49.5284L42.451 49.539L42.4607 49.5494L43.1889 48.864ZM43.2049 43.536L42.5172 42.81L42.5074 42.8193L42.4978 42.8289L43.2049 43.536ZM43.5649 44.392C43.4438 44.392 43.3604 44.3565 43.3263 44.3384L44.2675 42.5736C44.0734 42.4701 43.8354 42.392 43.5649 42.392V44.392ZM43.3961 44.3722C43.3434 44.3491 43.2409 44.2888 43.1569 44.1627L44.821 43.0533C44.6516 42.7992 44.4212 42.6376 44.1978 42.5398L43.3961 44.3722ZM43.1504 44.1528L45.0944 47.1448L46.7715 46.0552L44.8275 43.0632L43.1504 44.1528ZM45.9729 45.6008L45.5729 45.5848L45.493 47.5832L45.893 47.5992L45.9729 45.6008ZM46.364 47.1402L48.356 44.1642L46.6939 43.0518L44.7019 46.0278L46.364 47.1402ZM48.3427 44.1835C48.3216 44.2135 48.2712 44.2724 48.1815 44.3218C48.0884 44.3732 47.9931 44.392 47.9169 44.392V42.392C47.3951 42.392 46.9738 42.6536 46.7071 43.0325L48.3427 44.1835ZM47.9169 44.392C47.8599 44.392 47.7955 44.3813 47.7313 44.356C47.6681 44.331 47.6225 44.2986 47.5941 44.2732L48.9277 42.7828C48.6555 42.5392 48.3072 42.392 47.9169 42.392V44.392ZM47.5941 44.2732C47.5438 44.2282 47.4927 44.1633 47.4569 44.0804C47.4217 43.999 47.4129 43.9271 47.4129 43.88H49.4129C49.4129 43.4705 49.2548 43.0754 48.9277 42.7828L47.5941 44.2732ZM47.4129 43.88V48.512H49.4129V43.88H47.4129ZM47.4129 48.512C47.4129 48.4707 47.4201 48.4111 47.4461 48.3436C47.4726 48.2752 47.5106 48.219 47.5499 48.1774L49.004 49.5506C49.2794 49.259 49.4129 48.8919 49.4129 48.512H47.4129ZM47.5698 48.1569C47.6249 48.1018 47.6928 48.058 47.7655 48.0305C47.8354 48.0041 47.8904 48 47.9169 48V50C48.2843 50 48.6749 49.8802 48.984 49.5711L47.5698 48.1569ZM47.9169 48C47.944 48 47.9954 48.0043 48.0596 48.028C48.1259 48.0525 48.1866 48.0907 48.2356 48.137L46.8623 49.591C47.1686 49.8803 47.5484 50 47.9169 50V48ZM48.276 48.1774C48.3152 48.219 48.3533 48.2752 48.3797 48.3436C48.4058 48.4111 48.4129 48.4707 48.4129 48.512H46.4129C46.4129 48.8919 46.5465 49.259 46.8219 49.5506L48.276 48.1774ZM48.4129 48.512V44.744H46.4129V48.512H48.4129ZM47.1881 45.7184L47.5001 45.7904L47.9498 43.8416L47.6378 43.7696L47.1881 45.7184ZM46.8888 44.2675L45.2568 46.7555L46.9291 47.8525L48.5611 45.3645L46.8888 44.2675ZM45.319 46.6708C45.3581 46.6229 45.3954 46.5977 45.4128 46.5878L46.4051 48.3242C46.5718 48.229 46.7317 48.1024 46.8669 47.9372L45.319 46.6708ZM45.3848 46.6043C45.4774 46.5474 45.6116 46.5036 45.7642 46.5145L45.6217 48.5095C45.9236 48.531 46.2018 48.4499 46.433 48.3077L45.3848 46.6043ZM45.6162 46.5149C45.7892 46.5016 45.9154 46.5548 45.9731 46.5878L44.9808 48.3242C45.1878 48.4425 45.458 48.533 45.7696 48.5091L45.6162 46.5149ZM46.001 46.6043C46.0195 46.6157 46.0473 46.637 46.0749 46.6708L44.527 47.9372C44.6506 48.0883 44.7957 48.2109 44.9528 48.3077L46.001 46.6043ZM46.1461 46.7695L44.6181 44.3535L42.9278 45.4225L44.4558 47.8385L46.1461 46.7695ZM44.6707 45.3284L44.8787 44.9044L43.0831 44.0236L42.8751 44.4476L44.6707 45.3284ZM42.9809 44.464V48.512H44.9809V44.464H42.9809ZM42.9809 48.512C42.9809 48.4776 42.9865 48.4246 43.0091 48.3623C43.0322 48.2988 43.0667 48.2433 43.1055 48.1996L44.6003 49.5284C44.8619 49.2341 44.9809 48.8744 44.9809 48.512H42.9809ZM43.1247 48.1786C43.1778 48.1222 43.2479 48.0722 43.3297 48.0391C43.4092 48.0069 43.4765 48 43.5169 48V50C43.8967 50 44.2843 49.8647 44.5811 49.5494L43.1247 48.1786ZM43.5169 48C43.5651 48 43.6368 48.0086 43.718 48.0423C43.8007 48.0766 43.868 48.1265 43.9171 48.1786L42.4607 49.5494C42.7495 49.8562 43.1297 50 43.5169 50V48ZM43.9363 48.1996C43.9751 48.2433 44.0096 48.2988 44.0327 48.3623C44.0554 48.4246 44.0609 48.4776 44.0609 48.512H42.0609C42.0609 48.8744 42.18 49.2341 42.4415 49.5284L43.9363 48.1996ZM44.0609 48.512V43.88H42.0609V48.512H44.0609ZM44.0609 43.88C44.0609 43.9362 44.0502 44.0065 44.0194 44.0801C43.9887 44.1534 43.9475 44.2077 43.912 44.2431L42.4978 42.8289C42.2181 43.1086 42.0609 43.4761 42.0609 43.88H44.0609ZM43.8927 44.262C43.859 44.2938 43.8087 44.3299 43.7423 44.3565C43.6758 44.3831 43.6135 44.392 43.5649 44.392V42.392C43.1685 42.392 42.8029 42.5394 42.5172 42.81L43.8927 44.262Z" fill="white"/>
<path d="M28.5487 0.00428702H29.2028C29.3563 0.00156844 29.5373 0 29.7187 0C40.5824 0 50.1207 5.67486 55.5309 14.2219L55.6048 14.3471L56.4055 15.5994L55.6048 16.8516C50.1431 25.4843 40.6672 31.1464 29.865 31.2013H29.1748L29.133 31.2014C23.6373 31.2014 18.4679 29.8041 13.9608 27.3454L14.1268 27.4283C9.46865 24.8589 5.65345 21.2857 2.87454 16.9808L2.80067 16.8586L2 15.6063L2.80067 14.3541C8.26239 5.72144 17.7383 0.0592857 28.5405 0.00439152H28.5486L28.5487 0.00428702ZM29.2028 4.65953H29.1493C29.0064 4.6567 28.838 4.65508 28.6692 4.65508C19.986 4.65508 12.3047 8.94436 7.62844 15.5198L7.5748 15.5993C12.455 22.2617 20.2496 26.5394 29.0435 26.5394C29.0996 26.5394 29.1556 26.5393 29.2116 26.5389H29.203H29.857C38.4925 26.4922 46.1194 22.2161 50.7775 15.6783L50.8311 15.5992C46.1194 8.98237 38.4925 4.70637 29.8643 4.65953H29.2564H29.2028ZM29.2028 0.00433967C37.8157 0.00433967 44.7978 6.98652 44.7978 15.5994C44.7978 24.2122 37.8156 31.1943 29.2028 31.1943C20.59 31.1943 13.6078 24.2121 13.6078 15.5993C13.6078 6.98652 20.59 0.00428702 29.2029 0.00428702L29.2028 0.00433967ZM29.2028 26.5392C35.2447 26.5392 40.1425 21.6412 40.1425 15.5994C40.1425 9.5575 35.2446 4.65963 29.2028 4.65963C23.1609 4.65963 18.263 9.5575 18.263 15.5994C18.263 21.6412 23.1609 26.5392 29.2028 26.5392ZM29.2028 8.84926C32.9308 8.84926 35.9529 11.8714 35.9529 15.5993C35.9529 19.3273 32.9308 22.3494 29.2028 22.3494C25.4749 22.3494 22.4528 19.3272 22.4528 15.5993C22.4528 11.8713 25.4749 8.84921 29.2028 8.84921L29.2028 8.84926ZM29.2028 17.6942C30.3597 17.6942 31.2976 16.7563 31.2976 15.5993C31.2976 14.4424 30.3597 13.5045 29.2028 13.5045C28.0458 13.5045 27.1079 14.4424 27.1079 15.5993C27.1079 16.7563 28.0458 17.6942 29.2028 17.6942Z" fill="black"/>
</svg>
