<svg width="176" height="176" viewBox="0 0 176 176" fill="none" xmlns="http://www.w3.org/2000/svg">
<path d="M176 88C176 136.601 136.601 176 88 176C39.3989 176 0 136.601 0 88C0 39.3989 39.3989 0 88 0C136.601 0 176 39.3989 176 88Z" fill="#FDE76F"/>
<path d="M118.822 61.6447L118.833 118.766L140.703 65.997L118.854 118.775L159.253 78.3916L118.87 118.791L171.647 96.9413L118.878 118.811L176 118.822L118.878 118.833L171.647 140.703L118.87 118.854L159.253 159.253L118.854 118.87L140.703 171.648L118.833 118.879L118.822 176L118.811 118.879L96.9411 171.648L118.79 118.87L78.3915 159.253L118.775 118.854L65.9969 140.703L118.766 118.833L61.6445 118.822L118.766 118.811L65.9969 96.9413L118.775 118.791L78.3915 78.3916L118.79 118.775L96.9411 65.997L118.811 118.766L118.822 61.6447Z" fill="#F8F7FA" stroke="#D00606" stroke-width="11"/>
</svg>
