<svg width="41" height="31" viewBox="0 0 41 31" fill="none" xmlns="http://www.w3.org/2000/svg">
<path d="M0 0H40.977V31H0V18.885H1.78162C3.65112 18.885 5.16663 17.3695 5.16663 15.5C5.16663 13.6305 3.65112 12.115 1.78162 12.115H0V0ZM37.4138 3.56324H3.56324V8.78341C6.55917 9.60183 8.72567 12.2973 8.72991 15.4996V15.5C8.72563 18.7027 6.55913 21.3983 3.61206 22.2053L3.56324 22.2167V27.4369H37.4138V3.56324ZM17.1035 10.5115H13.7184V6.94829H17.1034L17.1035 10.5115ZM17.1035 17.2816H13.7184V13.7184H17.1034L17.1035 17.2816ZM17.1035 24.0517H13.7184V20.4886H17.1034L17.1035 24.0517Z" fill="black"/>
</svg>
