<svg width="55" height="32" viewBox="0 0 55 32" fill="none" xmlns="http://www.w3.org/2000/svg">
<path d="M26.5487 0.00428702H27.2028C27.3563 0.00156844 27.5373 0 27.7187 0C38.5824 0 48.1207 5.67486 53.5309 14.2219L53.6048 14.3471L54.4055 15.5994L53.6048 16.8516C48.1431 25.4843 38.6672 31.1464 27.865 31.2013H27.1748L27.133 31.2014C21.6373 31.2014 16.4678 29.8041 11.9608 27.3454L12.1268 27.4283C7.46865 24.8589 3.65345 21.2857 0.874543 16.9808L0.800672 16.8586L0 15.6063L0.800672 14.3541C6.26239 5.72144 15.7383 0.0592857 26.5405 0.00439152H26.5486L26.5487 0.00428702ZM27.2028 4.65953H27.1493C27.0064 4.6567 26.838 4.65508 26.6692 4.65508C17.986 4.65508 10.3047 8.94436 5.62844 15.5198L5.5748 15.5993C10.455 22.2617 18.2496 26.5394 27.0435 26.5394C27.0996 26.5394 27.1556 26.5393 27.2116 26.5389H27.203H27.857C36.4925 26.4922 44.1194 22.2161 48.7775 15.6783L48.8311 15.5992C44.1194 8.98237 36.4925 4.70637 27.8643 4.65953H27.2564H27.2028ZM27.2028 0.00433967C35.8157 0.00433967 42.7978 6.98652 42.7978 15.5994C42.7978 24.2122 35.8156 31.1943 27.2028 31.1943C18.59 31.1943 11.6078 24.2121 11.6078 15.5993C11.6078 6.98652 18.59 0.00428702 27.2029 0.00428702L27.2028 0.00433967ZM27.2028 26.5392C33.2447 26.5392 38.1425 21.6412 38.1425 15.5994C38.1425 9.5575 33.2446 4.65963 27.2028 4.65963C21.1609 4.65963 16.263 9.5575 16.263 15.5994C16.263 21.6412 21.1609 26.5392 27.2028 26.5392ZM27.2028 8.84926C30.9308 8.84926 33.9529 11.8714 33.9529 15.5993C33.9529 19.3273 30.9308 22.3494 27.2028 22.3494C23.4749 22.3494 20.4528 19.3272 20.4528 15.5993C20.4528 11.8713 23.4749 8.84921 27.2028 8.84921L27.2028 8.84926ZM27.2028 17.6942C28.3597 17.6942 29.2976 16.7563 29.2976 15.5993C29.2976 14.4424 28.3597 13.5044 27.2028 13.5044C26.0458 13.5044 25.1079 14.4424 25.1079 15.5993C25.1079 16.7563 26.0458 17.6942 27.2028 17.6942Z" fill="black"/>
</svg>
